<svg xmlns="http://www.w3.org/2000/svg" xmlns:xlink="http://www.w3.org/1999/xlink" xmlns:lucid="lucid" width="1005.48" height="786.76"><g transform="translate(-2.686930822187975 -4.978580171387165)" lucid:page-tab-id="V~PrbhBrGrrU"><path d="M0 0h1760v1360H0z" fill="#fff"/><g filter="url(#a)"><path d="M332.67 32.48a6 6 0 0 1 6-6h324a6 6 0 0 1 6 6v72.87a6 6 0 0 1-6 6h-324a6 6 0 0 1-6-6z" stroke="#cfe4ff" fill="#cfe4ff"/><use xlink:href="#b" transform="matrix(1,0,0,1,344.6666666666666,38.478580171387186) translate(57.419753086419746 25.40277777777778)"/><use xlink:href="#c" transform="matrix(1,0,0,1,344.6666666666666,38.478580171387186) translate(165.87654320987653 25.40277777777778)"/><use xlink:href="#d" transform="matrix(1,0,0,1,344.6666666666666,38.478580171387186) translate(64.8641975308642 48.51388888888889)"/><use xlink:href="#e" transform="matrix(1,0,0,1,344.6666666666666,38.478580171387186) translate(94.39506172839506 48.51388888888889)"/><use xlink:href="#f" transform="matrix(1,0,0,1,344.6666666666666,38.478580171387186) translate(134.8395061728395 48.51388888888889)"/><use xlink:href="#g" transform="matrix(1,0,0,1,344.6666666666666,38.478580171387186) translate(155.53086419753083 48.51388888888889)"/><use xlink:href="#h" transform="matrix(1,0,0,1,344.6666666666666,38.478580171387186) translate(196.91358024691357 48.51388888888889)"/></g><g filter="url(#a)"><path d="M332.67 631.83a6 6 0 0 1 6-6h324a6 6 0 0 1 6 6v72.87a6 6 0 0 1-6 6h-324a6 6 0 0 1-6-6z" stroke="#1071e5" stroke-width="3" fill="#1071e5"/><use xlink:href="#i" transform="matrix(1,0,0,1,344.6666666666666,637.8315513921073) translate(68.12962962962962 25.40277777777778)"/><use xlink:href="#j" transform="matrix(1,0,0,1,344.6666666666666,637.8315513921073) translate(169.98148148148147 25.40277777777778)"/><use xlink:href="#k" transform="matrix(1,0,0,1,344.6666666666666,637.8315513921073) translate(83.62962962962965 48.51388888888889)"/></g><g filter="url(#l)"><path d="M24.2 572.3a6 6 0 0 1 6-6h224a6 6 0 0 1 6 6v72.86a6 6 0 0 1-6 6h-224a6 6 0 0 1-6-6z" stroke="#cfe4ff" fill="#cfe4ff"/><use xlink:href="#m" transform="matrix(1,0,0,1,36.186930822187975,578.2911690396786) translate(40.5679012345679 25.40277777777778)"/><use xlink:href="#n" transform="matrix(1,0,0,1,36.186930822187975,578.2911690396786) translate(35.55555555555557 48.51388888888889)"/><use xlink:href="#o" transform="matrix(1,0,0,1,36.186930822187975,578.2911690396786) translate(147.9506172839506 48.51388888888889)"/></g><path d="M310.55 668.27h-8.62a6 6 0 0 1-6-6v-47.54a6 6 0 0 0-6-6H262.2" stroke="#1071e5" stroke-width="3" fill="none"/><path d="M326.3 668.27l-14.25 4.63v-9.27z" stroke="#1071e5" stroke-width="3" fill="#1071e5"/><path d="M262.23 610.2h-1.54v-2.95h1.53z" stroke="#1071e5" stroke-width=".05" fill="#1071e5"/><g filter="url(#p)"><path d="M24.2 691.37a6 6 0 0 1 6-6h224a6 6 0 0 1 6 6v72.87a6 6 0 0 1-6 6h-224a6 6 0 0 1-6-6z" stroke="#cfe4ff" fill="#cfe4ff"/><use xlink:href="#q" transform="matrix(1,0,0,1,36.186930822187975,697.371933744536) translate(17.450617283950606 36.84027777777778)"/><use xlink:href="#r" transform="matrix(1,0,0,1,36.186930822187975,697.371933744536) translate(86.52469135802468 36.84027777777778)"/></g><g filter="url(#s)"><path d="M741.15 631.83a6 6 0 0 1 6-6h221.33a6 6 0 0 1 6 6v72.87a6 6 0 0 1-6 6H747.15a6 6 0 0 1-6-6z" stroke="#cfe4ff" fill="#cfe4ff"/><use xlink:href="#t" transform="matrix(1,0,0,1,753.1464025111452,637.8315513921073) translate(21.790123456790127 25.40277777777778)"/><use xlink:href="#u" transform="matrix(1,0,0,1,753.1464025111452,637.8315513921073) translate(137.65432098765433 25.40277777777778)"/><use xlink:href="#v" transform="matrix(1,0,0,1,753.1464025111452,637.8315513921073) translate(52.728395061728406 48.51388888888889)"/><use xlink:href="#f" transform="matrix(1,0,0,1,753.1464025111452,637.8315513921073) translate(92.18518518518519 48.51388888888889)"/><use xlink:href="#w" transform="matrix(1,0,0,1,753.1464025111452,637.8315513921073) translate(112.87654320987654 48.51388888888889)"/></g><path d="M310.55 668.27h-8.62a6 6 0 0 0-6 6v47.54a6 6 0 0 1-6 6H262.2" stroke="#1071e5" stroke-width="3" fill="none"/><path d="M326.3 668.27l-14.25 4.63v-9.27z" stroke="#1071e5" stroke-width="3" fill="#1071e5"/><path d="M262.23 729.28h-1.54v-2.95h1.53z" stroke="#1071e5" stroke-width=".05" fill="#1071e5"/><path d="M720.03 668.27h-48.36" stroke="#1071e5" stroke-width="3" fill="none"/><path d="M735.8 668.27l-14.27 4.63v-9.27z" stroke="#1071e5" stroke-width="3" fill="#1071e5"/><path d="M671.7 669.74h-1.53v-2.95h1.54z" stroke="#1071e5" stroke-width=".05" fill="#1071e5"/><path d="M500.67 603.7V113.36" stroke="#1071e5" stroke-width="3" fill="none"/><path d="M500.67 619.48l-4.64-14.27h9.27z" stroke="#1071e5" stroke-width="3" fill="#1071e5"/><path d="M502.14 113.4h-2.95v-1.55h2.94z" stroke="#1071e5" stroke-width=".05" fill="#1071e5"/><g filter="url(#a)"><path d="M332.67 152.35a6 6 0 0 1 6-6h324a6 6 0 0 1 6 6v72.87a6 6 0 0 1-6 6h-324a6 6 0 0 1-6-6z" stroke="#1071e5" stroke-width="3" fill="#1071e5"/><use xlink:href="#x" transform="matrix(1,0,0,1,344.6666666666666,158.34917441553122) translate(52.512345679012356 36.84027777777778)"/><use xlink:href="#y" transform="matrix(1,0,0,1,344.6666666666666,158.34917441553122) translate(173.12962962962962 36.84027777777778)"/></g><g filter="url(#a)"><path d="M332.67 272.22a6 6 0 0 1 6-6h324a6 6 0 0 1 6 6v72.87a6 6 0 0 1-6 6h-324a6 6 0 0 1-6-6z" stroke="#cfe4ff" fill="#cfe4ff"/><use xlink:href="#z" transform="matrix(1,0,0,1,344.6666666666666,278.2197686596752) translate(6.401234567901241 36.84027777777778)"/><use xlink:href="#A" transform="matrix(1,0,0,1,344.6666666666666,278.2197686596752) translate(111.15432098765433 36.84027777777778)"/><use xlink:href="#B" transform="matrix(1,0,0,1,344.6666666666666,278.2197686596752) translate(220.47530864197532 36.84027777777778)"/></g><g filter="url(#a)"><path d="M332.67 392.1a6 6 0 0 1 6-6h324a6 6 0 0 1 6 6v72.86a6 6 0 0 1-6 6h-324a6 6 0 0 1-6-6z" stroke="#1071e5" stroke-width="3" fill="#1071e5"/><use xlink:href="#C" transform="matrix(1,0,0,1,344.6666666666666,398.09036290381914) translate(55.53703703703704 25.40277777777778)"/><use xlink:href="#D" transform="matrix(1,0,0,1,344.6666666666666,398.09036290381914) translate(170.10493827160494 25.40277777777778)"/><use xlink:href="#E" transform="matrix(1,0,0,1,344.6666666666666,398.09036290381914) translate(60.37037037037038 48.51388888888889)"/><use xlink:href="#F" transform="matrix(1,0,0,1,344.6666666666666,398.09036290381914) translate(138.24691358024688 48.51388888888889)"/><use xlink:href="#G" transform="matrix(1,0,0,1,344.6666666666666,398.09036290381914) translate(191.58024691358023 48.51388888888889)"/></g><g filter="url(#a)"><path d="M332.67 511.96a6 6 0 0 1 6-6h324a6 6 0 0 1 6 6v72.87a6 6 0 0 1-6 6h-324a6 6 0 0 1-6-6z" stroke="#cfe4ff" fill="#cfe4ff"/><use xlink:href="#H" transform="matrix(1,0,0,1,344.6666666666666,517.9609571479632) translate(88.87037037037037 21.59027777777778)"/><use xlink:href="#I" transform="matrix(1,0,0,1,344.6666666666666,517.9609571479632) translate(6.401234567901241 48.25694444444444)"/><use xlink:href="#J" transform="matrix(1,0,0,1,344.6666666666666,517.9609571479632) translate(111.15432098765433 48.25694444444444)"/><use xlink:href="#B" transform="matrix(1,0,0,1,344.6666666666666,517.9609571479632) translate(220.47530864197532 48.25694444444444)"/></g><path d="M690.8 648h13.37a6 6 0 0 0 6-6V314.65a6 6 0 0 0-6-6h-33.5" stroke="#1071e5" stroke-width="3" fill="none"/><path d="M675.02 648l14.27-4.63v9.26z" stroke="#1071e5" stroke-width="3" fill="#1071e5"/><path d="M670.7 310.13h-1.53v-2.95h1.54z" stroke="#1071e5" stroke-width=".05" fill="#1071e5"/><use xlink:href="#K" transform="matrix(1,0,0,1,718.1665888545684,310.6666666666667) translate(0 14.222222222222223)"/><use xlink:href="#L" transform="matrix(1,0,0,1,718.1665888545684,310.6666666666667) translate(15.753086419753089 14.222222222222223)"/><use xlink:href="#M" transform="matrix(1,0,0,1,718.1665888545684,310.6666666666667) translate(42.32098765432099 14.222222222222223)"/><use xlink:href="#N" transform="matrix(1,0,0,1,718.1665888545684,310.6666666666667) translate(0 35.55555555555556)"/><g filter="url(#O)"><path d="M712 32.48a6 6 0 0 1 6-6h262.67a6 6 0 0 1 6 6v72.87a6 6 0 0 1-6 6H718a6 6 0 0 1-6-6z" stroke="#cfe4ff" fill="#dfe3e8"/><use xlink:href="#P" transform="matrix(1,0,0,1,724,38.478580171387165) translate(3.6790123456790127 25.40277777777778)"/><use xlink:href="#A" transform="matrix(1,0,0,1,724,38.478580171387165) translate(52.876543209876544 25.40277777777778)"/><use xlink:href="#Q" transform="matrix(1,0,0,1,724,38.478580171387165) translate(162.19753086419755 25.40277777777778)"/><use xlink:href="#d" transform="matrix(1,0,0,1,724,38.478580171387165) translate(34.3641975308642 48.51388888888889)"/><use xlink:href="#e" transform="matrix(1,0,0,1,724,38.478580171387165) translate(63.89506172839506 48.51388888888889)"/><use xlink:href="#f" transform="matrix(1,0,0,1,724,38.478580171387165) translate(104.33950617283949 48.51388888888889)"/><use xlink:href="#g" transform="matrix(1,0,0,1,724,38.478580171387165) translate(125.03086419753085 48.51388888888889)"/><use xlink:href="#h" transform="matrix(1,0,0,1,724,38.478580171387165) translate(166.41358024691357 48.51388888888889)"/></g><path d="M690.8 188.78h3.17m12.7 0h6.36m12.72 0h6.35m12.7 0h6.37m12.7 0h6.37m12.7 0h6.37m12.72 0h6.36m12.7 0h6.36m12.7 0h3.2l.93-.07.92-.2.86-.37.8-.5.72-.6.6-.72.5-.8.36-.86.22-.92.07-.94v-2.9m0-11.56v-5.8m0-11.56v-5.8m0-11.56v-5.78m0-11.58v-2.9" stroke="#979ea8" stroke-width="3" fill="none"/><path d="M675.02 188.78l14.27-4.63v9.27z" stroke="#979ea8" stroke-width="3" fill="#979ea8"/><path d="M850.8 113.4h-2.94v-1.55h2.95z" stroke="#979ea8" stroke-width=".05" fill="#979ea8"/><g><use xlink:href="#R" transform="matrix(1,0,0,1,857.3333333333333,150.66666666666669) translate(0 14.222222222222223)"/><use xlink:href="#S" transform="matrix(1,0,0,1,857.3333333333333,150.66666666666669) translate(45.23456790123457 14.222222222222223)"/></g><defs><path fill="#4c535d" d="M169-182c-1-43-94-46-97-3 18 66 151 10 154 114 3 95-165 93-204 36-6-8-10-19-12-30l50-8c3 46 112 56 116 5-17-69-150-10-154-114-4-87 153-88 188-35 5 8 8 18 10 28" id="T"/><path fill="#4c535d" d="M185-48c-13 30-37 53-82 52C43 2 14-33 14-96s30-98 90-98c62 0 83 45 84 108H66c0 31 8 55 39 56 18 0 30-7 34-22zm-45-69c5-46-57-63-70-21-2 6-4 13-4 21h74" id="U"/><path fill="#4c535d" d="M220-157c-53 9-28 100-34 157h-49v-107c1-27-5-49-29-50C55-147 81-57 75 0H25l-1-190h47c2 12-1 28 3 38 10-53 101-56 108 0 13-22 24-43 59-42 82 1 51 116 57 194h-49v-107c-1-25-5-48-29-50" id="V"/><path fill="#4c535d" d="M67-125c0 53 21 87 73 88 37 1 54-22 65-47l45 17C233-25 199 4 140 4 58 4 20-42 15-125 8-235 124-281 211-232c18 10 29 29 36 50l-46 12c-8-25-30-41-62-41-52 0-71 34-72 86" id="W"/><path fill="#4c535d" d="M110-194c64 0 96 36 96 99 0 64-35 99-97 99-61 0-95-36-95-99 0-62 34-99 96-99zm-1 164c35 0 45-28 45-65 0-40-10-65-43-65-34 0-45 26-45 65 0 36 10 65 43 65" id="X"/><path fill="#4c535d" d="M135-194c87-1 58 113 63 194h-50c-7-57 23-157-34-157-59 0-34 97-39 157H25l-1-190h47c2 12-1 28 3 38 12-26 28-41 61-42" id="Y"/><path fill="#4c535d" d="M128 0H69L1-190h53L99-40l48-150h52" id="Z"/><g id="b"><use transform="matrix(0.06172839506172839,0,0,0.06172839506172839,0,0)" xlink:href="#T"/><use transform="matrix(0.06172839506172839,0,0,0.06172839506172839,14.814814814814813,0)" xlink:href="#U"/><use transform="matrix(0.06172839506172839,0,0,0.06172839506172839,27.160493827160494,0)" xlink:href="#V"/><use transform="matrix(0.06172839506172839,0,0,0.06172839506172839,46.91358024691358,0)" xlink:href="#W"/><use transform="matrix(0.06172839506172839,0,0,0.06172839506172839,62.901234567901234,0)" xlink:href="#X"/><use transform="matrix(0.06172839506172839,0,0,0.06172839506172839,76.41975308641975,0)" xlink:href="#Y"/><use transform="matrix(0.06172839506172839,0,0,0.06172839506172839,89.93827160493827,0)" xlink:href="#Z"/></g><path fill="#4c535d" d="M240-174c0 40-23 61-54 70L253 0h-59l-57-94H76V0H24v-248c93 4 217-23 216 74zM76-134c48-2 112 12 112-38 0-48-66-32-112-35v73" id="aa"/><path fill="#4c535d" d="M195-6C206 82 75 100 31 46c-4-6-6-13-8-21l49-6c3 16 16 24 34 25 40 0 42-37 40-79-11 22-30 35-61 35-53 0-70-43-70-97 0-56 18-96 73-97 30 0 46 14 59 34l2-30h47zm-90-29c32 0 41-27 41-63 0-35-9-62-40-62-32 0-39 29-40 63 0 36 9 62 39 62" id="ab"/><path fill="#4c535d" d="M25-224v-37h50v37H25zM25 0v-190h50V0H25" id="ac"/><path fill="#4c535d" d="M137-138c1-29-70-34-71-4 15 46 118 7 119 86 1 83-164 76-172 9l43-7c4 19 20 25 44 25 33 8 57-30 24-41C81-84 22-81 20-136c-2-80 154-74 161-7" id="ad"/><path fill="#4c535d" d="M115-3C79 11 28 4 28-45v-112H4v-33h27l15-45h31v45h36v33H77v99c-1 23 16 31 38 25v30" id="ae"/><path fill="#4c535d" d="M135-150c-39-12-60 13-60 57V0H25l-1-190h47c2 13-1 29 3 40 6-28 27-53 61-41v41" id="af"/><path fill="#4c535d" d="M123 10C108 53 80 86 19 72V37c35 8 53-11 59-39L3-190h52l48 148c12-52 28-100 44-148h51" id="ag"/><g id="c"><use transform="matrix(0.06172839506172839,0,0,0.06172839506172839,0,0)" xlink:href="#aa"/><use transform="matrix(0.06172839506172839,0,0,0.06172839506172839,15.987654320987653,0)" xlink:href="#U"/><use transform="matrix(0.06172839506172839,0,0,0.06172839506172839,28.333333333333332,0)" xlink:href="#ab"/><use transform="matrix(0.06172839506172839,0,0,0.06172839506172839,41.85185185185185,0)" xlink:href="#ac"/><use transform="matrix(0.06172839506172839,0,0,0.06172839506172839,48.02469135802469,0)" xlink:href="#ad"/><use transform="matrix(0.06172839506172839,0,0,0.06172839506172839,60.37037037037037,0)" xlink:href="#ae"/><use transform="matrix(0.06172839506172839,0,0,0.06172839506172839,67.71604938271605,0)" xlink:href="#af"/><use transform="matrix(0.06172839506172839,0,0,0.06172839506172839,76.35802469135803,0)" xlink:href="#ag"/></g><path fill="#4c535d" d="M87 75C49 33 22-17 22-94c0-76 28-126 65-167h31c-38 41-64 92-64 168S80 34 118 75H87" id="ah"/><path fill="#4c535d" d="M177-190C167-65 218 103 67 71c-23-6-38-20-44-43l32-5c15 47 100 32 89-28v-30C133-14 115 1 83 1 29 1 15-40 15-95c0-56 16-97 71-98 29-1 48 16 59 35 1-10 0-23 2-32h30zM94-22c36 0 50-32 50-73 0-42-14-75-50-75-39 0-46 34-46 75s6 73 46 73" id="ai"/><path fill="#4c535d" d="M24-231v-30h32v30H24zM24 0v-190h32V0H24" id="aj"/><path fill="#4c535d" d="M59-47c-2 24 18 29 38 22v24C64 9 27 4 27-40v-127H5v-23h24l9-43h21v43h35v23H59v120" id="ak"/><g id="d"><use transform="matrix(0.049382716049382706,0,0,0.049382716049382706,0,0)" xlink:href="#ah"/><use transform="matrix(0.049382716049382706,0,0,0.049382716049382706,5.876543209876542,0)" xlink:href="#ai"/><use transform="matrix(0.049382716049382706,0,0,0.049382716049382706,15.75308641975308,0)" xlink:href="#aj"/><use transform="matrix(0.049382716049382706,0,0,0.049382716049382706,19.654320987654316,0)" xlink:href="#ak"/></g><path fill="#4c535d" d="M114-163C36-179 61-72 57 0H25l-1-190h30c1 12-1 29 2 39 6-27 23-49 58-41v29" id="al"/><path fill="#4c535d" d="M100-194c63 0 86 42 84 106H49c0 40 14 67 53 68 26 1 43-12 49-29l28 8c-11 28-37 45-77 45C44 4 14-33 15-96c1-61 26-98 85-98zm52 81c6-60-76-77-97-28-3 7-6 17-6 28h103" id="am"/><path fill="#4c535d" d="M115-194c55 1 70 41 70 98S169 2 115 4C84 4 66-9 55-30l1 105H24l-1-265h31l2 30c10-21 28-34 59-34zm-8 174c40 0 45-34 45-75s-6-73-45-74c-42 0-51 32-51 76 0 43 10 73 51 73" id="an"/><path fill="#4c535d" d="M100-194c62-1 85 37 85 99 1 63-27 99-86 99S16-35 15-95c0-66 28-99 85-99zM99-20c44 1 53-31 53-75 0-43-8-75-51-75s-53 32-53 75 10 74 51 75" id="ao"/><g id="e"><use transform="matrix(0.049382716049382706,0,0,0.049382716049382706,0,0)" xlink:href="#al"/><use transform="matrix(0.049382716049382706,0,0,0.049382716049382706,5.876543209876542,0)" xlink:href="#am"/><use transform="matrix(0.049382716049382706,0,0,0.049382716049382706,15.75308641975308,0)" xlink:href="#an"/><use transform="matrix(0.049382716049382706,0,0,0.049382716049382706,25.629629629629626,0)" xlink:href="#ao"/></g><g id="f"><use transform="matrix(0.049382716049382706,0,0,0.049382716049382706,0,0)" xlink:href="#ao"/><use transform="matrix(0.049382716049382706,0,0,0.049382716049382706,9.87654320987654,0)" xlink:href="#al"/></g><path fill="#4c535d" d="M24 0v-261h32V0H24" id="ap"/><path fill="#4c535d" d="M96-169c-40 0-48 33-48 73s9 75 48 75c24 0 41-14 43-38l32 2c-6 37-31 61-74 61-59 0-76-41-82-99-10-93 101-131 147-64 4 7 5 14 7 22l-32 3c-4-21-16-35-41-35" id="aq"/><path fill="#4c535d" d="M141-36C126-15 110 5 73 4 37 3 15-17 15-53c-1-64 63-63 125-63 3-35-9-54-41-54-24 1-41 7-42 31l-33-3c5-37 33-52 76-52 45 0 72 20 72 64v82c-1 20 7 32 28 27v20c-31 9-61-2-59-35zM48-53c0 20 12 33 32 33 41-3 63-29 60-74-43 2-92-5-92 41" id="ar"/><g id="g"><use transform="matrix(0.049382716049382706,0,0,0.049382716049382706,0,0)" xlink:href="#ap"/><use transform="matrix(0.049382716049382706,0,0,0.049382716049382706,3.9012345679012337,0)" xlink:href="#ao"/><use transform="matrix(0.049382716049382706,0,0,0.049382716049382706,13.777777777777775,0)" xlink:href="#aq"/><use transform="matrix(0.049382716049382706,0,0,0.049382716049382706,22.666666666666664,0)" xlink:href="#ar"/><use transform="matrix(0.049382716049382706,0,0,0.049382716049382706,32.5432098765432,0)" xlink:href="#ap"/></g><path fill="#4c535d" d="M101-234c-31-9-42 10-38 44h38v23H63V0H32v-167H5v-23h27c-7-52 17-82 69-68v24" id="as"/><path fill="#4c535d" d="M85-194c31 0 48 13 60 33l-1-100h32l1 261h-30c-2-10 0-23-3-31C134-8 116 4 85 4 32 4 16-35 15-94c0-66 23-100 70-100zm9 24c-40 0-46 34-46 75 0 40 6 74 45 74 42 0 51-32 51-76 0-42-9-74-50-73" id="at"/><path fill="#4c535d" d="M33-261c38 41 65 92 65 168S71 34 33 75H2C39 34 66-17 66-93S39-220 2-261h31" id="au"/><g id="h"><use transform="matrix(0.049382716049382706,0,0,0.049382716049382706,0,0)" xlink:href="#as"/><use transform="matrix(0.049382716049382706,0,0,0.049382716049382706,4.93827160493827,0)" xlink:href="#ao"/><use transform="matrix(0.049382716049382706,0,0,0.049382716049382706,14.814814814814811,0)" xlink:href="#ap"/><use transform="matrix(0.049382716049382706,0,0,0.049382716049382706,18.716049382716044,0)" xlink:href="#at"/><use transform="matrix(0.049382716049382706,0,0,0.049382716049382706,28.592592592592588,0)" xlink:href="#am"/><use transform="matrix(0.049382716049382706,0,0,0.049382716049382706,38.469135802469125,0)" xlink:href="#al"/><use transform="matrix(0.049382716049382706,0,0,0.049382716049382706,44.34567901234567,0)" xlink:href="#au"/></g><filter id="a" filterUnits="objectBoundingBox" x="-.03" y="-.05" width="1.06" height="1.24"><feOffset result="offOut" in="SourceAlpha" dy="6"/><feGaussianBlur result="blurOut" in="offOut" stdDeviation="5"/><feColorMatrix result="colorOut" in="blurOut" values="0 0 0 0 0 0 0 0 0 0 0 0 0 0 0 0 0 0 0.5019607843137255 0"/><feBlend in="SourceGraphic" in2="colorOut"/></filter><path fill="#fff" d="M136-208V0H84v-208H4v-40h212v40h-80" id="av"/><path fill="#fff" d="M185-48c-13 30-37 53-82 52C43 2 14-33 14-96s30-98 90-98c62 0 83 45 84 108H66c0 31 8 55 39 56 18 0 30-7 34-22zm-45-69c5-46-57-63-70-21-2 6-4 13-4 21h74" id="aw"/><path fill="#fff" d="M220-157c-53 9-28 100-34 157h-49v-107c1-27-5-49-29-50C55-147 81-57 75 0H25l-1-190h47c2 12-1 28 3 38 10-53 101-56 108 0 13-22 24-43 59-42 82 1 51 116 57 194h-49v-107c-1-25-5-48-29-50" id="ax"/><path fill="#fff" d="M135-194c53 0 70 44 70 98 0 56-19 98-73 100-31 1-45-17-59-34 3 33 2 69 2 105H25l-1-265h48c2 10 0 23 3 31 11-24 29-35 60-35zM114-30c33 0 39-31 40-66 0-38-9-64-40-64-56 0-55 130 0 130" id="ay"/><path fill="#fff" d="M25 0v-261h50V0H25" id="az"/><path fill="#fff" d="M133-34C117-15 103 5 69 4 32 3 11-16 11-54c-1-60 55-63 116-61 1-26-3-47-28-47-18 1-26 9-28 27l-52-2c7-38 36-58 82-57s74 22 75 68l1 82c-1 14 12 18 25 15v27c-30 8-71 5-69-32zm-48 3c29 0 43-24 42-57-32 0-66-3-65 30 0 17 8 27 23 27" id="aA"/><path fill="#fff" d="M115-3C79 11 28 4 28-45v-112H4v-33h27l15-45h31v45h36v33H77v99c-1 23 16 31 38 25v30" id="aB"/><g id="i"><use transform="matrix(0.06172839506172839,0,0,0.06172839506172839,0,0)" xlink:href="#av"/><use transform="matrix(0.06172839506172839,0,0,0.06172839506172839,11.851851851851851,0)" xlink:href="#aw"/><use transform="matrix(0.06172839506172839,0,0,0.06172839506172839,24.19753086419753,0)" xlink:href="#ax"/><use transform="matrix(0.06172839506172839,0,0,0.06172839506172839,43.95061728395062,0)" xlink:href="#ay"/><use transform="matrix(0.06172839506172839,0,0,0.06172839506172839,57.46913580246914,0)" xlink:href="#az"/><use transform="matrix(0.06172839506172839,0,0,0.06172839506172839,63.64197530864199,0)" xlink:href="#aA"/><use transform="matrix(0.06172839506172839,0,0,0.06172839506172839,75.98765432098766,0)" xlink:href="#aB"/><use transform="matrix(0.06172839506172839,0,0,0.06172839506172839,83.33333333333334,0)" xlink:href="#aw"/></g><path fill="#fff" d="M24 0v-248h195v40H76v63h132v40H76v65h150V0H24" id="aC"/><path fill="#fff" d="M135-194c87-1 58 113 63 194h-50c-7-57 23-157-34-157-59 0-34 97-39 157H25l-1-190h47c2 12-1 28 3 38 12-26 28-41 61-42" id="aD"/><path fill="#fff" d="M195-6C206 82 75 100 31 46c-4-6-6-13-8-21l49-6c3 16 16 24 34 25 40 0 42-37 40-79-11 22-30 35-61 35-53 0-70-43-70-97 0-56 18-96 73-97 30 0 46 14 59 34l2-30h47zm-90-29c32 0 41-27 41-63 0-35-9-62-40-62-32 0-39 29-40 63 0 36 9 62 39 62" id="aE"/><path fill="#fff" d="M25-224v-37h50v37H25zM25 0v-190h50V0H25" id="aF"/><g id="j"><use transform="matrix(0.06172839506172839,0,0,0.06172839506172839,0,0)" xlink:href="#aC"/><use transform="matrix(0.06172839506172839,0,0,0.06172839506172839,14.814814814814813,0)" xlink:href="#aD"/><use transform="matrix(0.06172839506172839,0,0,0.06172839506172839,28.33333333333333,0)" xlink:href="#aE"/><use transform="matrix(0.06172839506172839,0,0,0.06172839506172839,41.85185185185185,0)" xlink:href="#aF"/><use transform="matrix(0.06172839506172839,0,0,0.06172839506172839,48.02469135802469,0)" xlink:href="#aD"/><use transform="matrix(0.06172839506172839,0,0,0.06172839506172839,61.54320987654321,0)" xlink:href="#aw"/></g><path fill="#fff" d="M87 75C49 33 22-17 22-94c0-76 28-126 65-167h31c-38 41-64 92-64 168S80 34 118 75H87" id="aG"/><path fill="#fff" d="M24-231v-30h32v30H24zM-9 49c24 4 33-6 33-30v-209h32V24c2 40-23 58-65 49V49" id="aH"/><path fill="#fff" d="M24-231v-30h32v30H24zM24 0v-190h32V0H24" id="aI"/><path fill="#fff" d="M117-194c89-4 53 116 60 194h-32v-121c0-31-8-49-39-48C34-167 62-67 57 0H25l-1-190h30c1 10-1 24 2 32 11-22 29-35 61-36" id="aJ"/><path fill="#fff" d="M141-36C126-15 110 5 73 4 37 3 15-17 15-53c-1-64 63-63 125-63 3-35-9-54-41-54-24 1-41 7-42 31l-33-3c5-37 33-52 76-52 45 0 72 20 72 64v82c-1 20 7 32 28 27v20c-31 9-61-2-59-35zM48-53c0 20 12 33 32 33 41-3 63-29 60-74-43 2-92-5-92 41" id="aK"/><path fill="#fff" d="M101-251c82-7 93 87 43 132L82-64C71-53 59-42 53-27h129V0H18c2-99 128-94 128-182 0-28-16-43-45-43s-46 15-49 41l-32-3c6-41 34-60 81-64" id="aL"/><path fill="#fff" d="M16-82v-28h88v28H16" id="aM"/><path fill="#fff" d="M96-169c-40 0-48 33-48 73s9 75 48 75c24 0 41-14 43-38l32 2c-6 37-31 61-74 61-59 0-76-41-82-99-10-93 101-131 147-64 4 7 5 14 7 22l-32 3c-4-21-16-35-41-35" id="aN"/><path fill="#fff" d="M100-194c62-1 85 37 85 99 1 63-27 99-86 99S16-35 15-95c0-66 28-99 85-99zM99-20c44 1 53-31 53-75 0-43-8-75-51-75s-53 32-53 75 10 74 51 75" id="aO"/><path fill="#fff" d="M210-169c-67 3-38 105-44 169h-31v-121c0-29-5-50-35-48C34-165 62-65 56 0H25l-1-190h30c1 10-1 24 2 32 10-44 99-50 107 0 11-21 27-35 58-36 85-2 47 119 55 194h-31v-121c0-29-5-49-35-48" id="aP"/><path fill="#fff" d="M115-194c55 1 70 41 70 98S169 2 115 4C84 4 66-9 55-30l1 105H24l-1-265h31l2 30c10-21 28-34 59-34zm-8 174c40 0 45-34 45-75s-6-73-45-74c-42 0-51 32-51 76 0 43 10 73 51 73" id="aQ"/><path fill="#fff" d="M59-47c-2 24 18 29 38 22v24C64 9 27 4 27-40v-127H5v-23h24l9-43h21v43h35v23H59v120" id="aR"/><path fill="#fff" d="M115-194c53 0 69 39 70 98 0 66-23 100-70 100C84 3 66-7 56-30L54 0H23l1-261h32v101c10-23 28-34 59-34zm-8 174c40 0 45-34 45-75 0-40-5-75-45-74-42 0-51 32-51 76 0 43 10 73 51 73" id="aS"/><path fill="#fff" d="M24 0v-261h32V0H24" id="aT"/><path fill="#fff" d="M100-194c63 0 86 42 84 106H49c0 40 14 67 53 68 26 1 43-12 49-29l28 8c-11 28-37 45-77 45C44 4 14-33 15-96c1-61 26-98 85-98zm52 81c6-60-76-77-97-28-3 7-6 17-6 28h103" id="aU"/><path fill="#fff" d="M33-261c38 41 65 92 65 168S71 34 33 75H2C39 34 66-17 66-93S39-220 2-261h31" id="aV"/><g id="k"><use transform="matrix(0.049382716049382706,0,0,0.049382716049382706,0,0)" xlink:href="#aG"/><use transform="matrix(0.049382716049382706,0,0,0.049382716049382706,5.876543209876542,0)" xlink:href="#aH"/><use transform="matrix(0.049382716049382706,0,0,0.049382716049382706,9.777777777777775,0)" xlink:href="#aI"/><use transform="matrix(0.049382716049382706,0,0,0.049382716049382706,13.67901234567901,0)" xlink:href="#aJ"/><use transform="matrix(0.049382716049382706,0,0,0.049382716049382706,23.55555555555555,0)" xlink:href="#aH"/><use transform="matrix(0.049382716049382706,0,0,0.049382716049382706,27.456790123456784,0)" xlink:href="#aK"/><use transform="matrix(0.049382716049382706,0,0,0.049382716049382706,37.33333333333333,0)" xlink:href="#aL"/><use transform="matrix(0.049382716049382706,0,0,0.049382716049382706,47.20987654320987,0)" xlink:href="#aM"/><use transform="matrix(0.049382716049382706,0,0,0.049382716049382706,53.08641975308642,0)" xlink:href="#aN"/><use transform="matrix(0.049382716049382706,0,0,0.049382716049382706,61.97530864197531,0)" xlink:href="#aO"/><use transform="matrix(0.049382716049382706,0,0,0.049382716049382706,71.85185185185185,0)" xlink:href="#aP"/><use transform="matrix(0.049382716049382706,0,0,0.049382716049382706,86.61728395061728,0)" xlink:href="#aQ"/><use transform="matrix(0.049382716049382706,0,0,0.049382716049382706,96.49382716049382,0)" xlink:href="#aK"/><use transform="matrix(0.049382716049382706,0,0,0.049382716049382706,106.37037037037037,0)" xlink:href="#aR"/><use transform="matrix(0.049382716049382706,0,0,0.049382716049382706,111.30864197530865,0)" xlink:href="#aI"/><use transform="matrix(0.049382716049382706,0,0,0.049382716049382706,115.20987654320986,0)" xlink:href="#aS"/><use transform="matrix(0.049382716049382706,0,0,0.049382716049382706,125.08641975308639,0)" xlink:href="#aT"/><use transform="matrix(0.049382716049382706,0,0,0.049382716049382706,128.98765432098764,0)" xlink:href="#aU"/><use transform="matrix(0.049382716049382706,0,0,0.049382716049382706,138.86419753086417,0)" xlink:href="#aV"/></g><path fill="#4c535d" d="M231 0h-52l-39-155L100 0H48L-1-190h46L77-45c9-52 24-97 36-145h53l37 145 32-145h46" id="aW"/><path fill="#4c535d" d="M133-34C117-15 103 5 69 4 32 3 11-16 11-54c-1-60 55-63 116-61 1-26-3-47-28-47-18 1-26 9-28 27l-52-2c7-38 36-58 82-57s74 22 75 68l1 82c-1 14 12 18 25 15v27c-30 8-71 5-69-32zm-48 3c29 0 43-24 42-57-32 0-66-3-65 30 0 17 8 27 23 27" id="aX"/><path fill="#4c535d" d="M24 0v-54h51V0H24" id="aY"/><path fill="#4c535d" d="M25 0v-261h50V0H25" id="aZ"/><g id="m"><use transform="matrix(0.06172839506172839,0,0,0.06172839506172839,0,0)" xlink:href="#aW"/><use transform="matrix(0.06172839506172839,0,0,0.06172839506172839,17.28395061728395,0)" xlink:href="#U"/><use transform="matrix(0.06172839506172839,0,0,0.06172839506172839,29.629629629629626,0)" xlink:href="#aX"/><use transform="matrix(0.06172839506172839,0,0,0.06172839506172839,41.9753086419753,0)" xlink:href="#Z"/><use transform="matrix(0.06172839506172839,0,0,0.06172839506172839,54.32098765432098,0)" xlink:href="#U"/><use transform="matrix(0.06172839506172839,0,0,0.06172839506172839,66.66666666666666,0)" xlink:href="#af"/><use transform="matrix(0.06172839506172839,0,0,0.06172839506172839,74.07407407407406,0)" xlink:href="#aY"/><use transform="matrix(0.06172839506172839,0,0,0.06172839506172839,80.2469135802469,0)" xlink:href="#ag"/><use transform="matrix(0.06172839506172839,0,0,0.06172839506172839,92.59259259259258,0)" xlink:href="#aX"/><use transform="matrix(0.06172839506172839,0,0,0.06172839506172839,104.93827160493827,0)" xlink:href="#V"/><use transform="matrix(0.06172839506172839,0,0,0.06172839506172839,124.69135802469135,0)" xlink:href="#aZ"/></g><path fill="#4c535d" d="M117-194c89-4 53 116 60 194h-32v-121c0-31-8-49-39-48C34-167 62-67 57 0H25l-1-190h30c1 10-1 24 2 32 11-22 29-35 61-36" id="ba"/><path fill="#4c535d" d="M84 4C-5 8 30-112 23-190h32v120c0 31 7 50 39 49 72-2 45-101 50-169h31l1 190h-30c-1-10 1-25-2-33-11 22-28 36-60 37" id="bb"/><g id="n"><use transform="matrix(0.049382716049382706,0,0,0.049382716049382706,0,0)" xlink:href="#ah"/><use transform="matrix(0.049382716049382706,0,0,0.049382716049382706,5.876543209876542,0)" xlink:href="#aq"/><use transform="matrix(0.049382716049382706,0,0,0.049382716049382706,14.765432098765428,0)" xlink:href="#ao"/><use transform="matrix(0.049382716049382706,0,0,0.049382716049382706,24.64197530864197,0)" xlink:href="#ba"/><use transform="matrix(0.049382716049382706,0,0,0.049382716049382706,34.51851851851851,0)" xlink:href="#as"/><use transform="matrix(0.049382716049382706,0,0,0.049382716049382706,39.456790123456784,0)" xlink:href="#aj"/><use transform="matrix(0.049382716049382706,0,0,0.049382716049382706,43.35802469135802,0)" xlink:href="#ai"/><use transform="matrix(0.049382716049382706,0,0,0.049382716049382706,53.234567901234556,0)" xlink:href="#bb"/><use transform="matrix(0.049382716049382706,0,0,0.049382716049382706,63.1111111111111,0)" xlink:href="#al"/><use transform="matrix(0.049382716049382706,0,0,0.049382716049382706,68.98765432098764,0)" xlink:href="#ar"/><use transform="matrix(0.049382716049382706,0,0,0.049382716049382706,78.86419753086419,0)" xlink:href="#ak"/><use transform="matrix(0.049382716049382706,0,0,0.049382716049382706,83.80246913580245,0)" xlink:href="#aj"/><use transform="matrix(0.049382716049382706,0,0,0.049382716049382706,87.70370370370368,0)" xlink:href="#ao"/><use transform="matrix(0.049382716049382706,0,0,0.049382716049382706,97.58024691358023,0)" xlink:href="#ba"/></g><g id="o"><use transform="matrix(0.049382716049382706,0,0,0.049382716049382706,0,0)" xlink:href="#as"/><use transform="matrix(0.049382716049382706,0,0,0.049382716049382706,4.93827160493827,0)" xlink:href="#aj"/><use transform="matrix(0.049382716049382706,0,0,0.049382716049382706,8.839506172839505,0)" xlink:href="#ap"/><use transform="matrix(0.049382716049382706,0,0,0.049382716049382706,12.740740740740739,0)" xlink:href="#am"/><use transform="matrix(0.049382716049382706,0,0,0.049382716049382706,22.617283950617278,0)" xlink:href="#au"/></g><filter id="l" filterUnits="objectBoundingBox" x="-.04" y="-.05" width="1.08" height="1.24"><feOffset result="offOut" in="SourceAlpha" dy="6"/><feGaussianBlur result="blurOut" in="offOut" stdDeviation="5"/><feColorMatrix result="colorOut" in="blurOut" values="0 0 0 0 0 0 0 0 0 0 0 0 0 0 0 0 0 0 0.5019607843137255 0"/><feBlend in="SourceGraphic" in2="colorOut"/></filter><path fill="#4c535d" d="M176-78C186 10 51 31 16-35c-5-9-9-19-11-32l52-8c4 21 12 37 35 38 23 0 32-16 32-40v-130H75v-41h101v170" id="bc"/><path fill="#4c535d" d="M25-224v-37h50v37H25zM75 22c2 45-34 59-81 51V38c22 5 31-5 31-27v-201h50V22" id="bd"/><path fill="#4c535d" d="M182-182c0 78-84 86-111 141h115V0H12c-6-101 99-100 120-180 1-22-12-31-33-32-23 0-32 14-35 34l-49-3c5-45 32-70 84-70 51 0 83 22 83 69" id="be"/><g id="q"><use transform="matrix(0.06172839506172839,0,0,0.06172839506172839,0,0)" xlink:href="#bc"/><use transform="matrix(0.06172839506172839,0,0,0.06172839506172839,12.345679012345679,0)" xlink:href="#ac"/><use transform="matrix(0.06172839506172839,0,0,0.06172839506172839,18.51851851851852,0)" xlink:href="#Y"/><use transform="matrix(0.06172839506172839,0,0,0.06172839506172839,32.03703703703704,0)" xlink:href="#bd"/><use transform="matrix(0.06172839506172839,0,0,0.06172839506172839,38.20987654320988,0)" xlink:href="#aX"/><use transform="matrix(0.06172839506172839,0,0,0.06172839506172839,50.55555555555556,0)" xlink:href="#be"/></g><path fill="#4c535d" d="M136-208V0H84v-208H4v-40h212v40h-80" id="bf"/><path fill="#4c535d" d="M135-194c53 0 70 44 70 98 0 56-19 98-73 100-31 1-45-17-59-34 3 33 2 69 2 105H25l-1-265h48c2 10 0 23 3 31 11-24 29-35 60-35zM114-30c33 0 39-31 40-66 0-38-9-64-40-64-56 0-55 130 0 130" id="bg"/><g id="r"><use transform="matrix(0.06172839506172839,0,0,0.06172839506172839,0,0)" xlink:href="#bf"/><use transform="matrix(0.06172839506172839,0,0,0.06172839506172839,11.851851851851851,0)" xlink:href="#U"/><use transform="matrix(0.06172839506172839,0,0,0.06172839506172839,24.19753086419753,0)" xlink:href="#V"/><use transform="matrix(0.06172839506172839,0,0,0.06172839506172839,43.95061728395062,0)" xlink:href="#bg"/><use transform="matrix(0.06172839506172839,0,0,0.06172839506172839,57.46913580246914,0)" xlink:href="#aZ"/><use transform="matrix(0.06172839506172839,0,0,0.06172839506172839,63.64197530864199,0)" xlink:href="#aX"/><use transform="matrix(0.06172839506172839,0,0,0.06172839506172839,75.98765432098766,0)" xlink:href="#ae"/><use transform="matrix(0.06172839506172839,0,0,0.06172839506172839,83.33333333333334,0)" xlink:href="#U"/><use transform="matrix(0.06172839506172839,0,0,0.06172839506172839,95.67901234567903,0)" xlink:href="#ad"/></g><filter id="p" filterUnits="objectBoundingBox" x="-.04" y="-.05" width="1.08" height="1.24"><feOffset result="offOut" in="SourceAlpha" dy="6"/><feGaussianBlur result="blurOut" in="offOut" stdDeviation="5"/><feColorMatrix result="colorOut" in="blurOut" values="0 0 0 0 0 0 0 0 0 0 0 0 0 0 0 0 0 0 0.5019607843137255 0"/><feBlend in="SourceGraphic" in2="colorOut"/></filter><path fill="#4c535d" d="M67-125c0 54 23 88 75 88 28 0 53-7 68-21v-34h-60v-39h108v91C232-14 192 4 140 4 58 4 20-42 15-125 8-236 126-280 215-234c19 10 29 26 37 47l-47 15c-11-23-29-39-63-39-53 1-75 33-75 86" id="bh"/><path fill="#4c535d" d="M88-194c31-1 46 15 58 34l-1-101h50l1 261h-48c-2-10 0-23-3-31C134-8 116 4 84 4 32 4 16-41 15-95c0-56 19-97 73-99zm17 164c33 0 40-30 41-66 1-37-9-64-41-64s-38 30-39 65c0 43 13 65 39 65" id="bi"/><g id="t"><use transform="matrix(0.06172839506172839,0,0,0.06172839506172839,0,0)" xlink:href="#bh"/><use transform="matrix(0.06172839506172839,0,0,0.06172839506172839,17.28395061728395,0)" xlink:href="#U"/><use transform="matrix(0.06172839506172839,0,0,0.06172839506172839,29.629629629629626,0)" xlink:href="#Y"/><use transform="matrix(0.06172839506172839,0,0,0.06172839506172839,43.148148148148145,0)" xlink:href="#U"/><use transform="matrix(0.06172839506172839,0,0,0.06172839506172839,55.49382716049382,0)" xlink:href="#af"/><use transform="matrix(0.06172839506172839,0,0,0.06172839506172839,64.1358024691358,0)" xlink:href="#aX"/><use transform="matrix(0.06172839506172839,0,0,0.06172839506172839,76.48148148148148,0)" xlink:href="#ae"/><use transform="matrix(0.06172839506172839,0,0,0.06172839506172839,83.82716049382717,0)" xlink:href="#U"/><use transform="matrix(0.06172839506172839,0,0,0.06172839506172839,96.17283950617285,0)" xlink:href="#bi"/></g><path fill="#4c535d" d="M76-208v77h127v40H76V0H24v-248h183v40H76" id="bj"/><g id="u"><use transform="matrix(0.06172839506172839,0,0,0.06172839506172839,0,0)" xlink:href="#bj"/><use transform="matrix(0.06172839506172839,0,0,0.06172839506172839,13.518518518518517,0)" xlink:href="#ac"/><use transform="matrix(0.06172839506172839,0,0,0.06172839506172839,19.691358024691358,0)" xlink:href="#aZ"/><use transform="matrix(0.06172839506172839,0,0,0.06172839506172839,25.864197530864196,0)" xlink:href="#U"/><use transform="matrix(0.06172839506172839,0,0,0.06172839506172839,38.20987654320987,0)" xlink:href="#ad"/></g><g id="v"><use transform="matrix(0.049382716049382706,0,0,0.049382716049382706,0,0)" xlink:href="#ah"/><use transform="matrix(0.049382716049382706,0,0,0.049382716049382706,5.876543209876542,0)" xlink:href="#at"/><use transform="matrix(0.049382716049382706,0,0,0.049382716049382706,15.75308641975308,0)" xlink:href="#ao"/><use transform="matrix(0.049382716049382706,0,0,0.049382716049382706,25.629629629629626,0)" xlink:href="#aq"/></g><g id="w"><use transform="matrix(0.049382716049382706,0,0,0.049382716049382706,0,0)" xlink:href="#aq"/><use transform="matrix(0.049382716049382706,0,0,0.049382716049382706,8.888888888888888,0)" xlink:href="#ao"/><use transform="matrix(0.049382716049382706,0,0,0.049382716049382706,18.76543209876543,0)" xlink:href="#at"/><use transform="matrix(0.049382716049382706,0,0,0.049382716049382706,28.64197530864197,0)" xlink:href="#am"/><use transform="matrix(0.049382716049382706,0,0,0.049382716049382706,38.51851851851851,0)" xlink:href="#au"/></g><filter id="s" filterUnits="objectBoundingBox" x="-.04" y="-.05" width="1.09" height="1.24"><feOffset result="offOut" in="SourceAlpha" dy="6"/><feGaussianBlur result="blurOut" in="offOut" stdDeviation="5"/><feColorMatrix result="colorOut" in="blurOut" values="0 0 0 0 0 0 0 0 0 0 0 0 0 0 0 0 0 0 0.5019607843137255 0"/><feBlend in="SourceGraphic" in2="colorOut"/></filter><path fill="#fff" d="M240-174c0 40-23 61-54 70L253 0h-59l-57-94H76V0H24v-248c93 4 217-23 216 74zM76-134c48-2 112 12 112-38 0-48-66-32-112-35v73" id="bk"/><path fill="#fff" d="M137-138c1-29-70-34-71-4 15 46 118 7 119 86 1 83-164 76-172 9l43-7c4 19 20 25 44 25 33 8 57-30 24-41C81-84 22-81 20-136c-2-80 154-74 161-7" id="bl"/><path fill="#fff" d="M110-194c64 0 96 36 96 99 0 64-35 99-97 99-61 0-95-36-95-99 0-62 34-99 96-99zm-1 164c35 0 45-28 45-65 0-40-10-65-43-65-34 0-45 26-45 65 0 36 10 65 43 65" id="bm"/><path fill="#fff" d="M85 4C-2 5 27-109 22-190h50c7 57-23 150 33 157 60-5 35-97 40-157h50l1 190h-47c-2-12 1-28-3-38-12 25-28 42-61 42" id="bn"/><g id="x"><use transform="matrix(0.06172839506172839,0,0,0.06172839506172839,0,0)" xlink:href="#bk"/><use transform="matrix(0.06172839506172839,0,0,0.06172839506172839,15.987654320987653,0)" xlink:href="#aw"/><use transform="matrix(0.06172839506172839,0,0,0.06172839506172839,28.333333333333332,0)" xlink:href="#bl"/><use transform="matrix(0.06172839506172839,0,0,0.06172839506172839,40.67901234567901,0)" xlink:href="#bm"/><use transform="matrix(0.06172839506172839,0,0,0.06172839506172839,54.19753086419753,0)" xlink:href="#az"/><use transform="matrix(0.06172839506172839,0,0,0.06172839506172839,60.370370370370374,0)" xlink:href="#bn"/><use transform="matrix(0.06172839506172839,0,0,0.06172839506172839,73.88888888888889,0)" xlink:href="#aB"/><use transform="matrix(0.06172839506172839,0,0,0.06172839506172839,81.23456790123457,0)" xlink:href="#aF"/><use transform="matrix(0.06172839506172839,0,0,0.06172839506172839,87.4074074074074,0)" xlink:href="#bm"/><use transform="matrix(0.06172839506172839,0,0,0.06172839506172839,100.92592592592592,0)" xlink:href="#aD"/></g><path fill="#fff" d="M24-248c93 1 206-16 204 79-1 75-69 88-152 82V0H24v-248zm52 121c47 0 100 7 100-41 0-47-54-39-100-39v80" id="bo"/><path fill="#fff" d="M135-150c-39-12-60 13-60 57V0H25l-1-190h47c2 13-1 29 3 40 6-28 27-53 61-41v41" id="bp"/><path fill="#fff" d="M190-63c-7 42-38 67-86 67-59 0-84-38-90-98-12-110 154-137 174-36l-49 2c-2-19-15-32-35-32-30 0-35 28-38 64-6 74 65 87 74 30" id="bq"/><g id="y"><use transform="matrix(0.06172839506172839,0,0,0.06172839506172839,0,0)" xlink:href="#bo"/><use transform="matrix(0.06172839506172839,0,0,0.06172839506172839,14.814814814814813,0)" xlink:href="#bp"/><use transform="matrix(0.06172839506172839,0,0,0.06172839506172839,23.456790123456788,0)" xlink:href="#bm"/><use transform="matrix(0.06172839506172839,0,0,0.06172839506172839,36.9753086419753,0)" xlink:href="#bq"/><use transform="matrix(0.06172839506172839,0,0,0.06172839506172839,49.32098765432098,0)" xlink:href="#aw"/><use transform="matrix(0.06172839506172839,0,0,0.06172839506172839,61.66666666666666,0)" xlink:href="#bl"/><use transform="matrix(0.06172839506172839,0,0,0.06172839506172839,74.01234567901234,0)" xlink:href="#bl"/></g><g id="z"><use transform="matrix(0.06172839506172839,0,0,0.06172839506172839,0,0)" xlink:href="#aa"/><use transform="matrix(0.06172839506172839,0,0,0.06172839506172839,15.987654320987653,0)" xlink:href="#U"/><use transform="matrix(0.06172839506172839,0,0,0.06172839506172839,28.333333333333332,0)" xlink:href="#ad"/><use transform="matrix(0.06172839506172839,0,0,0.06172839506172839,40.67901234567901,0)" xlink:href="#X"/><use transform="matrix(0.06172839506172839,0,0,0.06172839506172839,54.19753086419753,0)" xlink:href="#aZ"/><use transform="matrix(0.06172839506172839,0,0,0.06172839506172839,60.370370370370374,0)" xlink:href="#Z"/><use transform="matrix(0.06172839506172839,0,0,0.06172839506172839,72.71604938271605,0)" xlink:href="#U"/><use transform="matrix(0.06172839506172839,0,0,0.06172839506172839,85.06172839506173,0)" xlink:href="#bi"/></g><g id="A"><use transform="matrix(0.06172839506172839,0,0,0.06172839506172839,0,0)" xlink:href="#bf"/><use transform="matrix(0.06172839506172839,0,0,0.06172839506172839,11.851851851851851,0)" xlink:href="#U"/><use transform="matrix(0.06172839506172839,0,0,0.06172839506172839,24.19753086419753,0)" xlink:href="#aZ"/><use transform="matrix(0.06172839506172839,0,0,0.06172839506172839,30.37037037037037,0)" xlink:href="#U"/><use transform="matrix(0.06172839506172839,0,0,0.06172839506172839,42.71604938271605,0)" xlink:href="#V"/><use transform="matrix(0.06172839506172839,0,0,0.06172839506172839,62.46913580246914,0)" xlink:href="#U"/><use transform="matrix(0.06172839506172839,0,0,0.06172839506172839,74.81481481481482,0)" xlink:href="#ae"/><use transform="matrix(0.06172839506172839,0,0,0.06172839506172839,82.16049382716051,0)" xlink:href="#af"/><use transform="matrix(0.06172839506172839,0,0,0.06172839506172839,90.80246913580248,0)" xlink:href="#ag"/></g><path fill="#4c535d" d="M190-63c-7 42-38 67-86 67-59 0-84-38-90-98-12-110 154-137 174-36l-49 2c-2-19-15-32-35-32-30 0-35 28-38 64-6 74 65 87 74 30" id="br"/><path fill="#4c535d" d="M114-157C55-157 80-60 75 0H25v-261h50l-1 109c12-26 28-41 61-42 86-1 58 113 63 194h-50c-7-57 23-157-34-157" id="bs"/><g id="B"><use transform="matrix(0.06172839506172839,0,0,0.06172839506172839,0,0)" xlink:href="#T"/><use transform="matrix(0.06172839506172839,0,0,0.06172839506172839,14.814814814814813,0)" xlink:href="#br"/><use transform="matrix(0.06172839506172839,0,0,0.06172839506172839,27.160493827160494,0)" xlink:href="#bs"/><use transform="matrix(0.06172839506172839,0,0,0.06172839506172839,40.67901234567901,0)" xlink:href="#U"/><use transform="matrix(0.06172839506172839,0,0,0.06172839506172839,53.02469135802469,0)" xlink:href="#V"/><use transform="matrix(0.06172839506172839,0,0,0.06172839506172839,72.77777777777777,0)" xlink:href="#aX"/></g><path fill="#fff" d="M121-226c-27-7-43 5-38 36h38v33H83V0H34v-157H6v-33h28c-9-59 32-81 87-68v32" id="bt"/><g id="C"><use transform="matrix(0.06172839506172839,0,0,0.06172839506172839,0,0)" xlink:href="#av"/><use transform="matrix(0.06172839506172839,0,0,0.06172839506172839,12.28395061728395,0)" xlink:href="#bp"/><use transform="matrix(0.06172839506172839,0,0,0.06172839506172839,20.925925925925924,0)" xlink:href="#aA"/><use transform="matrix(0.06172839506172839,0,0,0.06172839506172839,33.2716049382716,0)" xlink:href="#aD"/><use transform="matrix(0.06172839506172839,0,0,0.06172839506172839,46.79012345679012,0)" xlink:href="#bl"/><use transform="matrix(0.06172839506172839,0,0,0.06172839506172839,59.1358024691358,0)" xlink:href="#bt"/><use transform="matrix(0.06172839506172839,0,0,0.06172839506172839,66.48148148148148,0)" xlink:href="#bm"/><use transform="matrix(0.06172839506172839,0,0,0.06172839506172839,80,0)" xlink:href="#bp"/><use transform="matrix(0.06172839506172839,0,0,0.06172839506172839,88.64197530864197,0)" xlink:href="#ax"/></g><g id="D"><use transform="matrix(0.06172839506172839,0,0,0.06172839506172839,0,0)" xlink:href="#bo"/><use transform="matrix(0.06172839506172839,0,0,0.06172839506172839,14.814814814814813,0)" xlink:href="#bp"/><use transform="matrix(0.06172839506172839,0,0,0.06172839506172839,23.456790123456788,0)" xlink:href="#bm"/><use transform="matrix(0.06172839506172839,0,0,0.06172839506172839,36.9753086419753,0)" xlink:href="#bq"/><use transform="matrix(0.06172839506172839,0,0,0.06172839506172839,49.32098765432098,0)" xlink:href="#aw"/><use transform="matrix(0.06172839506172839,0,0,0.06172839506172839,61.66666666666666,0)" xlink:href="#bl"/><use transform="matrix(0.06172839506172839,0,0,0.06172839506172839,74.01234567901234,0)" xlink:href="#bl"/></g><path fill="#fff" d="M68-38c1 34 0 65-14 84H32c9-13 17-26 17-46H33v-38h35" id="bu"/><g id="E"><use transform="matrix(0.049382716049382706,0,0,0.049382716049382706,0,0)" xlink:href="#aG"/><use transform="matrix(0.049382716049382706,0,0,0.049382716049382706,5.876543209876542,0)" xlink:href="#aO"/><use transform="matrix(0.049382716049382706,0,0,0.049382716049382706,15.75308641975308,0)" xlink:href="#aQ"/><use transform="matrix(0.049382716049382706,0,0,0.049382716049382706,25.629629629629626,0)" xlink:href="#aR"/><use transform="matrix(0.049382716049382706,0,0,0.049382716049382706,30.56790123456789,0)" xlink:href="#aI"/><use transform="matrix(0.049382716049382706,0,0,0.049382716049382706,34.469135802469125,0)" xlink:href="#aO"/><use transform="matrix(0.049382716049382706,0,0,0.049382716049382706,44.34567901234567,0)" xlink:href="#aJ"/><use transform="matrix(0.049382716049382706,0,0,0.049382716049382706,54.222222222222214,0)" xlink:href="#aK"/><use transform="matrix(0.049382716049382706,0,0,0.049382716049382706,64.09876543209876,0)" xlink:href="#aT"/><use transform="matrix(0.049382716049382706,0,0,0.049382716049382706,67.99999999999999,0)" xlink:href="#bu"/></g><path fill="#fff" d="M135-143c-3-34-86-38-87 0 15 53 115 12 119 90S17 21 10-45l28-5c4 36 97 45 98 0-10-56-113-15-118-90-4-57 82-63 122-42 12 7 21 19 24 35" id="bv"/><path fill="#fff" d="M85-194c31 0 48 13 60 33l-1-100h32l1 261h-30c-2-10 0-23-3-31C134-8 116 4 85 4 32 4 16-35 15-94c0-66 23-100 70-100zm9 24c-40 0-46 34-46 75 0 40 6 74 45 74 42 0 51-32 51-76 0-42-9-74-50-73" id="bw"/><g id="F"><use transform="matrix(0.049382716049382706,0,0,0.049382716049382706,0,0)" xlink:href="#aS"/><use transform="matrix(0.049382716049382706,0,0,0.049382716049382706,9.87654320987654,0)" xlink:href="#aK"/><use transform="matrix(0.049382716049382706,0,0,0.049382716049382706,19.75308641975308,0)" xlink:href="#bv"/><use transform="matrix(0.049382716049382706,0,0,0.049382716049382706,28.64197530864197,0)" xlink:href="#aU"/><use transform="matrix(0.049382716049382706,0,0,0.049382716049382706,38.518518518518505,0)" xlink:href="#bw"/></g><path fill="#fff" d="M145-31C134-9 116 4 85 4 32 4 16-35 15-94c0-59 17-99 70-100 32-1 48 14 60 33 0-11-1-24 2-32h30l-1 268h-32zM93-21c41 0 51-33 51-76s-8-73-50-73c-40 0-46 35-46 75s5 74 45 74" id="bx"/><path fill="#fff" d="M141 0L90-78 38 0H4l68-98-65-92h35l48 74 47-74h35l-64 92 68 98h-35" id="by"/><path fill="#fff" d="M114-163C36-179 61-72 57 0H25l-1-190h30c1 12-1 29 2 39 6-27 23-49 58-41v29" id="bz"/><g id="G"><use transform="matrix(0.049382716049382706,0,0,0.049382716049382706,0,0)" xlink:href="#aH"/><use transform="matrix(0.049382716049382706,0,0,0.049382716049382706,3.9012345679012337,0)" xlink:href="#bx"/><use transform="matrix(0.049382716049382706,0,0,0.049382716049382706,13.777777777777775,0)" xlink:href="#aM"/><use transform="matrix(0.049382716049382706,0,0,0.049382716049382706,19.654320987654316,0)" xlink:href="#aU"/><use transform="matrix(0.049382716049382706,0,0,0.049382716049382706,29.530864197530857,0)" xlink:href="#by"/><use transform="matrix(0.049382716049382706,0,0,0.049382716049382706,38.419753086419746,0)" xlink:href="#aQ"/><use transform="matrix(0.049382716049382706,0,0,0.049382716049382706,48.29629629629629,0)" xlink:href="#bz"/><use transform="matrix(0.049382716049382706,0,0,0.049382716049382706,54.17283950617284,0)" xlink:href="#aV"/></g><path fill="#4c535d" d="M121-226c-27-7-43 5-38 36h38v33H83V0H34v-157H6v-33h28c-9-59 32-81 87-68v32" id="bA"/><g id="H"><use transform="matrix(0.06172839506172839,0,0,0.06172839506172839,0,0)" xlink:href="#bf"/><use transform="matrix(0.06172839506172839,0,0,0.06172839506172839,12.28395061728395,0)" xlink:href="#af"/><use transform="matrix(0.06172839506172839,0,0,0.06172839506172839,20.925925925925924,0)" xlink:href="#aX"/><use transform="matrix(0.06172839506172839,0,0,0.06172839506172839,33.2716049382716,0)" xlink:href="#Y"/><use transform="matrix(0.06172839506172839,0,0,0.06172839506172839,46.79012345679012,0)" xlink:href="#ad"/><use transform="matrix(0.06172839506172839,0,0,0.06172839506172839,59.1358024691358,0)" xlink:href="#bA"/><use transform="matrix(0.06172839506172839,0,0,0.06172839506172839,66.48148148148148,0)" xlink:href="#X"/><use transform="matrix(0.06172839506172839,0,0,0.06172839506172839,80,0)" xlink:href="#af"/><use transform="matrix(0.06172839506172839,0,0,0.06172839506172839,88.64197530864197,0)" xlink:href="#V"/><use transform="matrix(0.06172839506172839,0,0,0.06172839506172839,108.39506172839506,0)" xlink:href="#U"/><use transform="matrix(0.06172839506172839,0,0,0.06172839506172839,120.74074074074075,0)" xlink:href="#bi"/></g><g id="I"><use transform="matrix(0.06172839506172839,0,0,0.06172839506172839,0,0)" xlink:href="#aa"/><use transform="matrix(0.06172839506172839,0,0,0.06172839506172839,15.987654320987653,0)" xlink:href="#U"/><use transform="matrix(0.06172839506172839,0,0,0.06172839506172839,28.333333333333332,0)" xlink:href="#ad"/><use transform="matrix(0.06172839506172839,0,0,0.06172839506172839,40.67901234567901,0)" xlink:href="#X"/><use transform="matrix(0.06172839506172839,0,0,0.06172839506172839,54.19753086419753,0)" xlink:href="#aZ"/><use transform="matrix(0.06172839506172839,0,0,0.06172839506172839,60.370370370370374,0)" xlink:href="#Z"/><use transform="matrix(0.06172839506172839,0,0,0.06172839506172839,72.71604938271605,0)" xlink:href="#U"/><use transform="matrix(0.06172839506172839,0,0,0.06172839506172839,85.06172839506173,0)" xlink:href="#bi"/></g><g id="J"><use transform="matrix(0.06172839506172839,0,0,0.06172839506172839,0,0)" xlink:href="#bf"/><use transform="matrix(0.06172839506172839,0,0,0.06172839506172839,11.851851851851851,0)" xlink:href="#U"/><use transform="matrix(0.06172839506172839,0,0,0.06172839506172839,24.19753086419753,0)" xlink:href="#aZ"/><use transform="matrix(0.06172839506172839,0,0,0.06172839506172839,30.37037037037037,0)" xlink:href="#U"/><use transform="matrix(0.06172839506172839,0,0,0.06172839506172839,42.71604938271605,0)" xlink:href="#V"/><use transform="matrix(0.06172839506172839,0,0,0.06172839506172839,62.46913580246914,0)" xlink:href="#U"/><use transform="matrix(0.06172839506172839,0,0,0.06172839506172839,74.81481481481482,0)" xlink:href="#ae"/><use transform="matrix(0.06172839506172839,0,0,0.06172839506172839,82.16049382716051,0)" xlink:href="#af"/><use transform="matrix(0.06172839506172839,0,0,0.06172839506172839,90.80246913580248,0)" xlink:href="#ag"/></g><path fill="#1071e5" d="M25-224v-37h50v37H25zM25 0v-190h50V0H25" id="bB"/><path fill="#1071e5" d="M121-226c-27-7-43 5-38 36h38v33H83V0H34v-157H6v-33h28c-9-59 32-81 87-68v32" id="bC"/><g id="K"><use transform="matrix(0.04938271604938272,0,0,0.04938271604938272,0,0)" xlink:href="#bB"/><use transform="matrix(0.04938271604938272,0,0,0.04938271604938272,4.938271604938272,0)" xlink:href="#bC"/></g><path fill="#1071e5" d="M135-194c87-1 58 113 63 194h-50c-7-57 23-157-34-157-59 0-34 97-39 157H25l-1-190h47c2 12-1 28 3 38 12-26 28-41 61-42" id="bD"/><path fill="#1071e5" d="M110-194c64 0 96 36 96 99 0 64-35 99-97 99-61 0-95-36-95-99 0-62 34-99 96-99zm-1 164c35 0 45-28 45-65 0-40-10-65-43-65-34 0-45 26-45 65 0 36 10 65 43 65" id="bE"/><g id="L"><use transform="matrix(0.04938271604938272,0,0,0.04938271604938272,0,0)" xlink:href="#bD"/><use transform="matrix(0.04938271604938272,0,0,0.04938271604938272,10.814814814814815,0)" xlink:href="#bE"/></g><path fill="#1071e5" d="M115-3C79 11 28 4 28-45v-112H4v-33h27l15-45h31v45h36v33H77v99c-1 23 16 31 38 25v30" id="bF"/><path fill="#1071e5" d="M135-150c-39-12-60 13-60 57V0H25l-1-190h47c2 13-1 29 3 40 6-28 27-53 61-41v41" id="bG"/><path fill="#1071e5" d="M133-34C117-15 103 5 69 4 32 3 11-16 11-54c-1-60 55-63 116-61 1-26-3-47-28-47-18 1-26 9-28 27l-52-2c7-38 36-58 82-57s74 22 75 68l1 82c-1 14 12 18 25 15v27c-30 8-71 5-69-32zm-48 3c29 0 43-24 42-57-32 0-66-3-65 30 0 17 8 27 23 27" id="bH"/><path fill="#1071e5" d="M137-138c1-29-70-34-71-4 15 46 118 7 119 86 1 83-164 76-172 9l43-7c4 19 20 25 44 25 33 8 57-30 24-41C81-84 22-81 20-136c-2-80 154-74 161-7" id="bI"/><path fill="#1071e5" d="M220-157c-53 9-28 100-34 157h-49v-107c1-27-5-49-29-50C55-147 81-57 75 0H25l-1-190h47c2 12-1 28 3 38 10-53 101-56 108 0 13-22 24-43 59-42 82 1 51 116 57 194h-49v-107c-1-25-5-48-29-50" id="bJ"/><g id="M"><use transform="matrix(0.04938271604938272,0,0,0.04938271604938272,0,0)" xlink:href="#bF"/><use transform="matrix(0.04938271604938272,0,0,0.04938271604938272,5.8765432098765435,0)" xlink:href="#bG"/><use transform="matrix(0.04938271604938272,0,0,0.04938271604938272,12.790123456790125,0)" xlink:href="#bH"/><use transform="matrix(0.04938271604938272,0,0,0.04938271604938272,22.666666666666668,0)" xlink:href="#bD"/><use transform="matrix(0.04938271604938272,0,0,0.04938271604938272,33.48148148148148,0)" xlink:href="#bI"/><use transform="matrix(0.04938271604938272,0,0,0.04938271604938272,43.358024691358025,0)" xlink:href="#bC"/><use transform="matrix(0.04938271604938272,0,0,0.04938271604938272,49.23456790123457,0)" xlink:href="#bE"/><use transform="matrix(0.04938271604938272,0,0,0.04938271604938272,60.04938271604939,0)" xlink:href="#bG"/><use transform="matrix(0.04938271604938272,0,0,0.04938271604938272,66.96296296296296,0)" xlink:href="#bJ"/><use transform="matrix(0.04938271604938272,0,0,0.04938271604938272,82.76543209876543,0)" xlink:href="#bH"/><use transform="matrix(0.04938271604938272,0,0,0.04938271604938272,92.64197530864197,0)" xlink:href="#bF"/><use transform="matrix(0.04938271604938272,0,0,0.04938271604938272,98.51851851851852,0)" xlink:href="#bB"/><use transform="matrix(0.04938271604938272,0,0,0.04938271604938272,103.45679012345677,0)" xlink:href="#bE"/><use transform="matrix(0.04938271604938272,0,0,0.04938271604938272,114.2716049382716,0)" xlink:href="#bD"/></g><path fill="#1071e5" d="M185-48c-13 30-37 53-82 52C43 2 14-33 14-96s30-98 90-98c62 0 83 45 84 108H66c0 31 8 55 39 56 18 0 30-7 34-22zm-45-69c5-46-57-63-70-21-2 6-4 13-4 21h74" id="bK"/><path fill="#1071e5" d="M84 4C32 4 15-41 15-95c0-55 18-99 73-99 29 0 47 12 58 34l2-30h48l-1 265h-49V-32C136-9 114 4 84 4zm21-34c32 0 41-29 41-66 0-36-9-64-40-64-33 0-39 30-40 65 0 43 13 65 39 65" id="bL"/><path fill="#1071e5" d="M85 4C-2 5 27-109 22-190h50c7 57-23 150 33 157 60-5 35-97 40-157h50l1 190h-47c-2-12 1-28-3-38-12 25-28 42-61 42" id="bM"/><path fill="#1071e5" d="M88-194c31-1 46 15 58 34l-1-101h50l1 261h-48c-2-10 0-23-3-31C134-8 116 4 84 4 32 4 16-41 15-95c0-56 19-97 73-99zm17 164c33 0 40-30 41-66 1-37-9-64-41-64s-38 30-39 65c0 43 13 65 39 65" id="bN"/><g id="N"><use transform="matrix(0.04938271604938272,0,0,0.04938271604938272,0,0)" xlink:href="#bG"/><use transform="matrix(0.04938271604938272,0,0,0.04938271604938272,6.913580246913581,0)" xlink:href="#bK"/><use transform="matrix(0.04938271604938272,0,0,0.04938271604938272,16.790123456790127,0)" xlink:href="#bL"/><use transform="matrix(0.04938271604938272,0,0,0.04938271604938272,27.604938271604947,0)" xlink:href="#bM"/><use transform="matrix(0.04938271604938272,0,0,0.04938271604938272,38.41975308641976,0)" xlink:href="#bB"/><use transform="matrix(0.04938271604938272,0,0,0.04938271604938272,43.35802469135803,0)" xlink:href="#bG"/><use transform="matrix(0.04938271604938272,0,0,0.04938271604938272,50.271604938271615,0)" xlink:href="#bK"/><use transform="matrix(0.04938271604938272,0,0,0.04938271604938272,60.14814814814817,0)" xlink:href="#bN"/></g><path fill="#4c535d" d="M199 0l-22-63H83L61 0H9l90-248h61L250 0h-51zm-33-102l-36-108c-10 38-24 72-36 108h72" id="bO"/><g id="P"><use transform="matrix(0.06172839506172839,0,0,0.06172839506172839,0,0)" xlink:href="#bO"/><use transform="matrix(0.06172839506172839,0,0,0.06172839506172839,15.987654320987653,0)" xlink:href="#bg"/><use transform="matrix(0.06172839506172839,0,0,0.06172839506172839,29.50617283950617,0)" xlink:href="#bg"/></g><g id="Q"><use transform="matrix(0.06172839506172839,0,0,0.06172839506172839,0,0)" xlink:href="#T"/><use transform="matrix(0.06172839506172839,0,0,0.06172839506172839,14.814814814814813,0)" xlink:href="#br"/><use transform="matrix(0.06172839506172839,0,0,0.06172839506172839,27.160493827160494,0)" xlink:href="#bs"/><use transform="matrix(0.06172839506172839,0,0,0.06172839506172839,40.67901234567901,0)" xlink:href="#U"/><use transform="matrix(0.06172839506172839,0,0,0.06172839506172839,53.02469135802469,0)" xlink:href="#V"/><use transform="matrix(0.06172839506172839,0,0,0.06172839506172839,72.77777777777777,0)" xlink:href="#aX"/></g><filter id="O" filterUnits="objectBoundingBox" x="-.04" y="-.05" width="1.07" height="1.24"><feOffset result="offOut" in="SourceAlpha" dy="6"/><feGaussianBlur result="blurOut" in="offOut" stdDeviation="5"/><feColorMatrix result="colorOut" in="blurOut" values="0 0 0 0 0 0 0 0 0 0 0 0 0 0 0 0 0 0 0.5019607843137255 0"/><feBlend in="SourceGraphic" in2="colorOut"/></filter><path fill="#979ea8" d="M121-226c-27-7-43 5-38 36h38v33H83V0H34v-157H6v-33h28c-9-59 32-81 87-68v32" id="bP"/><path fill="#979ea8" d="M85 4C-2 5 27-109 22-190h50c7 57-23 150 33 157 60-5 35-97 40-157h50l1 190h-47c-2-12 1-28-3-38-12 25-28 42-61 42" id="bQ"/><path fill="#979ea8" d="M115-3C79 11 28 4 28-45v-112H4v-33h27l15-45h31v45h36v33H77v99c-1 23 16 31 38 25v30" id="bR"/><path fill="#979ea8" d="M135-150c-39-12-60 13-60 57V0H25l-1-190h47c2 13-1 29 3 40 6-28 27-53 61-41v41" id="bS"/><g id="R"><use transform="matrix(0.04938271604938272,0,0,0.04938271604938272,0,0)" xlink:href="#bP"/><use transform="matrix(0.04938271604938272,0,0,0.04938271604938272,5.8765432098765435,0)" xlink:href="#bQ"/><use transform="matrix(0.04938271604938272,0,0,0.04938271604938272,16.691358024691358,0)" xlink:href="#bR"/><use transform="matrix(0.04938271604938272,0,0,0.04938271604938272,22.567901234567902,0)" xlink:href="#bQ"/><use transform="matrix(0.04938271604938272,0,0,0.04938271604938272,33.382716049382715,0)" xlink:href="#bS"/></g><path fill="#979ea8" d="M88-194c31-1 46 15 58 34l-1-101h50l1 261h-48c-2-10 0-23-3-31C134-8 116 4 84 4 32 4 16-41 15-95c0-56 19-97 73-99zm17 164c33 0 40-30 41-66 1-37-9-64-41-64s-38 30-39 65c0 43 13 65 39 65" id="bT"/><path fill="#979ea8" d="M185-48c-13 30-37 53-82 52C43 2 14-33 14-96s30-98 90-98c62 0 83 45 84 108H66c0 31 8 55 39 56 18 0 30-7 34-22zm-45-69c5-46-57-63-70-21-2 6-4 13-4 21h74" id="bU"/><path fill="#979ea8" d="M128 0H69L1-190h53L99-40l48-150h52" id="bV"/><g id="S"><use transform="matrix(0.04938271604938272,0,0,0.04938271604938272,0,0)" xlink:href="#bT"/><use transform="matrix(0.04938271604938272,0,0,0.04938271604938272,10.814814814814815,0)" xlink:href="#bU"/><use transform="matrix(0.04938271604938272,0,0,0.04938271604938272,20.69135802469136,0)" xlink:href="#bV"/></g></defs></g></svg>