<?xml version="1.0" encoding="UTF-8" standalone="no"?>
<!DOCTYPE svg PUBLIC "-//W3C//DTD SVG 1.1//EN"
 "http://www.w3.org/Graphics/SVG/1.1/DTD/svg11.dtd">
<!-- Generated by graphviz version 12.2.1 (20241206.2353)
 -->
<!-- Pages: 1 -->
<svg width="517pt" height="548pt"
 viewBox="0.00 0.00 517.12 548.00" xmlns="http://www.w3.org/2000/svg" xmlns:xlink="http://www.w3.org/1999/xlink">
<g id="graph0" class="graph" transform="scale(1 1) rotate(0) translate(4 544)">
<polygon fill="white" stroke="none" points="-4,4 -4,-544 513.12,-544 513.12,4 -4,4"/>
<!-- 0 -->
<g id="node1" class="node">
<title>0</title>
<polygon fill="none" stroke="black" points="482.88,-252 379.12,-252 379.12,-216 482.88,-216 482.88,-252"/>
<text text-anchor="middle" x="431" y="-228.95" font-family="Times,serif" font-size="14.00">weaver_checker</text>
</g>
<!-- 1 -->
<g id="node2" class="node">
<title>1</title>
<polygon fill="none" stroke="black" points="380.25,-36 269.75,-36 269.75,0 380.25,0 380.25,-36"/>
<text text-anchor="middle" x="325" y="-12.95" font-family="Times,serif" font-size="14.00">weaver_common</text>
</g>
<!-- 0&#45;&gt;1 -->
<g id="edge1" class="edge">
<title>0&#45;&gt;1</title>
<path fill="none" stroke="black" d="M430.23,-215.97C428.06,-184.84 419.89,-117.72 389,-72 381.7,-61.2 371.59,-51.42 361.55,-43.29"/>
<polygon fill="black" stroke="black" points="363.7,-40.53 353.64,-37.22 359.44,-46.09 363.7,-40.53"/>
</g>
<!-- 2 -->
<g id="node3" class="node">
<title>2</title>
<polygon fill="none" stroke="black" points="244.62,-468 169.38,-468 169.38,-432 244.62,-432 244.62,-468"/>
<text text-anchor="middle" x="207" y="-444.95" font-family="Times,serif" font-size="14.00">weaver_cli</text>
</g>
<!-- 3 -->
<g id="node4" class="node">
<title>3</title>
<polygon fill="none" stroke="black" points="275.25,-396 188.75,-396 188.75,-360 275.25,-360 275.25,-396"/>
<text text-anchor="middle" x="232" y="-372.95" font-family="Times,serif" font-size="14.00">weaver_emit</text>
</g>
<!-- 2&#45;&gt;3 -->
<g id="edge2" class="edge">
<title>2&#45;&gt;3</title>
<path fill="none" stroke="black" d="M213.18,-431.7C215.87,-424.15 219.1,-415.12 222.11,-406.68"/>
<polygon fill="black" stroke="black" points="225.31,-408.12 225.38,-397.53 218.72,-405.77 225.31,-408.12"/>
</g>
<!-- 4 -->
<g id="node5" class="node">
<title>4</title>
<polygon fill="none" stroke="black" points="366.12,-324 275.88,-324 275.88,-288 366.12,-288 366.12,-324"/>
<text text-anchor="middle" x="321" y="-300.95" font-family="Times,serif" font-size="14.00">weaver_forge</text>
</g>
<!-- 3&#45;&gt;4 -->
<g id="edge3" class="edge">
<title>3&#45;&gt;4</title>
<path fill="none" stroke="black" d="M254,-359.7C264.91,-351.11 278.27,-340.61 290.18,-331.24"/>
<polygon fill="black" stroke="black" points="292.06,-334.22 297.75,-325.28 287.73,-328.71 292.06,-334.22"/>
</g>
<!-- 9 -->
<g id="node10" class="node">
<title>9</title>
<polygon fill="none" stroke="black" points="360.62,-252 255.38,-252 255.38,-216 360.62,-216 360.62,-252"/>
<text text-anchor="middle" x="308" y="-228.95" font-family="Times,serif" font-size="14.00">weaver_resolver</text>
</g>
<!-- 4&#45;&gt;9 -->
<g id="edge4" class="edge">
<title>4&#45;&gt;9</title>
<path fill="none" stroke="black" d="M317.79,-287.7C316.42,-280.32 314.78,-271.52 313.25,-263.25"/>
<polygon fill="black" stroke="black" points="316.72,-262.79 311.45,-253.59 309.84,-264.06 316.72,-262.79"/>
</g>
<!-- 5 -->
<g id="node6" class="node">
<title>5</title>
<polygon fill="none" stroke="black" points="229.62,-180 148.38,-180 148.38,-144 229.62,-144 229.62,-180"/>
<text text-anchor="middle" x="189" y="-156.95" font-family="Times,serif" font-size="14.00">weaver_diff</text>
</g>
<!-- 6 -->
<g id="node7" class="node">
<title>6</title>
<polygon fill="none" stroke="black" points="402.75,-180 247.25,-180 247.25,-144 402.75,-144 402.75,-180"/>
<text text-anchor="middle" x="325" y="-156.95" font-family="Times,serif" font-size="14.00">weaver_resolved_schema</text>
</g>
<!-- 7 -->
<g id="node8" class="node">
<title>7</title>
<polygon fill="none" stroke="black" points="380.25,-108 269.75,-108 269.75,-72 380.25,-72 380.25,-108"/>
<text text-anchor="middle" x="325" y="-84.95" font-family="Times,serif" font-size="14.00">weaver_semconv</text>
</g>
<!-- 6&#45;&gt;7 -->
<g id="edge5" class="edge">
<title>6&#45;&gt;7</title>
<path fill="none" stroke="black" d="M325,-143.7C325,-136.41 325,-127.73 325,-119.54"/>
<polygon fill="black" stroke="black" points="328.5,-119.62 325,-109.62 321.5,-119.62 328.5,-119.62"/>
</g>
<!-- 8 -->
<g id="node9" class="node">
<title>8</title>
<polygon fill="none" stroke="black" points="237.75,-108 136.25,-108 136.25,-72 237.75,-72 237.75,-108"/>
<text text-anchor="middle" x="187" y="-84.95" font-family="Times,serif" font-size="14.00">weaver_version</text>
</g>
<!-- 6&#45;&gt;8 -->
<g id="edge6" class="edge">
<title>6&#45;&gt;8</title>
<path fill="none" stroke="black" d="M290.53,-143.52C272.53,-134.39 250.31,-123.11 231.07,-113.35"/>
<polygon fill="black" stroke="black" points="232.88,-110.35 222.38,-108.95 229.71,-116.59 232.88,-110.35"/>
</g>
<!-- 7&#45;&gt;1 -->
<g id="edge7" class="edge">
<title>7&#45;&gt;1</title>
<path fill="none" stroke="black" d="M325,-71.7C325,-64.41 325,-55.73 325,-47.54"/>
<polygon fill="black" stroke="black" points="328.5,-47.62 325,-37.62 321.5,-47.62 328.5,-47.62"/>
</g>
<!-- 9&#45;&gt;5 -->
<g id="edge8" class="edge">
<title>9&#45;&gt;5</title>
<path fill="none" stroke="black" d="M278.28,-215.52C263.11,-206.6 244.47,-195.63 228.15,-186.03"/>
<polygon fill="black" stroke="black" points="230.04,-183.08 219.65,-181.03 226.49,-189.11 230.04,-183.08"/>
</g>
<!-- 9&#45;&gt;6 -->
<g id="edge9" class="edge">
<title>9&#45;&gt;6</title>
<path fill="none" stroke="black" d="M312.2,-215.7C313.99,-208.32 316.13,-199.52 318.14,-191.25"/>
<polygon fill="black" stroke="black" points="321.53,-192.12 320.49,-181.58 314.73,-190.47 321.53,-192.12"/>
</g>
<!-- 10 -->
<g id="node11" class="node">
<title>10</title>
<polygon fill="none" stroke="black" points="509.12,-540 376.88,-540 376.88,-504 509.12,-504 509.12,-540"/>
<text text-anchor="middle" x="443" y="-516.95" font-family="Times,serif" font-size="14.00">weaver_codegen_test</text>
</g>
<!-- 11 -->
<g id="node12" class="node">
<title>11</title>
<polygon fill="none" stroke="black" points="487.12,-396 366.88,-396 366.88,-360 487.12,-360 487.12,-396"/>
<text text-anchor="middle" x="427" y="-372.95" font-family="Times,serif" font-size="14.00">weaver_live_check</text>
</g>
<!-- 11&#45;&gt;0 -->
<g id="edge10" class="edge">
<title>11&#45;&gt;0</title>
<path fill="none" stroke="black" d="M427.49,-359.59C428.17,-335.61 429.39,-292.14 430.2,-263.42"/>
<polygon fill="black" stroke="black" points="433.69,-263.72 430.48,-253.62 426.7,-263.52 433.69,-263.72"/>
</g>
<!-- 11&#45;&gt;4 -->
<g id="edge11" class="edge">
<title>11&#45;&gt;4</title>
<path fill="none" stroke="black" d="M400.53,-359.52C387.27,-350.76 371.04,-340.04 356.7,-330.58"/>
<polygon fill="black" stroke="black" points="358.67,-327.68 348.4,-325.09 354.82,-333.53 358.67,-327.68"/>
</g>
<!-- 12 -->
<g id="node13" class="node">
<title>12</title>
<polygon fill="none" stroke="black" points="130,-180 0,-180 0,-144 130,-144 130,-180"/>
<text text-anchor="middle" x="65" y="-156.95" font-family="Times,serif" font-size="14.00">weaver_otel_schema</text>
</g>
<!-- 12&#45;&gt;1 -->
<g id="edge12" class="edge">
<title>12&#45;&gt;1</title>
<path fill="none" stroke="black" d="M72.42,-143.84C82.05,-123.6 100.8,-90.39 127,-72 165.61,-44.91 217.31,-31.66 258.2,-25.19"/>
<polygon fill="black" stroke="black" points="258.55,-28.67 267.93,-23.75 257.53,-21.75 258.55,-28.67"/>
</g>
<!-- 12&#45;&gt;8 -->
<g id="edge13" class="edge">
<title>12&#45;&gt;8</title>
<path fill="none" stroke="black" d="M95.47,-143.52C111.16,-134.51 130.49,-123.42 147.33,-113.76"/>
<polygon fill="black" stroke="black" points="148.67,-117.03 155.6,-109.01 145.19,-110.95 148.67,-117.03"/>
</g>
<!-- 13 -->
<g id="node14" class="node">
<title>13</title>
<polygon fill="none" stroke="black" points="399.38,-468 262.62,-468 262.62,-432 399.38,-432 399.38,-468"/>
<text text-anchor="middle" x="331" y="-444.95" font-family="Times,serif" font-size="14.00">weaver_semconv_gen</text>
</g>
<!-- 13&#45;&gt;4 -->
<g id="edge14" class="edge">
<title>13&#45;&gt;4</title>
<path fill="none" stroke="black" d="M329.77,-431.59C328.09,-407.61 325.02,-364.14 323,-335.42"/>
<polygon fill="black" stroke="black" points="326.51,-335.35 322.31,-325.62 319.52,-335.84 326.51,-335.35"/>
</g>
<!-- 14 -->
<g id="node15" class="node">
<title>14</title>
<polygon fill="none" stroke="black" points="234,-540 180,-540 180,-504 234,-504 234,-540"/>
<text text-anchor="middle" x="207" y="-516.95" font-family="Times,serif" font-size="14.00">xtask</text>
</g>
<!-- 14&#45;&gt;2 -->
<g id="edge15" class="edge">
<title>14&#45;&gt;2</title>
<path fill="none" stroke="black" d="M207,-503.7C207,-496.41 207,-487.73 207,-479.54"/>
<polygon fill="black" stroke="black" points="210.5,-479.62 207,-469.62 203.5,-479.62 210.5,-479.62"/>
</g>
<!-- 15 -->
<g id="node16" class="node">
<title>15</title>
<polygon fill="none" stroke="black" points="358.5,-540 303.5,-540 303.5,-504 358.5,-504 358.5,-540"/>
<text text-anchor="middle" x="331" y="-516.95" font-family="Times,serif" font-size="14.00">weaver</text>
</g>
<!-- 15&#45;&gt;2 -->
<g id="edge16" class="edge">
<title>15&#45;&gt;2</title>
<path fill="none" stroke="black" d="M303.17,-505.29C286.78,-496.04 265.77,-484.17 247.56,-473.9"/>
<polygon fill="black" stroke="black" points="249.53,-470.99 239.1,-469.12 246.09,-477.08 249.53,-470.99"/>
</g>
<!-- 15&#45;&gt;11 -->
<g id="edge17" class="edge">
<title>15&#45;&gt;11</title>
<path fill="none" stroke="black" d="M358.94,-508.48C375.69,-499.55 396.01,-485.95 408,-468 419.95,-450.11 424.57,-426.07 426.27,-407.49"/>
<polygon fill="black" stroke="black" points="429.75,-407.9 426.91,-397.69 422.76,-407.44 429.75,-407.9"/>
</g>
<!-- 15&#45;&gt;13 -->
<g id="edge18" class="edge">
<title>15&#45;&gt;13</title>
<path fill="none" stroke="black" d="M331,-503.7C331,-496.41 331,-487.73 331,-479.54"/>
<polygon fill="black" stroke="black" points="334.5,-479.62 331,-469.62 327.5,-479.62 334.5,-479.62"/>
</g>
</g>
</svg>
