<?xml version="1.0" encoding="UTF-8" standalone="no"?>
<!DOCTYPE svg PUBLIC "-//W3C//DTD SVG 1.1//EN"
 "http://www.w3.org/Graphics/SVG/1.1/DTD/svg11.dtd">
<!-- Generated by graphviz version 9.0.0 (20230911.1827)
 -->
<!-- Pages: 1 -->
<svg width="415pt" height="476pt"
 viewBox="0.00 0.00 414.62 476.00" xmlns="http://www.w3.org/2000/svg" xmlns:xlink="http://www.w3.org/1999/xlink">
<g id="graph0" class="graph" transform="scale(1 1) rotate(0) translate(4 472)">
<polygon fill="white" stroke="none" points="-4,4 -4,-472 410.62,-472 410.62,4 -4,4"/>
<!-- 0 -->
<g id="node1" class="node">
<title>0</title>
<polygon fill="none" stroke="black" points="158.12,-108 65.62,-108 65.62,-72 158.12,-72 158.12,-108"/>
<text text-anchor="middle" x="111.88" y="-84.95" font-family="Times,serif" font-size="14.00">weaver_cache</text>
</g>
<!-- 1 -->
<g id="node2" class="node">
<title>1</title>
<polygon fill="none" stroke="black" points="167.12,-36 56.62,-36 56.62,0 167.12,0 167.12,-36"/>
<text text-anchor="middle" x="111.88" y="-12.95" font-family="Times,serif" font-size="14.00">weaver_common</text>
</g>
<!-- 0&#45;&gt;1 -->
<g id="edge1" class="edge">
<title>0&#45;&gt;1</title>
<path fill="none" stroke="black" d="M111.88,-71.7C111.88,-64.41 111.88,-55.73 111.88,-47.54"/>
<polygon fill="black" stroke="black" points="115.38,-47.62 111.88,-37.62 108.38,-47.62 115.38,-47.62"/>
</g>
<!-- 2 -->
<g id="node3" class="node">
<title>2</title>
<polygon fill="none" stroke="black" points="103.75,-324 0,-324 0,-288 103.75,-288 103.75,-324"/>
<text text-anchor="middle" x="51.88" y="-300.95" font-family="Times,serif" font-size="14.00">weaver_checker</text>
</g>
<!-- 2&#45;&gt;1 -->
<g id="edge2" class="edge">
<title>2&#45;&gt;1</title>
<path fill="none" stroke="black" d="M47.95,-287.67C39.78,-247.65 24.26,-146.5 56.88,-72 61.54,-61.34 69.47,-51.76 77.88,-43.77"/>
<polygon fill="black" stroke="black" points="80,-46.57 85.21,-37.34 75.38,-41.31 80,-46.57"/>
</g>
<!-- 3 -->
<g id="node4" class="node">
<title>3</title>
<polygon fill="none" stroke="black" points="287,-468 154.75,-468 154.75,-432 287,-432 287,-468"/>
<text text-anchor="middle" x="220.88" y="-444.95" font-family="Times,serif" font-size="14.00">weaver_codegen_test</text>
</g>
<!-- 4 -->
<g id="node5" class="node">
<title>4</title>
<polygon fill="none" stroke="black" points="219,-324 128.75,-324 128.75,-288 219,-288 219,-324"/>
<text text-anchor="middle" x="173.88" y="-300.95" font-family="Times,serif" font-size="14.00">weaver_forge</text>
</g>
<!-- 9 -->
<g id="node10" class="node">
<title>9</title>
<polygon fill="none" stroke="black" points="228.5,-252 123.25,-252 123.25,-216 228.5,-216 228.5,-252"/>
<text text-anchor="middle" x="175.88" y="-228.95" font-family="Times,serif" font-size="14.00">weaver_resolver</text>
</g>
<!-- 4&#45;&gt;9 -->
<g id="edge3" class="edge">
<title>4&#45;&gt;9</title>
<path fill="none" stroke="black" d="M174.37,-287.7C174.58,-280.41 174.83,-271.73 175.06,-263.54"/>
<polygon fill="black" stroke="black" points="178.56,-263.71 175.34,-253.62 171.56,-263.51 178.56,-263.71"/>
</g>
<!-- 5 -->
<g id="node6" class="node">
<title>5</title>
<polygon fill="none" stroke="black" points="219.5,-180 138.25,-180 138.25,-144 219.5,-144 219.5,-180"/>
<text text-anchor="middle" x="178.88" y="-156.95" font-family="Times,serif" font-size="14.00">weaver_diff</text>
</g>
<!-- 6 -->
<g id="node7" class="node">
<title>6</title>
<polygon fill="none" stroke="black" points="392.62,-180 237.12,-180 237.12,-144 392.62,-144 392.62,-180"/>
<text text-anchor="middle" x="314.88" y="-156.95" font-family="Times,serif" font-size="14.00">weaver_resolved_schema</text>
</g>
<!-- 7 -->
<g id="node8" class="node">
<title>7</title>
<polygon fill="none" stroke="black" points="287.12,-108 176.62,-108 176.62,-72 287.12,-72 287.12,-108"/>
<text text-anchor="middle" x="231.88" y="-84.95" font-family="Times,serif" font-size="14.00">weaver_semconv</text>
</g>
<!-- 6&#45;&gt;7 -->
<g id="edge4" class="edge">
<title>6&#45;&gt;7</title>
<path fill="none" stroke="black" d="M294.36,-143.7C284.28,-135.2 271.97,-124.81 260.94,-115.51"/>
<polygon fill="black" stroke="black" points="263.5,-113.09 253.6,-109.32 258.99,-118.45 263.5,-113.09"/>
</g>
<!-- 8 -->
<g id="node9" class="node">
<title>8</title>
<polygon fill="none" stroke="black" points="406.62,-108 305.12,-108 305.12,-72 406.62,-72 406.62,-108"/>
<text text-anchor="middle" x="355.88" y="-84.95" font-family="Times,serif" font-size="14.00">weaver_version</text>
</g>
<!-- 6&#45;&gt;8 -->
<g id="edge5" class="edge">
<title>6&#45;&gt;8</title>
<path fill="none" stroke="black" d="M325.01,-143.7C329.58,-135.9 335.08,-126.51 340.16,-117.83"/>
<polygon fill="black" stroke="black" points="343.06,-119.81 345.09,-109.41 337.02,-116.27 343.06,-119.81"/>
</g>
<!-- 7&#45;&gt;1 -->
<g id="edge6" class="edge">
<title>7&#45;&gt;1</title>
<path fill="none" stroke="black" d="M201.9,-71.52C186.61,-62.6 167.81,-51.63 151.36,-42.03"/>
<polygon fill="black" stroke="black" points="153.17,-39.04 142.77,-37.02 149.65,-45.09 153.17,-39.04"/>
</g>
<!-- 9&#45;&gt;0 -->
<g id="edge7" class="edge">
<title>9&#45;&gt;0</title>
<path fill="none" stroke="black" d="M156.17,-215.7C146.48,-206.13 135.5,-193.46 128.88,-180 119.58,-161.1 115.36,-137.63 113.44,-119.53"/>
<polygon fill="black" stroke="black" points="116.95,-119.42 112.6,-109.76 109.97,-120.02 116.95,-119.42"/>
</g>
<!-- 9&#45;&gt;5 -->
<g id="edge8" class="edge">
<title>9&#45;&gt;5</title>
<path fill="none" stroke="black" d="M176.62,-215.7C176.93,-208.41 177.3,-199.73 177.65,-191.54"/>
<polygon fill="black" stroke="black" points="181.15,-191.76 178.08,-181.62 174.15,-191.46 181.15,-191.76"/>
</g>
<!-- 9&#45;&gt;6 -->
<g id="edge9" class="edge">
<title>9&#45;&gt;6</title>
<path fill="none" stroke="black" d="M210.59,-215.52C228.72,-206.39 251.11,-195.11 270.49,-185.35"/>
<polygon fill="black" stroke="black" points="271.89,-188.57 279.25,-180.94 268.74,-182.31 271.89,-188.57"/>
</g>
<!-- 10 -->
<g id="node11" class="node">
<title>10</title>
<polygon fill="none" stroke="black" points="230.25,-396 93.5,-396 93.5,-360 230.25,-360 230.25,-396"/>
<text text-anchor="middle" x="161.88" y="-372.95" font-family="Times,serif" font-size="14.00">weaver_semconv_gen</text>
</g>
<!-- 10&#45;&gt;4 -->
<g id="edge10" class="edge">
<title>10&#45;&gt;4</title>
<path fill="none" stroke="black" d="M164.84,-359.7C166.11,-352.32 167.61,-343.52 169.03,-335.25"/>
<polygon fill="black" stroke="black" points="172.45,-336.04 170.69,-325.6 165.55,-334.86 172.45,-336.04"/>
</g>
<!-- 11 -->
<g id="node12" class="node">
<title>11</title>
<polygon fill="none" stroke="black" points="358.88,-468 304.88,-468 304.88,-432 358.88,-432 358.88,-468"/>
<text text-anchor="middle" x="331.88" y="-444.95" font-family="Times,serif" font-size="14.00">xtask</text>
</g>
<!-- 12 -->
<g id="node13" class="node">
<title>12</title>
<polygon fill="none" stroke="black" points="136.38,-468 81.38,-468 81.38,-432 136.38,-432 136.38,-468"/>
<text text-anchor="middle" x="108.88" y="-444.95" font-family="Times,serif" font-size="14.00">weaver</text>
</g>
<!-- 12&#45;&gt;2 -->
<g id="edge11" class="edge">
<title>12&#45;&gt;2</title>
<path fill="none" stroke="black" d="M100.79,-431.95C95.98,-421.62 89.87,-408.14 84.88,-396 76.55,-375.75 67.97,-352.54 61.65,-334.9"/>
<polygon fill="black" stroke="black" points="65,-333.88 58.36,-325.63 58.41,-336.22 65,-333.88"/>
</g>
<!-- 12&#45;&gt;10 -->
<g id="edge12" class="edge">
<title>12&#45;&gt;10</title>
<path fill="none" stroke="black" d="M121.98,-431.7C128.01,-423.73 135.3,-414.1 141.99,-405.26"/>
<polygon fill="black" stroke="black" points="144.76,-407.4 148.01,-397.31 139.18,-403.17 144.76,-407.4"/>
</g>
</g>
</svg>
