<?xml version="1.0" encoding="UTF-8" standalone="no"?>
<!DOCTYPE svg PUBLIC "-//W3C//DTD SVG 1.1//EN"
 "http://www.w3.org/Graphics/SVG/1.1/DTD/svg11.dtd">
<!-- Generated by graphviz version 9.0.0 (20230911.1827)
 -->
<!-- Pages: 1 -->
<svg width="631pt" height="332pt"
 viewBox="0.00 0.00 631.00 332.00" xmlns="http://www.w3.org/2000/svg" xmlns:xlink="http://www.w3.org/1999/xlink">
<g id="graph0" class="graph" transform="scale(1 1) rotate(0) translate(4 328)">
<polygon fill="white" stroke="none" points="-4,4 -4,-328 627,-328 627,4 -4,4"/>
<!-- 0 -->
<g id="node1" class="node">
<title>0</title>
<polygon fill="none" stroke="black" points="92.5,-108 0,-108 0,-72 92.5,-72 92.5,-108"/>
<text text-anchor="middle" x="46.25" y="-84.95" font-family="Times,serif" font-size="14.00">weaver_cache</text>
</g>
<!-- 1 -->
<g id="node2" class="node">
<title>1</title>
<polygon fill="none" stroke="black" points="214.12,-108 110.38,-108 110.38,-72 214.12,-72 214.12,-108"/>
<text text-anchor="middle" x="162.25" y="-84.95" font-family="Times,serif" font-size="14.00">weaver_checker</text>
</g>
<!-- 2 -->
<g id="node3" class="node">
<title>2</title>
<polygon fill="none" stroke="black" points="441.88,-180 360.62,-180 360.62,-144 441.88,-144 441.88,-180"/>
<text text-anchor="middle" x="401.25" y="-156.95" font-family="Times,serif" font-size="14.00">weaver_diff</text>
</g>
<!-- 3 -->
<g id="node4" class="node">
<title>3</title>
<polygon fill="none" stroke="black" points="325.38,-252 235.12,-252 235.12,-216 325.38,-216 325.38,-252"/>
<text text-anchor="middle" x="280.25" y="-228.95" font-family="Times,serif" font-size="14.00">weaver_forge</text>
</g>
<!-- 3&#45;&gt;2 -->
<g id="edge1" class="edge">
<title>3&#45;&gt;2</title>
<path fill="none" stroke="black" d="M310.47,-215.52C326.04,-206.51 345.2,-195.42 361.91,-185.76"/>
<polygon fill="black" stroke="black" points="363.2,-189.06 370.1,-181.02 359.7,-183 363.2,-189.06"/>
</g>
<!-- 8 -->
<g id="node9" class="node">
<title>8</title>
<polygon fill="none" stroke="black" points="332.88,-180 227.62,-180 227.62,-144 332.88,-144 332.88,-180"/>
<text text-anchor="middle" x="280.25" y="-156.95" font-family="Times,serif" font-size="14.00">weaver_resolver</text>
</g>
<!-- 3&#45;&gt;8 -->
<g id="edge2" class="edge">
<title>3&#45;&gt;8</title>
<path fill="none" stroke="black" d="M280.25,-215.7C280.25,-208.41 280.25,-199.73 280.25,-191.54"/>
<polygon fill="black" stroke="black" points="283.75,-191.62 280.25,-181.62 276.75,-191.62 283.75,-191.62"/>
</g>
<!-- 4 -->
<g id="node5" class="node">
<title>4</title>
<polygon fill="none" stroke="black" points="328.38,-108 232.12,-108 232.12,-72 328.38,-72 328.38,-108"/>
<text text-anchor="middle" x="280.25" y="-84.95" font-family="Times,serif" font-size="14.00">weaver_common</text>
</g>
<!-- 5 -->
<g id="node6" class="node">
<title>5</title>
<polygon fill="none" stroke="black" points="623,-108 467.5,-108 467.5,-72 623,-72 623,-108"/>
<text text-anchor="middle" x="545.25" y="-84.95" font-family="Times,serif" font-size="14.00">weaver_resolved_schema</text>
</g>
<!-- 6 -->
<g id="node7" class="node">
<title>6</title>
<polygon fill="none" stroke="black" points="464.5,-36 354,-36 354,0 464.5,0 464.5,-36"/>
<text text-anchor="middle" x="409.25" y="-12.95" font-family="Times,serif" font-size="14.00">weaver_semconv</text>
</g>
<!-- 5&#45;&gt;6 -->
<g id="edge3" class="edge">
<title>5&#45;&gt;6</title>
<path fill="none" stroke="black" d="M511.28,-71.52C493.62,-62.43 471.84,-51.22 452.94,-41.49"/>
<polygon fill="black" stroke="black" points="454.62,-38.42 444.13,-36.95 451.42,-44.64 454.62,-38.42"/>
</g>
<!-- 7 -->
<g id="node8" class="node">
<title>7</title>
<polygon fill="none" stroke="black" points="590,-36 488.5,-36 488.5,0 590,0 590,-36"/>
<text text-anchor="middle" x="539.25" y="-12.95" font-family="Times,serif" font-size="14.00">weaver_version</text>
</g>
<!-- 5&#45;&gt;7 -->
<g id="edge4" class="edge">
<title>5&#45;&gt;7</title>
<path fill="none" stroke="black" d="M543.77,-71.7C543.14,-64.41 542.4,-55.73 541.7,-47.54"/>
<polygon fill="black" stroke="black" points="545.19,-47.28 540.85,-37.61 538.21,-47.87 545.19,-47.28"/>
</g>
<!-- 8&#45;&gt;0 -->
<g id="edge5" class="edge">
<title>8&#45;&gt;0</title>
<path fill="none" stroke="black" d="M227.33,-145.51C194.25,-135.79 150.48,-122.85 103.72,-108.73"/>
<polygon fill="black" stroke="black" points="104.78,-105.4 94.2,-105.85 102.76,-112.1 104.78,-105.4"/>
</g>
<!-- 8&#45;&gt;1 -->
<g id="edge6" class="edge">
<title>8&#45;&gt;1</title>
<path fill="none" stroke="black" d="M250.78,-143.52C235.74,-134.6 217.26,-123.63 201.07,-114.03"/>
<polygon fill="black" stroke="black" points="203.03,-111.12 192.65,-109.03 199.46,-117.15 203.03,-111.12"/>
</g>
<!-- 8&#45;&gt;4 -->
<g id="edge7" class="edge">
<title>8&#45;&gt;4</title>
<path fill="none" stroke="black" d="M280.25,-143.7C280.25,-136.41 280.25,-127.73 280.25,-119.54"/>
<polygon fill="black" stroke="black" points="283.75,-119.62 280.25,-109.62 276.75,-119.62 283.75,-119.62"/>
</g>
<!-- 8&#45;&gt;5 -->
<g id="edge8" class="edge">
<title>8&#45;&gt;5</title>
<path fill="none" stroke="black" d="M333.24,-147C371.87,-136.8 424.8,-122.82 468.11,-111.38"/>
<polygon fill="black" stroke="black" points="468.95,-114.77 477.72,-108.84 467.16,-108.01 468.95,-114.77"/>
</g>
<!-- 9 -->
<g id="node10" class="node">
<title>9</title>
<polygon fill="none" stroke="black" points="449.75,-108 346.75,-108 346.75,-72 449.75,-72 449.75,-108"/>
<text text-anchor="middle" x="398.25" y="-84.95" font-family="Times,serif" font-size="14.00">weaver_schema</text>
</g>
<!-- 8&#45;&gt;9 -->
<g id="edge9" class="edge">
<title>8&#45;&gt;9</title>
<path fill="none" stroke="black" d="M309.72,-143.52C324.76,-134.6 343.24,-123.63 359.43,-114.03"/>
<polygon fill="black" stroke="black" points="361.04,-117.15 367.85,-109.03 357.47,-111.12 361.04,-117.15"/>
</g>
<!-- 9&#45;&gt;6 -->
<g id="edge10" class="edge">
<title>9&#45;&gt;6</title>
<path fill="none" stroke="black" d="M400.97,-71.7C402.13,-64.32 403.51,-55.52 404.81,-47.25"/>
<polygon fill="black" stroke="black" points="408.23,-48.02 406.33,-37.6 401.32,-46.93 408.23,-48.02"/>
</g>
<!-- 9&#45;&gt;7 -->
<g id="edge11" class="edge">
<title>9&#45;&gt;7</title>
<path fill="none" stroke="black" d="M433.47,-71.52C451.86,-62.39 474.57,-51.11 494.22,-41.35"/>
<polygon fill="black" stroke="black" points="495.73,-44.52 503.13,-36.93 492.61,-38.25 495.73,-44.52"/>
</g>
<!-- 10 -->
<g id="node11" class="node">
<title>10</title>
<polygon fill="none" stroke="black" points="480.62,-252 343.88,-252 343.88,-216 480.62,-216 480.62,-252"/>
<text text-anchor="middle" x="412.25" y="-228.95" font-family="Times,serif" font-size="14.00">weaver_semconv_gen</text>
</g>
<!-- 10&#45;&gt;2 -->
<g id="edge12" class="edge">
<title>10&#45;&gt;2</title>
<path fill="none" stroke="black" d="M409.53,-215.7C408.37,-208.32 406.99,-199.52 405.69,-191.25"/>
<polygon fill="black" stroke="black" points="409.18,-190.93 404.17,-181.6 402.27,-192.02 409.18,-190.93"/>
</g>
<!-- 10&#45;&gt;8 -->
<g id="edge13" class="edge">
<title>10&#45;&gt;8</title>
<path fill="none" stroke="black" d="M379.28,-215.52C362.22,-206.47 341.2,-195.32 322.91,-185.62"/>
<polygon fill="black" stroke="black" points="324.61,-182.56 314.14,-180.97 321.33,-188.75 324.61,-182.56"/>
</g>
<!-- 11 -->
<g id="node12" class="node">
<title>11</title>
<polygon fill="none" stroke="black" points="216.75,-252 107.75,-252 107.75,-216 216.75,-216 216.75,-252"/>
<text text-anchor="middle" x="162.25" y="-228.95" font-family="Times,serif" font-size="14.00">weaver_template</text>
</g>
<!-- 11&#45;&gt;8 -->
<g id="edge14" class="edge">
<title>11&#45;&gt;8</title>
<path fill="none" stroke="black" d="M191.72,-215.52C206.76,-206.6 225.24,-195.63 241.43,-186.03"/>
<polygon fill="black" stroke="black" points="243.04,-189.15 249.85,-181.03 239.47,-183.12 243.04,-189.15"/>
</g>
<!-- 12 -->
<g id="node13" class="node">
<title>12</title>
<polygon fill="none" stroke="black" points="446.25,-324 392.25,-324 392.25,-288 446.25,-288 446.25,-324"/>
<text text-anchor="middle" x="419.25" y="-300.95" font-family="Times,serif" font-size="14.00">xtask</text>
</g>
<!-- 13 -->
<g id="node14" class="node">
<title>13</title>
<polygon fill="none" stroke="black" points="373.75,-324 318.75,-324 318.75,-288 373.75,-288 373.75,-324"/>
<text text-anchor="middle" x="346.25" y="-300.95" font-family="Times,serif" font-size="14.00">weaver</text>
</g>
<!-- 13&#45;&gt;3 -->
<g id="edge15" class="edge">
<title>13&#45;&gt;3</title>
<path fill="none" stroke="black" d="M329.94,-287.7C322.18,-279.47 312.76,-269.48 304.22,-260.42"/>
<polygon fill="black" stroke="black" points="306.82,-258.08 297.42,-253.21 301.73,-262.88 306.82,-258.08"/>
</g>
<!-- 13&#45;&gt;10 -->
<g id="edge16" class="edge">
<title>13&#45;&gt;10</title>
<path fill="none" stroke="black" d="M362.56,-287.7C370.32,-279.47 379.74,-269.48 388.28,-260.42"/>
<polygon fill="black" stroke="black" points="390.77,-262.88 395.08,-253.21 385.68,-258.08 390.77,-262.88"/>
</g>
</g>
</svg>
