<?xml version="1.0" encoding="UTF-8" standalone="no"?>
<!DOCTYPE svg PUBLIC "-//W3C//DTD SVG 1.1//EN"
 "http://www.w3.org/Graphics/SVG/1.1/DTD/svg11.dtd">
<!-- Generated by graphviz version 9.0.0 (20230911.1827)
 -->
<!-- Pages: 1 -->
<svg width="616pt" height="332pt"
 viewBox="0.00 0.00 616.00 332.00" xmlns="http://www.w3.org/2000/svg" xmlns:xlink="http://www.w3.org/1999/xlink">
<g id="graph0" class="graph" transform="scale(1 1) rotate(0) translate(4 328)">
<polygon fill="white" stroke="none" points="-4,4 -4,-328 612,-328 612,4 -4,4"/>
<!-- 0 -->
<g id="node1" class="node">
<title>0</title>
<polygon fill="none" stroke="black" points="92.5,-108 0,-108 0,-72 92.5,-72 92.5,-108"/>
<text text-anchor="middle" x="46.25" y="-84.95" font-family="Times,serif" font-size="14.00">weaver_cache</text>
</g>
<!-- 1 -->
<g id="node2" class="node">
<title>1</title>
<polygon fill="none" stroke="black" points="214.12,-108 110.38,-108 110.38,-72 214.12,-72 214.12,-108"/>
<text text-anchor="middle" x="162.25" y="-84.95" font-family="Times,serif" font-size="14.00">weaver_checker</text>
</g>
<!-- 2 -->
<g id="node3" class="node">
<title>2</title>
<polygon fill="none" stroke="black" points="217.5,-36 107,-36 107,0 217.5,0 217.5,-36"/>
<text text-anchor="middle" x="162.25" y="-12.95" font-family="Times,serif" font-size="14.00">weaver_common</text>
</g>
<!-- 1&#45;&gt;2 -->
<g id="edge1" class="edge">
<title>1&#45;&gt;2</title>
<path fill="none" stroke="black" d="M162.25,-71.7C162.25,-64.41 162.25,-55.73 162.25,-47.54"/>
<polygon fill="black" stroke="black" points="165.75,-47.62 162.25,-37.62 158.75,-47.62 165.75,-47.62"/>
</g>
<!-- 3 -->
<g id="node4" class="node">
<title>3</title>
<polygon fill="none" stroke="black" points="313.88,-108 232.62,-108 232.62,-72 313.88,-72 313.88,-108"/>
<text text-anchor="middle" x="273.25" y="-84.95" font-family="Times,serif" font-size="14.00">weaver_diff</text>
</g>
<!-- 4 -->
<g id="node5" class="node">
<title>4</title>
<polygon fill="none" stroke="black" points="318.38,-252 228.12,-252 228.12,-216 318.38,-216 318.38,-252"/>
<text text-anchor="middle" x="273.25" y="-228.95" font-family="Times,serif" font-size="14.00">weaver_forge</text>
</g>
<!-- 8 -->
<g id="node9" class="node">
<title>8</title>
<polygon fill="none" stroke="black" points="325.88,-180 220.62,-180 220.62,-144 325.88,-144 325.88,-180"/>
<text text-anchor="middle" x="273.25" y="-156.95" font-family="Times,serif" font-size="14.00">weaver_resolver</text>
</g>
<!-- 4&#45;&gt;8 -->
<g id="edge2" class="edge">
<title>4&#45;&gt;8</title>
<path fill="none" stroke="black" d="M273.25,-215.7C273.25,-208.41 273.25,-199.73 273.25,-191.54"/>
<polygon fill="black" stroke="black" points="276.75,-191.62 273.25,-181.62 269.75,-191.62 276.75,-191.62"/>
</g>
<!-- 5 -->
<g id="node6" class="node">
<title>5</title>
<polygon fill="none" stroke="black" points="608,-108 452.5,-108 452.5,-72 608,-72 608,-108"/>
<text text-anchor="middle" x="530.25" y="-84.95" font-family="Times,serif" font-size="14.00">weaver_resolved_schema</text>
</g>
<!-- 6 -->
<g id="node7" class="node">
<title>6</title>
<polygon fill="none" stroke="black" points="579.5,-36 469,-36 469,0 579.5,0 579.5,-36"/>
<text text-anchor="middle" x="524.25" y="-12.95" font-family="Times,serif" font-size="14.00">weaver_semconv</text>
</g>
<!-- 5&#45;&gt;6 -->
<g id="edge3" class="edge">
<title>5&#45;&gt;6</title>
<path fill="none" stroke="black" d="M528.77,-71.7C528.14,-64.41 527.4,-55.73 526.7,-47.54"/>
<polygon fill="black" stroke="black" points="530.19,-47.28 525.85,-37.61 523.21,-47.87 530.19,-47.28"/>
</g>
<!-- 7 -->
<g id="node8" class="node">
<title>7</title>
<polygon fill="none" stroke="black" points="440,-36 338.5,-36 338.5,0 440,0 440,-36"/>
<text text-anchor="middle" x="389.25" y="-12.95" font-family="Times,serif" font-size="14.00">weaver_version</text>
</g>
<!-- 5&#45;&gt;7 -->
<g id="edge4" class="edge">
<title>5&#45;&gt;7</title>
<path fill="none" stroke="black" d="M495.03,-71.52C476.64,-62.39 453.93,-51.11 434.28,-41.35"/>
<polygon fill="black" stroke="black" points="435.89,-38.25 425.37,-36.93 432.77,-44.52 435.89,-38.25"/>
</g>
<!-- 8&#45;&gt;0 -->
<g id="edge5" class="edge">
<title>8&#45;&gt;0</title>
<path fill="none" stroke="black" d="M220.17,-144.66C188.76,-134.98 147.91,-122.4 103.75,-108.77"/>
<polygon fill="black" stroke="black" points="104.79,-105.43 94.21,-105.83 102.73,-112.12 104.79,-105.43"/>
</g>
<!-- 8&#45;&gt;1 -->
<g id="edge6" class="edge">
<title>8&#45;&gt;1</title>
<path fill="none" stroke="black" d="M245.53,-143.52C231.51,-134.68 214.32,-123.84 199.2,-114.3"/>
<polygon fill="black" stroke="black" points="201.23,-111.44 190.9,-109.07 197.49,-117.36 201.23,-111.44"/>
</g>
<!-- 8&#45;&gt;3 -->
<g id="edge7" class="edge">
<title>8&#45;&gt;3</title>
<path fill="none" stroke="black" d="M273.25,-143.7C273.25,-136.41 273.25,-127.73 273.25,-119.54"/>
<polygon fill="black" stroke="black" points="276.75,-119.62 273.25,-109.62 269.75,-119.62 276.75,-119.62"/>
</g>
<!-- 8&#45;&gt;5 -->
<g id="edge8" class="edge">
<title>8&#45;&gt;5</title>
<path fill="none" stroke="black" d="M326.19,-146.58C363.42,-136.44 413.77,-122.73 455.14,-111.46"/>
<polygon fill="black" stroke="black" points="455.81,-114.9 464.54,-108.9 453.97,-108.15 455.81,-114.9"/>
</g>
<!-- 9 -->
<g id="node10" class="node">
<title>9</title>
<polygon fill="none" stroke="black" points="434.75,-108 331.75,-108 331.75,-72 434.75,-72 434.75,-108"/>
<text text-anchor="middle" x="383.25" y="-84.95" font-family="Times,serif" font-size="14.00">weaver_schema</text>
</g>
<!-- 8&#45;&gt;9 -->
<g id="edge9" class="edge">
<title>8&#45;&gt;9</title>
<path fill="none" stroke="black" d="M300.72,-143.52C314.61,-134.68 331.65,-123.84 346.63,-114.3"/>
<polygon fill="black" stroke="black" points="348.29,-117.39 354.85,-109.07 344.53,-111.49 348.29,-117.39"/>
</g>
<!-- 9&#45;&gt;6 -->
<g id="edge10" class="edge">
<title>9&#45;&gt;6</title>
<path fill="none" stroke="black" d="M418.47,-71.52C436.86,-62.39 459.57,-51.11 479.22,-41.35"/>
<polygon fill="black" stroke="black" points="480.73,-44.52 488.13,-36.93 477.61,-38.25 480.73,-44.52"/>
</g>
<!-- 9&#45;&gt;7 -->
<g id="edge11" class="edge">
<title>9&#45;&gt;7</title>
<path fill="none" stroke="black" d="M384.73,-71.7C385.36,-64.41 386.1,-55.73 386.8,-47.54"/>
<polygon fill="black" stroke="black" points="390.29,-47.87 387.65,-37.61 383.31,-47.28 390.29,-47.87"/>
</g>
<!-- 10 -->
<g id="node11" class="node">
<title>10</title>
<polygon fill="none" stroke="black" points="209.62,-252 72.88,-252 72.88,-216 209.62,-216 209.62,-252"/>
<text text-anchor="middle" x="141.25" y="-228.95" font-family="Times,serif" font-size="14.00">weaver_semconv_gen</text>
</g>
<!-- 10&#45;&gt;8 -->
<g id="edge12" class="edge">
<title>10&#45;&gt;8</title>
<path fill="none" stroke="black" d="M174.22,-215.52C191.28,-206.47 212.3,-195.32 230.59,-185.62"/>
<polygon fill="black" stroke="black" points="232.17,-188.75 239.36,-180.97 228.89,-182.56 232.17,-188.75"/>
</g>
<!-- 11 -->
<g id="node12" class="node">
<title>11</title>
<polygon fill="none" stroke="black" points="445.75,-252 336.75,-252 336.75,-216 445.75,-216 445.75,-252"/>
<text text-anchor="middle" x="391.25" y="-228.95" font-family="Times,serif" font-size="14.00">weaver_template</text>
</g>
<!-- 11&#45;&gt;8 -->
<g id="edge13" class="edge">
<title>11&#45;&gt;8</title>
<path fill="none" stroke="black" d="M361.78,-215.52C346.74,-206.6 328.26,-195.63 312.07,-186.03"/>
<polygon fill="black" stroke="black" points="314.03,-183.12 303.65,-181.03 310.46,-189.15 314.03,-183.12"/>
</g>
<!-- 12 -->
<g id="node13" class="node">
<title>12</title>
<polygon fill="none" stroke="black" points="307.25,-324 253.25,-324 253.25,-288 307.25,-288 307.25,-324"/>
<text text-anchor="middle" x="280.25" y="-300.95" font-family="Times,serif" font-size="14.00">xtask</text>
</g>
<!-- 13 -->
<g id="node14" class="node">
<title>13</title>
<polygon fill="none" stroke="black" points="234.75,-324 179.75,-324 179.75,-288 234.75,-288 234.75,-324"/>
<text text-anchor="middle" x="207.25" y="-300.95" font-family="Times,serif" font-size="14.00">weaver</text>
</g>
<!-- 13&#45;&gt;4 -->
<g id="edge14" class="edge">
<title>13&#45;&gt;4</title>
<path fill="none" stroke="black" d="M223.56,-287.7C231.32,-279.47 240.74,-269.48 249.28,-260.42"/>
<polygon fill="black" stroke="black" points="251.77,-262.88 256.08,-253.21 246.68,-258.08 251.77,-262.88"/>
</g>
<!-- 13&#45;&gt;10 -->
<g id="edge15" class="edge">
<title>13&#45;&gt;10</title>
<path fill="none" stroke="black" d="M190.94,-287.7C183.18,-279.47 173.76,-269.48 165.22,-260.42"/>
<polygon fill="black" stroke="black" points="167.82,-258.08 158.42,-253.21 162.73,-262.88 167.82,-258.08"/>
</g>
</g>
</svg>
