<?xml version="1.0" encoding="UTF-8" standalone="no"?>
<!DOCTYPE svg PUBLIC "-//W3C//DTD SVG 1.1//EN"
 "http://www.w3.org/Graphics/SVG/1.1/DTD/svg11.dtd">
<!-- Generated by graphviz version 9.0.0 (20230911.1827)
 -->
<!-- Pages: 1 -->
<svg width="517pt" height="332pt"
 viewBox="0.00 0.00 516.75 332.00" xmlns="http://www.w3.org/2000/svg" xmlns:xlink="http://www.w3.org/1999/xlink">
<g id="graph0" class="graph" transform="scale(1 1) rotate(0) translate(4 328)">
<polygon fill="white" stroke="none" points="-4,4 -4,-328 512.75,-328 512.75,4 -4,4"/>
<!-- 0 -->
<g id="node1" class="node">
<title>0</title>
<polygon fill="none" stroke="black" points="92.5,-108 0,-108 0,-72 92.5,-72 92.5,-108"/>
<text text-anchor="middle" x="46.25" y="-84.95" font-family="Times,serif" font-size="14.00">weaver_cache</text>
</g>
<!-- 1 -->
<g id="node2" class="node">
<title>1</title>
<polygon fill="none" stroke="black" points="214.12,-108 110.38,-108 110.38,-72 214.12,-72 214.12,-108"/>
<text text-anchor="middle" x="162.25" y="-84.95" font-family="Times,serif" font-size="14.00">weaver_checker</text>
</g>
<!-- 2 -->
<g id="node3" class="node">
<title>2</title>
<polygon fill="none" stroke="black" points="217.5,-36 107,-36 107,0 217.5,0 217.5,-36"/>
<text text-anchor="middle" x="162.25" y="-12.95" font-family="Times,serif" font-size="14.00">weaver_common</text>
</g>
<!-- 1&#45;&gt;2 -->
<g id="edge1" class="edge">
<title>1&#45;&gt;2</title>
<path fill="none" stroke="black" d="M162.25,-71.7C162.25,-64.41 162.25,-55.73 162.25,-47.54"/>
<polygon fill="black" stroke="black" points="165.75,-47.62 162.25,-37.62 158.75,-47.62 165.75,-47.62"/>
</g>
<!-- 3 -->
<g id="node4" class="node">
<title>3</title>
<polygon fill="none" stroke="black" points="397.88,-180 316.62,-180 316.62,-144 397.88,-144 397.88,-180"/>
<text text-anchor="middle" x="357.25" y="-156.95" font-family="Times,serif" font-size="14.00">weaver_diff</text>
</g>
<!-- 4 -->
<g id="node5" class="node">
<title>4</title>
<polygon fill="none" stroke="black" points="281.38,-252 191.12,-252 191.12,-216 281.38,-216 281.38,-252"/>
<text text-anchor="middle" x="236.25" y="-228.95" font-family="Times,serif" font-size="14.00">weaver_forge</text>
</g>
<!-- 4&#45;&gt;3 -->
<g id="edge2" class="edge">
<title>4&#45;&gt;3</title>
<path fill="none" stroke="black" d="M266.47,-215.52C282.04,-206.51 301.2,-195.42 317.91,-185.76"/>
<polygon fill="black" stroke="black" points="319.2,-189.06 326.1,-181.02 315.7,-183 319.2,-189.06"/>
</g>
<!-- 8 -->
<g id="node9" class="node">
<title>8</title>
<polygon fill="none" stroke="black" points="288.88,-180 183.62,-180 183.62,-144 288.88,-144 288.88,-180"/>
<text text-anchor="middle" x="236.25" y="-156.95" font-family="Times,serif" font-size="14.00">weaver_resolver</text>
</g>
<!-- 4&#45;&gt;8 -->
<g id="edge3" class="edge">
<title>4&#45;&gt;8</title>
<path fill="none" stroke="black" d="M236.25,-215.7C236.25,-208.41 236.25,-199.73 236.25,-191.54"/>
<polygon fill="black" stroke="black" points="239.75,-191.62 236.25,-181.62 232.75,-191.62 239.75,-191.62"/>
</g>
<!-- 5 -->
<g id="node6" class="node">
<title>5</title>
<polygon fill="none" stroke="black" points="388,-108 232.5,-108 232.5,-72 388,-72 388,-108"/>
<text text-anchor="middle" x="310.25" y="-84.95" font-family="Times,serif" font-size="14.00">weaver_resolved_schema</text>
</g>
<!-- 6 -->
<g id="node7" class="node">
<title>6</title>
<polygon fill="none" stroke="black" points="506.5,-36 396,-36 396,0 506.5,0 506.5,-36"/>
<text text-anchor="middle" x="451.25" y="-12.95" font-family="Times,serif" font-size="14.00">weaver_semconv</text>
</g>
<!-- 5&#45;&gt;6 -->
<g id="edge4" class="edge">
<title>5&#45;&gt;6</title>
<path fill="none" stroke="black" d="M345.47,-71.52C363.86,-62.39 386.57,-51.11 406.22,-41.35"/>
<polygon fill="black" stroke="black" points="407.73,-44.52 415.13,-36.93 404.61,-38.25 407.73,-44.52"/>
</g>
<!-- 7 -->
<g id="node8" class="node">
<title>7</title>
<polygon fill="none" stroke="black" points="367,-36 265.5,-36 265.5,0 367,0 367,-36"/>
<text text-anchor="middle" x="316.25" y="-12.95" font-family="Times,serif" font-size="14.00">weaver_version</text>
</g>
<!-- 5&#45;&gt;7 -->
<g id="edge5" class="edge">
<title>5&#45;&gt;7</title>
<path fill="none" stroke="black" d="M311.73,-71.7C312.36,-64.41 313.1,-55.73 313.8,-47.54"/>
<polygon fill="black" stroke="black" points="317.29,-47.87 314.65,-37.61 310.31,-47.28 317.29,-47.87"/>
</g>
<!-- 8&#45;&gt;0 -->
<g id="edge6" class="edge">
<title>8&#45;&gt;0</title>
<path fill="none" stroke="black" d="M188.8,-143.52C162.89,-133.97 130.62,-122.08 103.34,-112.03"/>
<polygon fill="black" stroke="black" points="104.79,-108.84 94.19,-108.66 102.37,-115.4 104.79,-108.84"/>
</g>
<!-- 8&#45;&gt;1 -->
<g id="edge7" class="edge">
<title>8&#45;&gt;1</title>
<path fill="none" stroke="black" d="M217.96,-143.7C209.15,-135.37 198.43,-125.22 188.75,-116.07"/>
<polygon fill="black" stroke="black" points="191.36,-113.72 181.69,-109.39 186.55,-118.8 191.36,-113.72"/>
</g>
<!-- 8&#45;&gt;5 -->
<g id="edge8" class="edge">
<title>8&#45;&gt;5</title>
<path fill="none" stroke="black" d="M254.54,-143.7C263.35,-135.37 274.07,-125.22 283.75,-116.07"/>
<polygon fill="black" stroke="black" points="285.95,-118.8 290.81,-109.39 281.14,-113.72 285.95,-118.8"/>
</g>
<!-- 9 -->
<g id="node10" class="node">
<title>9</title>
<polygon fill="none" stroke="black" points="508.75,-108 405.75,-108 405.75,-72 508.75,-72 508.75,-108"/>
<text text-anchor="middle" x="457.25" y="-84.95" font-family="Times,serif" font-size="14.00">weaver_schema</text>
</g>
<!-- 8&#45;&gt;9 -->
<g id="edge9" class="edge">
<title>8&#45;&gt;9</title>
<path fill="none" stroke="black" d="M289.19,-144.23C320.99,-134.16 361.62,-121.29 394.96,-110.73"/>
<polygon fill="black" stroke="black" points="395.59,-114.2 404.07,-107.85 393.48,-107.53 395.59,-114.2"/>
</g>
<!-- 9&#45;&gt;6 -->
<g id="edge10" class="edge">
<title>9&#45;&gt;6</title>
<path fill="none" stroke="black" d="M455.77,-71.7C455.14,-64.41 454.4,-55.73 453.7,-47.54"/>
<polygon fill="black" stroke="black" points="457.19,-47.28 452.85,-37.61 450.21,-47.87 457.19,-47.28"/>
</g>
<!-- 9&#45;&gt;7 -->
<g id="edge11" class="edge">
<title>9&#45;&gt;7</title>
<path fill="none" stroke="black" d="M422.03,-71.52C403.64,-62.39 380.93,-51.11 361.28,-41.35"/>
<polygon fill="black" stroke="black" points="362.89,-38.25 352.37,-36.93 359.77,-44.52 362.89,-38.25"/>
</g>
<!-- 10 -->
<g id="node11" class="node">
<title>10</title>
<polygon fill="none" stroke="black" points="436.62,-252 299.88,-252 299.88,-216 436.62,-216 436.62,-252"/>
<text text-anchor="middle" x="368.25" y="-228.95" font-family="Times,serif" font-size="14.00">weaver_semconv_gen</text>
</g>
<!-- 10&#45;&gt;3 -->
<g id="edge12" class="edge">
<title>10&#45;&gt;3</title>
<path fill="none" stroke="black" d="M365.53,-215.7C364.37,-208.32 362.99,-199.52 361.69,-191.25"/>
<polygon fill="black" stroke="black" points="365.18,-190.93 360.17,-181.6 358.27,-192.02 365.18,-190.93"/>
</g>
<!-- 10&#45;&gt;8 -->
<g id="edge13" class="edge">
<title>10&#45;&gt;8</title>
<path fill="none" stroke="black" d="M335.28,-215.52C318.22,-206.47 297.2,-195.32 278.91,-185.62"/>
<polygon fill="black" stroke="black" points="280.61,-182.56 270.14,-180.97 277.33,-188.75 280.61,-182.56"/>
</g>
<!-- 11 -->
<g id="node12" class="node">
<title>11</title>
<polygon fill="none" stroke="black" points="172.75,-252 63.75,-252 63.75,-216 172.75,-216 172.75,-252"/>
<text text-anchor="middle" x="118.25" y="-228.95" font-family="Times,serif" font-size="14.00">weaver_template</text>
</g>
<!-- 11&#45;&gt;8 -->
<g id="edge14" class="edge">
<title>11&#45;&gt;8</title>
<path fill="none" stroke="black" d="M147.72,-215.52C162.76,-206.6 181.24,-195.63 197.43,-186.03"/>
<polygon fill="black" stroke="black" points="199.04,-189.15 205.85,-181.03 195.47,-183.12 199.04,-189.15"/>
</g>
<!-- 12 -->
<g id="node13" class="node">
<title>12</title>
<polygon fill="none" stroke="black" points="402.25,-324 348.25,-324 348.25,-288 402.25,-288 402.25,-324"/>
<text text-anchor="middle" x="375.25" y="-300.95" font-family="Times,serif" font-size="14.00">xtask</text>
</g>
<!-- 13 -->
<g id="node14" class="node">
<title>13</title>
<polygon fill="none" stroke="black" points="329.75,-324 274.75,-324 274.75,-288 329.75,-288 329.75,-324"/>
<text text-anchor="middle" x="302.25" y="-300.95" font-family="Times,serif" font-size="14.00">weaver</text>
</g>
<!-- 13&#45;&gt;4 -->
<g id="edge15" class="edge">
<title>13&#45;&gt;4</title>
<path fill="none" stroke="black" d="M285.94,-287.7C278.18,-279.47 268.76,-269.48 260.22,-260.42"/>
<polygon fill="black" stroke="black" points="262.82,-258.08 253.42,-253.21 257.73,-262.88 262.82,-258.08"/>
</g>
<!-- 13&#45;&gt;10 -->
<g id="edge16" class="edge">
<title>13&#45;&gt;10</title>
<path fill="none" stroke="black" d="M318.56,-287.7C326.32,-279.47 335.74,-269.48 344.28,-260.42"/>
<polygon fill="black" stroke="black" points="346.77,-262.88 351.08,-253.21 341.68,-258.08 346.77,-262.88"/>
</g>
</g>
</svg>
