<?xml version="1.0" encoding="UTF-8" standalone="no"?>
<!DOCTYPE svg PUBLIC "-//W3C//DTD SVG 1.1//EN"
 "http://www.w3.org/Graphics/SVG/1.1/DTD/svg11.dtd">
<!-- Generated by graphviz version 9.0.0 (20230911.1827)
 -->
<!-- Pages: 1 -->
<svg width="901pt" height="332pt"
 viewBox="0.00 0.00 901.05 332.00" xmlns="http://www.w3.org/2000/svg" xmlns:xlink="http://www.w3.org/1999/xlink">
<g id="graph0" class="graph" transform="scale(1 1) rotate(0) translate(4 328)">
<polygon fill="white" stroke="none" points="-4,4 -4,-328 897.05,-328 897.05,4 -4,4"/>
<!-- 0 -->
<g id="node1" class="node">
<title>0</title>
<polygon fill="none" stroke="black" points="771.8,-108 679.3,-108 679.3,-72 771.8,-72 771.8,-108"/>
<text text-anchor="middle" x="725.55" y="-84.95" font-family="Times,serif" font-size="14.00">weaver_cache</text>
</g>
<!-- 1 -->
<g id="node2" class="node">
<title>1</title>
<polygon fill="none" stroke="black" points="346.17,-180 264.92,-180 264.92,-144 346.17,-144 346.17,-180"/>
<text text-anchor="middle" x="305.55" y="-156.95" font-family="Times,serif" font-size="14.00">weaver_diff</text>
</g>
<!-- 2 -->
<g id="node3" class="node">
<title>2</title>
<polygon fill="none" stroke="black" points="303.67,-252 213.42,-252 213.42,-216 303.67,-216 303.67,-252"/>
<text text-anchor="middle" x="258.55" y="-228.95" font-family="Times,serif" font-size="14.00">weaver_forge</text>
</g>
<!-- 2&#45;&gt;1 -->
<g id="edge1" class="edge">
<title>2&#45;&gt;1</title>
<path fill="none" stroke="black" d="M270.16,-215.7C275.46,-207.81 281.84,-198.3 287.72,-189.55"/>
<polygon fill="black" stroke="black" points="290.55,-191.61 293.22,-181.36 284.74,-187.71 290.55,-191.61"/>
</g>
<!-- 3 -->
<g id="node4" class="node">
<title>3</title>
<polygon fill="none" stroke="black" points="373.67,-108 277.42,-108 277.42,-72 373.67,-72 373.67,-108"/>
<text text-anchor="middle" x="325.55" y="-84.95" font-family="Times,serif" font-size="14.00">weaver_logger</text>
</g>
<!-- 2&#45;&gt;3 -->
<g id="edge2" class="edge">
<title>2&#45;&gt;3</title>
<path fill="none" stroke="black" d="M242.42,-215.82C227.09,-197.3 208.31,-167.34 222.55,-144 232.61,-127.5 249.65,-115.91 266.99,-107.88"/>
<polygon fill="black" stroke="black" points="267.96,-111.28 275.8,-104.15 265.22,-104.83 267.96,-111.28"/>
</g>
<!-- 4 -->
<g id="node5" class="node">
<title>4</title>
<polygon fill="none" stroke="black" points="623.3,-108 467.8,-108 467.8,-72 623.3,-72 623.3,-108"/>
<text text-anchor="middle" x="545.55" y="-84.95" font-family="Times,serif" font-size="14.00">weaver_resolved_schema</text>
</g>
<!-- 2&#45;&gt;4 -->
<g id="edge3" class="edge">
<title>2&#45;&gt;4</title>
<path fill="none" stroke="black" d="M251.83,-215.75C245.4,-196.04 238.91,-163.95 255.55,-144 268.5,-128.47 376.01,-111.91 456.38,-101.51"/>
<polygon fill="black" stroke="black" points="456.55,-105.02 466.03,-100.28 455.66,-98.08 456.55,-105.02"/>
</g>
<!-- 5 -->
<g id="node6" class="node">
<title>5</title>
<polygon fill="none" stroke="black" points="475.8,-36 365.3,-36 365.3,0 475.8,0 475.8,-36"/>
<text text-anchor="middle" x="420.55" y="-12.95" font-family="Times,serif" font-size="14.00">weaver_semconv</text>
</g>
<!-- 2&#45;&gt;5 -->
<g id="edge5" class="edge">
<title>2&#45;&gt;5</title>
<path fill="none" stroke="black" d="M238.17,-215.53C228.74,-206.09 218.54,-193.6 213.55,-180 194.98,-129.44 224.93,-103.6 268.55,-72 293.72,-53.76 325.71,-41.37 353.85,-33.18"/>
<polygon fill="black" stroke="black" points="354.66,-36.59 363.37,-30.54 352.8,-29.84 354.66,-36.59"/>
</g>
<!-- 7 -->
<g id="node8" class="node">
<title>7</title>
<polygon fill="none" stroke="black" points="622.17,-180 516.92,-180 516.92,-144 622.17,-144 622.17,-180"/>
<text text-anchor="middle" x="569.55" y="-156.95" font-family="Times,serif" font-size="14.00">weaver_resolver</text>
</g>
<!-- 2&#45;&gt;7 -->
<g id="edge4" class="edge">
<title>2&#45;&gt;7</title>
<path fill="none" stroke="black" d="M304.1,-222.75C357.31,-210.77 445.68,-190.88 505.71,-177.37"/>
<polygon fill="black" stroke="black" points="506.11,-180.87 515.1,-175.26 504.57,-174.04 506.11,-180.87"/>
</g>
<!-- 4&#45;&gt;5 -->
<g id="edge6" class="edge">
<title>4&#45;&gt;5</title>
<path fill="none" stroke="black" d="M514.33,-71.52C498.25,-62.51 478.45,-51.42 461.19,-41.76"/>
<polygon fill="black" stroke="black" points="463.12,-38.83 452.69,-37 459.7,-44.94 463.12,-38.83"/>
</g>
<!-- 6 -->
<g id="node7" class="node">
<title>6</title>
<polygon fill="none" stroke="black" points="702.3,-36 600.8,-36 600.8,0 702.3,0 702.3,-36"/>
<text text-anchor="middle" x="651.55" y="-12.95" font-family="Times,serif" font-size="14.00">weaver_version</text>
</g>
<!-- 4&#45;&gt;6 -->
<g id="edge7" class="edge">
<title>4&#45;&gt;6</title>
<path fill="none" stroke="black" d="M572.02,-71.52C585.27,-62.76 601.51,-52.04 615.85,-42.58"/>
<polygon fill="black" stroke="black" points="617.73,-45.53 624.15,-37.09 613.87,-39.68 617.73,-45.53"/>
</g>
<!-- 7&#45;&gt;0 -->
<g id="edge8" class="edge">
<title>7&#45;&gt;0</title>
<path fill="none" stroke="black" d="M608.51,-143.52C629.06,-134.29 654.49,-122.89 676.38,-113.06"/>
<polygon fill="black" stroke="black" points="677.74,-116.29 685.43,-109 674.87,-109.9 677.74,-116.29"/>
</g>
<!-- 7&#45;&gt;3 -->
<g id="edge9" class="edge">
<title>7&#45;&gt;3</title>
<path fill="none" stroke="black" d="M516.6,-145.81C477.78,-134.67 425.06,-119.55 384.83,-108.01"/>
<polygon fill="black" stroke="black" points="385.86,-104.66 375.29,-105.27 383.93,-111.39 385.86,-104.66"/>
</g>
<!-- 7&#45;&gt;4 -->
<g id="edge11" class="edge">
<title>7&#45;&gt;4</title>
<path fill="none" stroke="black" d="M563.61,-143.7C561.06,-136.24 558,-127.32 555.13,-118.97"/>
<polygon fill="black" stroke="black" points="558.46,-117.86 551.9,-109.54 551.83,-120.13 558.46,-117.86"/>
</g>
<!-- 7&#45;&gt;5 -->
<g id="edge13" class="edge">
<title>7&#45;&gt;5</title>
<path fill="none" stroke="black" d="M516.58,-144.8C496.35,-136.46 474.36,-124.49 458.55,-108 442.46,-91.23 432.67,-66.6 427.06,-47.51"/>
<polygon fill="black" stroke="black" points="430.46,-46.66 424.48,-37.91 423.7,-48.48 430.46,-46.66"/>
</g>
<!-- 7&#45;&gt;6 -->
<g id="edge14" class="edge">
<title>7&#45;&gt;6</title>
<path fill="none" stroke="black" d="M597.8,-143.54C610.27,-134.43 624.01,-122.21 632.55,-108 643.5,-89.75 648.19,-66.07 650.17,-47.72"/>
<polygon fill="black" stroke="black" points="653.66,-48.04 651.01,-37.78 646.68,-47.45 653.66,-48.04"/>
</g>
<!-- 8 -->
<g id="node9" class="node">
<title>8</title>
<polygon fill="none" stroke="black" points="153.67,-108 15.42,-108 15.42,-72 153.67,-72 153.67,-108"/>
<text text-anchor="middle" x="84.55" y="-84.95" font-family="Times,serif" font-size="14.00">weaver_policy_engine</text>
</g>
<!-- 7&#45;&gt;8 -->
<g id="edge10" class="edge">
<title>7&#45;&gt;8</title>
<path fill="none" stroke="black" d="M516.72,-153.38C431.97,-141.14 265.05,-117.05 165.28,-102.65"/>
<polygon fill="black" stroke="black" points="165.95,-99.21 155.55,-101.25 164.95,-106.14 165.95,-99.21"/>
</g>
<!-- 9 -->
<g id="node10" class="node">
<title>9</title>
<polygon fill="none" stroke="black" points="893.05,-108 790.05,-108 790.05,-72 893.05,-72 893.05,-108"/>
<text text-anchor="middle" x="841.55" y="-84.95" font-family="Times,serif" font-size="14.00">weaver_schema</text>
</g>
<!-- 7&#45;&gt;9 -->
<g id="edge12" class="edge">
<title>7&#45;&gt;9</title>
<path fill="none" stroke="black" d="M622.54,-148.09C662.77,-138.2 719.72,-124 778.64,-108.47"/>
<polygon fill="black" stroke="black" points="779.42,-111.89 788.19,-105.95 777.63,-105.12 779.42,-111.89"/>
</g>
<!-- 9&#45;&gt;5 -->
<g id="edge15" class="edge">
<title>9&#45;&gt;5</title>
<path fill="none" stroke="black" d="M789.74,-74.09C786.64,-73.34 783.56,-72.64 780.55,-72 679.21,-50.51 559.99,-34.8 487.37,-26.29"/>
<polygon fill="black" stroke="black" points="487.97,-22.84 477.63,-25.16 487.16,-29.79 487.97,-22.84"/>
</g>
<!-- 9&#45;&gt;6 -->
<g id="edge16" class="edge">
<title>9&#45;&gt;6</title>
<path fill="none" stroke="black" d="M794.09,-71.52C768.38,-62.04 736.4,-50.26 709.25,-40.26"/>
<polygon fill="black" stroke="black" points="710.74,-37.08 700.15,-36.9 708.32,-43.65 710.74,-37.08"/>
</g>
<!-- 10 -->
<g id="node11" class="node">
<title>10</title>
<polygon fill="none" stroke="black" points="487.92,-252 351.17,-252 351.17,-216 487.92,-216 487.92,-252"/>
<text text-anchor="middle" x="419.55" y="-228.95" font-family="Times,serif" font-size="14.00">weaver_semconv_gen</text>
</g>
<!-- 10&#45;&gt;0 -->
<g id="edge17" class="edge">
<title>10&#45;&gt;0</title>
<path fill="none" stroke="black" d="M488.29,-220.27C540.56,-209.78 607.46,-194.34 631.55,-180 650.2,-168.9 649,-159.14 664.55,-144 674.42,-134.39 685.7,-124.35 695.85,-115.62"/>
<polygon fill="black" stroke="black" points="697.91,-118.47 703.26,-109.32 693.37,-113.13 697.91,-118.47"/>
</g>
<!-- 10&#45;&gt;1 -->
<g id="edge18" class="edge">
<title>10&#45;&gt;1</title>
<path fill="none" stroke="black" d="M391.07,-215.52C376.55,-206.6 358.69,-195.63 343.05,-186.03"/>
<polygon fill="black" stroke="black" points="345.3,-183.3 334.95,-181.05 341.64,-189.27 345.3,-183.3"/>
</g>
<!-- 10&#45;&gt;3 -->
<g id="edge19" class="edge">
<title>10&#45;&gt;3</title>
<path fill="none" stroke="black" d="M408.02,-215.59C391.79,-191.08 362.08,-146.19 343.1,-117.52"/>
<polygon fill="black" stroke="black" points="346.15,-115.78 337.71,-109.37 340.31,-119.64 346.15,-115.78"/>
</g>
<!-- 10&#45;&gt;4 -->
<g id="edge20" class="edge">
<title>10&#45;&gt;4</title>
<path fill="none" stroke="black" d="M435,-215.59C457.03,-190.76 497.62,-145.01 523.01,-116.4"/>
<polygon fill="black" stroke="black" points="525.34,-119.05 529.36,-109.24 520.1,-114.4 525.34,-119.05"/>
</g>
<!-- 10&#45;&gt;5 -->
<g id="edge22" class="edge">
<title>10&#45;&gt;5</title>
<path fill="none" stroke="black" d="M419.63,-215.85C419.8,-179.14 420.2,-92.66 420.41,-47.53"/>
<polygon fill="black" stroke="black" points="423.91,-47.76 420.46,-37.75 416.91,-47.73 423.91,-47.76"/>
</g>
<!-- 10&#45;&gt;7 -->
<g id="edge21" class="edge">
<title>10&#45;&gt;7</title>
<path fill="none" stroke="black" d="M457.01,-215.52C476.68,-206.34 501,-194.99 521.98,-185.2"/>
<polygon fill="black" stroke="black" points="523.35,-188.42 530.93,-181.02 520.39,-182.08 523.35,-188.42"/>
</g>
<!-- 11 -->
<g id="node12" class="node">
<title>11</title>
<polygon fill="none" stroke="black" points="653.05,-252 544.05,-252 544.05,-216 653.05,-216 653.05,-252"/>
<text text-anchor="middle" x="598.55" y="-228.95" font-family="Times,serif" font-size="14.00">weaver_template</text>
</g>
<!-- 11&#45;&gt;0 -->
<g id="edge23" class="edge">
<title>11&#45;&gt;0</title>
<path fill="none" stroke="black" d="M623.53,-215.68C636.54,-206.01 652.26,-193.26 664.55,-180 682.09,-161.08 698.41,-136.75 709.75,-118.32"/>
<polygon fill="black" stroke="black" points="712.73,-120.16 714.89,-109.79 706.73,-116.55 712.73,-120.16"/>
</g>
<!-- 11&#45;&gt;3 -->
<g id="edge24" class="edge">
<title>11&#45;&gt;3</title>
<path fill="none" stroke="black" d="M565.07,-215.59C515.71,-189.91 423.39,-141.89 368.91,-113.55"/>
<polygon fill="black" stroke="black" points="370.7,-110.54 360.21,-109.03 367.47,-116.75 370.7,-110.54"/>
</g>
<!-- 11&#45;&gt;7 -->
<g id="edge25" class="edge">
<title>11&#45;&gt;7</title>
<path fill="none" stroke="black" d="M591.38,-215.7C588.25,-208.15 584.51,-199.12 581.01,-190.68"/>
<polygon fill="black" stroke="black" points="584.27,-189.4 577.21,-181.5 577.81,-192.08 584.27,-189.4"/>
</g>
<!-- 11&#45;&gt;9 -->
<g id="edge26" class="edge">
<title>11&#45;&gt;9</title>
<path fill="none" stroke="black" d="M629.2,-215.71C647.37,-205.42 670.82,-192.05 691.55,-180 729.53,-157.91 772.64,-132.27 802.87,-114.2"/>
<polygon fill="black" stroke="black" points="804.52,-117.29 811.3,-109.16 800.92,-111.29 804.52,-117.29"/>
</g>
<!-- 12 -->
<g id="node13" class="node">
<title>12</title>
<polygon fill="none" stroke="black" points="567.55,-324 513.55,-324 513.55,-288 567.55,-288 567.55,-324"/>
<text text-anchor="middle" x="540.55" y="-300.95" font-family="Times,serif" font-size="14.00">xtask</text>
</g>
<!-- 13 -->
<g id="node14" class="node">
<title>13</title>
<polygon fill="none" stroke="black" points="495.05,-324 440.05,-324 440.05,-288 495.05,-288 495.05,-324"/>
<text text-anchor="middle" x="467.55" y="-300.95" font-family="Times,serif" font-size="14.00">weaver</text>
</g>
<!-- 13&#45;&gt;0 -->
<g id="edge27" class="edge">
<title>13&#45;&gt;0</title>
<path fill="none" stroke="black" d="M495.15,-291.49C498.28,-290.21 501.46,-289.01 504.55,-288 580,-263.26 621.32,-305.99 679.55,-252 716.6,-217.64 724.54,-155.7 725.82,-119.48"/>
<polygon fill="black" stroke="black" points="729.32,-119.84 726.01,-109.78 722.32,-119.71 729.32,-119.84"/>
</g>
<!-- 13&#45;&gt;2 -->
<g id="edge28" class="edge">
<title>13&#45;&gt;2</title>
<path fill="none" stroke="black" d="M439.79,-295.7C408.06,-285.08 355.28,-267.4 314.84,-253.85"/>
<polygon fill="black" stroke="black" points="316.08,-250.58 305.48,-250.72 313.86,-257.22 316.08,-250.58"/>
</g>
<!-- 13&#45;&gt;3 -->
<g id="edge29" class="edge">
<title>13&#45;&gt;3</title>
<path fill="none" stroke="black" d="M439.99,-303.7C378.7,-300.18 234.12,-288.13 204.55,-252 191.36,-235.89 200.95,-161.4 213.55,-144 226.38,-126.28 246.69,-114.27 266.52,-106.23"/>
<polygon fill="black" stroke="black" points="267.56,-109.58 275.7,-102.81 265.11,-103.03 267.56,-109.58"/>
</g>
<!-- 13&#45;&gt;4 -->
<g id="edge31" class="edge">
<title>13&#45;&gt;4</title>
<path fill="none" stroke="black" d="M495.18,-291.56C498.3,-290.26 501.47,-289.05 504.55,-288 572.74,-264.84 617.63,-308.3 662.55,-252 686.33,-222.19 635.67,-148.78 631.55,-144 621.21,-132.04 607.5,-121.93 594.06,-113.85"/>
<polygon fill="black" stroke="black" points="596.11,-111 585.69,-109.08 592.65,-117.08 596.11,-111"/>
</g>
<!-- 13&#45;&gt;5 -->
<g id="edge34" class="edge">
<title>13&#45;&gt;5</title>
<path fill="none" stroke="black" d="M439.59,-305.83C382.25,-306.4 248.55,-301.77 151.55,-252 70.74,-210.54 41.45,-191.85 6.55,-108 0.4,-93.23 -4.02,-84.01 6.55,-72 29.09,-46.39 242.53,-29.78 353.79,-22.78"/>
<polygon fill="black" stroke="black" points="353.93,-26.28 363.69,-22.17 353.5,-19.29 353.93,-26.28"/>
</g>
<!-- 13&#45;&gt;7 -->
<g id="edge32" class="edge">
<title>13&#45;&gt;7</title>
<path fill="none" stroke="black" d="M480.05,-287.59C497.74,-262.97 530.18,-217.8 550.77,-189.14"/>
<polygon fill="black" stroke="black" points="553.38,-191.5 556.37,-181.34 547.7,-187.42 553.38,-191.5"/>
</g>
<!-- 13&#45;&gt;8 -->
<g id="edge30" class="edge">
<title>13&#45;&gt;8</title>
<path fill="none" stroke="black" d="M439.86,-302.31C378.82,-295.95 234.89,-278.52 194.55,-252 144.81,-219.3 111.51,-155.58 95.52,-118.87"/>
<polygon fill="black" stroke="black" points="98.81,-117.66 91.71,-109.8 92.36,-120.38 98.81,-117.66"/>
</g>
<!-- 13&#45;&gt;9 -->
<g id="edge33" class="edge">
<title>13&#45;&gt;9</title>
<path fill="none" stroke="black" d="M495.54,-291.25C498.54,-290.04 501.58,-288.93 504.55,-288 591.14,-260.84 626.94,-297.35 705.55,-252 761.89,-219.49 805.57,-154.49 827,-117.8"/>
<polygon fill="black" stroke="black" points="829.78,-119.99 831.69,-109.57 823.7,-116.52 829.78,-119.99"/>
</g>
<!-- 13&#45;&gt;10 -->
<g id="edge35" class="edge">
<title>13&#45;&gt;10</title>
<path fill="none" stroke="black" d="M455.68,-287.7C450.28,-279.81 443.75,-270.3 437.75,-261.55"/>
<polygon fill="black" stroke="black" points="440.67,-259.62 432.13,-253.35 434.9,-263.58 440.67,-259.62"/>
</g>
<!-- 13&#45;&gt;11 -->
<g id="edge36" class="edge">
<title>13&#45;&gt;11</title>
<path fill="none" stroke="black" d="M495.33,-290.15C512.98,-280.72 536.18,-268.33 556.11,-257.68"/>
<polygon fill="black" stroke="black" points="557.68,-260.81 564.85,-253.01 554.38,-254.63 557.68,-260.81"/>
</g>
</g>
</svg>
