<?xml version="1.0" encoding="UTF-8" standalone="no"?>
<!DOCTYPE svg PUBLIC "-//W3C//DTD SVG 1.1//EN"
 "http://www.w3.org/Graphics/SVG/1.1/DTD/svg11.dtd">
<!-- Generated by graphviz version 9.0.0 (20230911.1827)
 -->
<!-- Pages: 1 -->
<svg width="532pt" height="404pt"
 viewBox="0.00 0.00 531.88 404.00" xmlns="http://www.w3.org/2000/svg" xmlns:xlink="http://www.w3.org/1999/xlink">
<g id="graph0" class="graph" transform="scale(1 1) rotate(0) translate(4 400)">
<polygon fill="white" stroke="none" points="-4,4 -4,-400 527.88,-400 527.88,4 -4,4"/>
<!-- 0 -->
<g id="node1" class="node">
<title>0</title>
<polygon fill="none" stroke="black" points="92.5,-180 0,-180 0,-144 92.5,-144 92.5,-180"/>
<text text-anchor="middle" x="46.25" y="-156.95" font-family="Times,serif" font-size="14.00">weaver_cache</text>
</g>
<!-- 1 -->
<g id="node2" class="node">
<title>1</title>
<polygon fill="none" stroke="black" points="172.12,-108 68.38,-108 68.38,-72 172.12,-72 172.12,-108"/>
<text text-anchor="middle" x="120.25" y="-84.95" font-family="Times,serif" font-size="14.00">weaver_checker</text>
</g>
<!-- 2 -->
<g id="node3" class="node">
<title>2</title>
<polygon fill="none" stroke="black" points="297.5,-36 187,-36 187,0 297.5,0 297.5,-36"/>
<text text-anchor="middle" x="242.25" y="-12.95" font-family="Times,serif" font-size="14.00">weaver_common</text>
</g>
<!-- 1&#45;&gt;2 -->
<g id="edge1" class="edge">
<title>1&#45;&gt;2</title>
<path fill="none" stroke="black" d="M150.72,-71.52C166.41,-62.51 185.74,-51.42 202.58,-41.76"/>
<polygon fill="black" stroke="black" points="203.92,-45.03 210.85,-37.01 200.44,-38.95 203.92,-45.03"/>
</g>
<!-- 3 -->
<g id="node4" class="node">
<title>3</title>
<polygon fill="none" stroke="black" points="523.88,-180 442.62,-180 442.62,-144 523.88,-144 523.88,-180"/>
<text text-anchor="middle" x="483.25" y="-156.95" font-family="Times,serif" font-size="14.00">weaver_diff</text>
</g>
<!-- 4 -->
<g id="node5" class="node">
<title>4</title>
<polygon fill="none" stroke="black" points="205.38,-324 115.12,-324 115.12,-288 205.38,-288 205.38,-324"/>
<text text-anchor="middle" x="160.25" y="-300.95" font-family="Times,serif" font-size="14.00">weaver_forge</text>
</g>
<!-- 8 -->
<g id="node9" class="node">
<title>8</title>
<polygon fill="none" stroke="black" points="278.88,-252 173.62,-252 173.62,-216 278.88,-216 278.88,-252"/>
<text text-anchor="middle" x="226.25" y="-228.95" font-family="Times,serif" font-size="14.00">weaver_resolver</text>
</g>
<!-- 4&#45;&gt;8 -->
<g id="edge2" class="edge">
<title>4&#45;&gt;8</title>
<path fill="none" stroke="black" d="M176.56,-287.7C184.32,-279.47 193.74,-269.48 202.28,-260.42"/>
<polygon fill="black" stroke="black" points="204.77,-262.88 209.08,-253.21 199.68,-258.08 204.77,-262.88"/>
</g>
<!-- 5 -->
<g id="node6" class="node">
<title>5</title>
<polygon fill="none" stroke="black" points="304,-180 148.5,-180 148.5,-144 304,-144 304,-180"/>
<text text-anchor="middle" x="226.25" y="-156.95" font-family="Times,serif" font-size="14.00">weaver_resolved_schema</text>
</g>
<!-- 6 -->
<g id="node7" class="node">
<title>6</title>
<polygon fill="none" stroke="black" points="420.5,-108 310,-108 310,-72 420.5,-72 420.5,-108"/>
<text text-anchor="middle" x="365.25" y="-84.95" font-family="Times,serif" font-size="14.00">weaver_semconv</text>
</g>
<!-- 5&#45;&gt;6 -->
<g id="edge3" class="edge">
<title>5&#45;&gt;6</title>
<path fill="none" stroke="black" d="M260.97,-143.52C279.1,-134.39 301.48,-123.11 320.86,-113.35"/>
<polygon fill="black" stroke="black" points="322.27,-116.57 329.62,-108.94 319.12,-110.31 322.27,-116.57"/>
</g>
<!-- 7 -->
<g id="node8" class="node">
<title>7</title>
<polygon fill="none" stroke="black" points="292,-108 190.5,-108 190.5,-72 292,-72 292,-108"/>
<text text-anchor="middle" x="241.25" y="-84.95" font-family="Times,serif" font-size="14.00">weaver_version</text>
</g>
<!-- 5&#45;&gt;7 -->
<g id="edge4" class="edge">
<title>5&#45;&gt;7</title>
<path fill="none" stroke="black" d="M229.96,-143.7C231.54,-136.32 233.42,-127.52 235.2,-119.25"/>
<polygon fill="black" stroke="black" points="238.59,-120.1 237.27,-109.58 231.75,-118.63 238.59,-120.1"/>
</g>
<!-- 6&#45;&gt;2 -->
<g id="edge5" class="edge">
<title>6&#45;&gt;2</title>
<path fill="none" stroke="black" d="M334.53,-71.52C318.71,-62.51 299.22,-51.42 282.24,-41.76"/>
<polygon fill="black" stroke="black" points="284.32,-38.91 273.89,-37.01 280.85,-45 284.32,-38.91"/>
</g>
<!-- 8&#45;&gt;0 -->
<g id="edge6" class="edge">
<title>8&#45;&gt;0</title>
<path fill="none" stroke="black" d="M181.29,-215.52C157.15,-206.13 127.17,-194.47 101.6,-184.53"/>
<polygon fill="black" stroke="black" points="102.95,-181.29 92.36,-180.93 100.41,-187.82 102.95,-181.29"/>
</g>
<!-- 8&#45;&gt;1 -->
<g id="edge7" class="edge">
<title>8&#45;&gt;1</title>
<path fill="none" stroke="black" d="M183.27,-215.72C167.19,-207.23 150.2,-195.44 139.25,-180 126.8,-162.45 122.22,-138.39 120.66,-119.71"/>
<polygon fill="black" stroke="black" points="124.16,-119.63 120.1,-109.85 117.17,-120.03 124.16,-119.63"/>
</g>
<!-- 8&#45;&gt;3 -->
<g id="edge8" class="edge">
<title>8&#45;&gt;3</title>
<path fill="none" stroke="black" d="M279.16,-220.82C318.85,-211.4 374.7,-197.51 431.23,-180.8"/>
<polygon fill="black" stroke="black" points="432.13,-184.19 440.71,-177.97 430.13,-177.48 432.13,-184.19"/>
</g>
<!-- 8&#45;&gt;5 -->
<g id="edge9" class="edge">
<title>8&#45;&gt;5</title>
<path fill="none" stroke="black" d="M226.25,-215.7C226.25,-208.41 226.25,-199.73 226.25,-191.54"/>
<polygon fill="black" stroke="black" points="229.75,-191.62 226.25,-181.62 222.75,-191.62 229.75,-191.62"/>
</g>
<!-- 9 -->
<g id="node10" class="node">
<title>9</title>
<polygon fill="none" stroke="black" points="424.75,-180 321.75,-180 321.75,-144 424.75,-144 424.75,-180"/>
<text text-anchor="middle" x="373.25" y="-156.95" font-family="Times,serif" font-size="14.00">weaver_schema</text>
</g>
<!-- 8&#45;&gt;9 -->
<g id="edge10" class="edge">
<title>8&#45;&gt;9</title>
<path fill="none" stroke="black" d="M262.97,-215.52C282.16,-206.38 305.85,-195.09 326.36,-185.33"/>
<polygon fill="black" stroke="black" points="327.86,-188.49 335.38,-181.03 324.85,-182.17 327.86,-188.49"/>
</g>
<!-- 9&#45;&gt;6 -->
<g id="edge11" class="edge">
<title>9&#45;&gt;6</title>
<path fill="none" stroke="black" d="M371.27,-143.7C370.44,-136.41 369.45,-127.73 368.51,-119.54"/>
<polygon fill="black" stroke="black" points="371.99,-119.15 367.38,-109.61 365.03,-119.94 371.99,-119.15"/>
</g>
<!-- 9&#45;&gt;7 -->
<g id="edge12" class="edge">
<title>9&#45;&gt;7</title>
<path fill="none" stroke="black" d="M340.28,-143.52C323.22,-134.47 302.2,-123.32 283.91,-113.62"/>
<polygon fill="black" stroke="black" points="285.61,-110.56 275.14,-108.97 282.33,-116.75 285.61,-110.56"/>
</g>
<!-- 10 -->
<g id="node11" class="node">
<title>10</title>
<polygon fill="none" stroke="black" points="360.62,-324 223.88,-324 223.88,-288 360.62,-288 360.62,-324"/>
<text text-anchor="middle" x="292.25" y="-300.95" font-family="Times,serif" font-size="14.00">weaver_semconv_gen</text>
</g>
<!-- 10&#45;&gt;8 -->
<g id="edge13" class="edge">
<title>10&#45;&gt;8</title>
<path fill="none" stroke="black" d="M275.94,-287.7C268.18,-279.47 258.76,-269.48 250.22,-260.42"/>
<polygon fill="black" stroke="black" points="252.82,-258.08 243.42,-253.21 247.73,-262.88 252.82,-258.08"/>
</g>
<!-- 11 -->
<g id="node12" class="node">
<title>11</title>
<polygon fill="none" stroke="black" points="326.25,-396 272.25,-396 272.25,-360 326.25,-360 326.25,-396"/>
<text text-anchor="middle" x="299.25" y="-372.95" font-family="Times,serif" font-size="14.00">xtask</text>
</g>
<!-- 12 -->
<g id="node13" class="node">
<title>12</title>
<polygon fill="none" stroke="black" points="253.75,-396 198.75,-396 198.75,-360 253.75,-360 253.75,-396"/>
<text text-anchor="middle" x="226.25" y="-372.95" font-family="Times,serif" font-size="14.00">weaver</text>
</g>
<!-- 12&#45;&gt;4 -->
<g id="edge14" class="edge">
<title>12&#45;&gt;4</title>
<path fill="none" stroke="black" d="M209.94,-359.7C202.18,-351.47 192.76,-341.48 184.22,-332.42"/>
<polygon fill="black" stroke="black" points="186.82,-330.08 177.42,-325.21 181.73,-334.88 186.82,-330.08"/>
</g>
<!-- 12&#45;&gt;10 -->
<g id="edge15" class="edge">
<title>12&#45;&gt;10</title>
<path fill="none" stroke="black" d="M242.56,-359.7C250.32,-351.47 259.74,-341.48 268.28,-332.42"/>
<polygon fill="black" stroke="black" points="270.77,-334.88 275.08,-325.21 265.68,-330.08 270.77,-334.88"/>
</g>
</g>
</svg>
