<?xml version="1.0" encoding="UTF-8" standalone="no"?>
<!DOCTYPE svg PUBLIC "-//W3C//DTD SVG 1.1//EN"
 "http://www.w3.org/Graphics/SVG/1.1/DTD/svg11.dtd">
<!-- Generated by graphviz version 9.0.0 (20230911.1827)
 -->
<!-- Pages: 1 -->
<svg width="453pt" height="404pt"
 viewBox="0.00 0.00 452.62 404.00" xmlns="http://www.w3.org/2000/svg" xmlns:xlink="http://www.w3.org/1999/xlink">
<g id="graph0" class="graph" transform="scale(1 1) rotate(0) translate(4 400)">
<polygon fill="white" stroke="none" points="-4,4 -4,-400 448.62,-400 448.62,4 -4,4"/>
<!-- 0 -->
<g id="node1" class="node">
<title>0</title>
<polygon fill="none" stroke="black" points="172.12,-180 79.62,-180 79.62,-144 172.12,-144 172.12,-180"/>
<text text-anchor="middle" x="125.88" y="-156.95" font-family="Times,serif" font-size="14.00">weaver_cache</text>
</g>
<!-- 1 -->
<g id="node2" class="node">
<title>1</title>
<polygon fill="none" stroke="black" points="103.75,-252 0,-252 0,-216 103.75,-216 103.75,-252"/>
<text text-anchor="middle" x="51.88" y="-228.95" font-family="Times,serif" font-size="14.00">weaver_checker</text>
</g>
<!-- 2 -->
<g id="node3" class="node">
<title>2</title>
<polygon fill="none" stroke="black" points="202.12,-36 91.62,-36 91.62,0 202.12,0 202.12,-36"/>
<text text-anchor="middle" x="146.88" y="-12.95" font-family="Times,serif" font-size="14.00">weaver_common</text>
</g>
<!-- 1&#45;&gt;2 -->
<g id="edge1" class="edge">
<title>1&#45;&gt;2</title>
<path fill="none" stroke="black" d="M53.81,-215.77C56.26,-197.47 61.36,-167.93 70.88,-144 85.3,-107.7 109.83,-69.9 127.11,-45.5"/>
<polygon fill="black" stroke="black" points="129.91,-47.61 132.91,-37.45 124.23,-43.52 129.91,-47.61"/>
</g>
<!-- 3 -->
<g id="node4" class="node">
<title>3</title>
<polygon fill="none" stroke="black" points="271.5,-180 190.25,-180 190.25,-144 271.5,-144 271.5,-180"/>
<text text-anchor="middle" x="230.88" y="-156.95" font-family="Times,serif" font-size="14.00">weaver_diff</text>
</g>
<!-- 4 -->
<g id="node5" class="node">
<title>4</title>
<polygon fill="none" stroke="black" points="170,-324 79.75,-324 79.75,-288 170,-288 170,-324"/>
<text text-anchor="middle" x="124.88" y="-300.95" font-family="Times,serif" font-size="14.00">weaver_forge</text>
</g>
<!-- 8 -->
<g id="node9" class="node">
<title>8</title>
<polygon fill="none" stroke="black" points="283.5,-252 178.25,-252 178.25,-216 283.5,-216 283.5,-252"/>
<text text-anchor="middle" x="230.88" y="-228.95" font-family="Times,serif" font-size="14.00">weaver_resolver</text>
</g>
<!-- 4&#45;&gt;8 -->
<g id="edge2" class="edge">
<title>4&#45;&gt;8</title>
<path fill="none" stroke="black" d="M151.35,-287.52C164.6,-278.76 180.84,-268.04 195.17,-258.58"/>
<polygon fill="black" stroke="black" points="197.06,-261.53 203.47,-253.09 193.2,-255.68 197.06,-261.53"/>
</g>
<!-- 5 -->
<g id="node6" class="node">
<title>5</title>
<polygon fill="none" stroke="black" points="444.62,-180 289.12,-180 289.12,-144 444.62,-144 444.62,-180"/>
<text text-anchor="middle" x="366.88" y="-156.95" font-family="Times,serif" font-size="14.00">weaver_resolved_schema</text>
</g>
<!-- 6 -->
<g id="node7" class="node">
<title>6</title>
<polygon fill="none" stroke="black" points="250.12,-108 139.62,-108 139.62,-72 250.12,-72 250.12,-108"/>
<text text-anchor="middle" x="194.88" y="-84.95" font-family="Times,serif" font-size="14.00">weaver_semconv</text>
</g>
<!-- 5&#45;&gt;6 -->
<g id="edge3" class="edge">
<title>5&#45;&gt;6</title>
<path fill="none" stroke="black" d="M323.92,-143.52C300.95,-134.17 272.46,-122.57 248.1,-112.66"/>
<polygon fill="black" stroke="black" points="249.57,-109.48 238.99,-108.95 246.93,-115.96 249.57,-109.48"/>
</g>
<!-- 7 -->
<g id="node8" class="node">
<title>7</title>
<polygon fill="none" stroke="black" points="417.62,-108 316.12,-108 316.12,-72 417.62,-72 417.62,-108"/>
<text text-anchor="middle" x="366.88" y="-84.95" font-family="Times,serif" font-size="14.00">weaver_version</text>
</g>
<!-- 5&#45;&gt;7 -->
<g id="edge4" class="edge">
<title>5&#45;&gt;7</title>
<path fill="none" stroke="black" d="M366.88,-143.7C366.88,-136.41 366.88,-127.73 366.88,-119.54"/>
<polygon fill="black" stroke="black" points="370.38,-119.62 366.88,-109.62 363.38,-119.62 370.38,-119.62"/>
</g>
<!-- 6&#45;&gt;2 -->
<g id="edge5" class="edge">
<title>6&#45;&gt;2</title>
<path fill="none" stroke="black" d="M183.01,-71.7C177.6,-63.81 171.08,-54.3 165.08,-45.55"/>
<polygon fill="black" stroke="black" points="168,-43.62 159.46,-37.35 162.23,-47.58 168,-43.62"/>
</g>
<!-- 8&#45;&gt;0 -->
<g id="edge6" class="edge">
<title>8&#45;&gt;0</title>
<path fill="none" stroke="black" d="M204.65,-215.52C191.52,-206.76 175.44,-196.04 161.24,-186.58"/>
<polygon fill="black" stroke="black" points="163.29,-183.73 153.03,-181.1 159.4,-189.56 163.29,-183.73"/>
</g>
<!-- 8&#45;&gt;3 -->
<g id="edge7" class="edge">
<title>8&#45;&gt;3</title>
<path fill="none" stroke="black" d="M230.88,-215.7C230.88,-208.41 230.88,-199.73 230.88,-191.54"/>
<polygon fill="black" stroke="black" points="234.38,-191.62 230.88,-181.62 227.38,-191.62 234.38,-191.62"/>
</g>
<!-- 8&#45;&gt;5 -->
<g id="edge8" class="edge">
<title>8&#45;&gt;5</title>
<path fill="none" stroke="black" d="M264.84,-215.52C282.5,-206.43 304.28,-195.22 323.18,-185.49"/>
<polygon fill="black" stroke="black" points="324.7,-188.64 331.99,-180.95 321.5,-182.42 324.7,-188.64"/>
</g>
<!-- 9 -->
<g id="node10" class="node">
<title>9</title>
<polygon fill="none" stroke="black" points="325.25,-324 188.5,-324 188.5,-288 325.25,-288 325.25,-324"/>
<text text-anchor="middle" x="256.88" y="-300.95" font-family="Times,serif" font-size="14.00">weaver_semconv_gen</text>
</g>
<!-- 9&#45;&gt;8 -->
<g id="edge9" class="edge">
<title>9&#45;&gt;8</title>
<path fill="none" stroke="black" d="M250.45,-287.7C247.65,-280.15 244.29,-271.12 241.16,-262.68"/>
<polygon fill="black" stroke="black" points="244.52,-261.68 237.76,-253.52 237.96,-264.12 244.52,-261.68"/>
</g>
<!-- 10 -->
<g id="node11" class="node">
<title>10</title>
<polygon fill="none" stroke="black" points="224.88,-396 170.88,-396 170.88,-360 224.88,-360 224.88,-396"/>
<text text-anchor="middle" x="197.88" y="-372.95" font-family="Times,serif" font-size="14.00">xtask</text>
</g>
<!-- 11 -->
<g id="node12" class="node">
<title>11</title>
<polygon fill="none" stroke="black" points="152.38,-396 97.38,-396 97.38,-360 152.38,-360 152.38,-396"/>
<text text-anchor="middle" x="124.88" y="-372.95" font-family="Times,serif" font-size="14.00">weaver</text>
</g>
<!-- 11&#45;&gt;1 -->
<g id="edge10" class="edge">
<title>11&#45;&gt;1</title>
<path fill="none" stroke="black" d="M101.78,-359.72C90.81,-350.32 78.47,-337.81 70.88,-324 60.69,-305.46 55.96,-281.97 53.77,-263.78"/>
<polygon fill="black" stroke="black" points="57.26,-263.53 52.79,-253.93 50.29,-264.23 57.26,-263.53"/>
</g>
<!-- 11&#45;&gt;4 -->
<g id="edge11" class="edge">
<title>11&#45;&gt;4</title>
<path fill="none" stroke="black" d="M124.88,-359.7C124.88,-352.41 124.88,-343.73 124.88,-335.54"/>
<polygon fill="black" stroke="black" points="128.38,-335.62 124.88,-325.62 121.38,-335.62 128.38,-335.62"/>
</g>
<!-- 11&#45;&gt;9 -->
<g id="edge12" class="edge">
<title>11&#45;&gt;9</title>
<path fill="none" stroke="black" d="M152.87,-362.15C170.66,-352.72 194.03,-340.33 214.11,-329.68"/>
<polygon fill="black" stroke="black" points="215.73,-332.78 222.93,-325 212.46,-326.59 215.73,-332.78"/>
</g>
</g>
</svg>
