<?xml version="1.0" encoding="UTF-8" standalone="no"?>
<!DOCTYPE svg PUBLIC "-//W3C//DTD SVG 1.1//EN"
 "http://www.w3.org/Graphics/SVG/1.1/DTD/svg11.dtd">
<!-- Generated by graphviz version 9.0.0 (20230911.1827)
 -->
<!-- Pages: 1 -->
<svg width="641pt" height="332pt"
 viewBox="0.00 0.00 640.61 332.00" xmlns="http://www.w3.org/2000/svg" xmlns:xlink="http://www.w3.org/1999/xlink">
<g id="graph0" class="graph" transform="scale(1 1) rotate(0) translate(4 328)">
<polygon fill="white" stroke="none" points="-4,4 -4,-328 636.61,-328 636.61,4 -4,4"/>
<!-- 0 -->
<g id="node1" class="node">
<title>0</title>
<polygon fill="none" stroke="black" points="92.5,-108 0,-108 0,-72 92.5,-72 92.5,-108"/>
<text text-anchor="middle" x="46.25" y="-84.95" font-family="Times,serif" font-size="14.00">weaver_cache</text>
</g>
<!-- 1 -->
<g id="node2" class="node">
<title>1</title>
<polygon fill="none" stroke="black" points="538.38,-252 448.12,-252 448.12,-216 538.38,-216 538.38,-252"/>
<text text-anchor="middle" x="493.25" y="-228.95" font-family="Times,serif" font-size="14.00">weaver_forge</text>
</g>
<!-- 2 -->
<g id="node3" class="node">
<title>2</title>
<polygon fill="none" stroke="black" points="578.38,-108 482.12,-108 482.12,-72 578.38,-72 578.38,-108"/>
<text text-anchor="middle" x="530.25" y="-84.95" font-family="Times,serif" font-size="14.00">weaver_logger</text>
</g>
<!-- 1&#45;&gt;2 -->
<g id="edge1" class="edge">
<title>1&#45;&gt;2</title>
<path fill="none" stroke="black" d="M497.79,-215.59C504.06,-191.5 515.46,-147.75 522.95,-119.03"/>
<polygon fill="black" stroke="black" points="526.28,-120.13 525.41,-109.58 519.5,-118.37 526.28,-120.13"/>
</g>
<!-- 3 -->
<g id="node4" class="node">
<title>3</title>
<polygon fill="none" stroke="black" points="464,-108 308.5,-108 308.5,-72 464,-72 464,-108"/>
<text text-anchor="middle" x="386.25" y="-84.95" font-family="Times,serif" font-size="14.00">weaver_resolved_schema</text>
</g>
<!-- 1&#45;&gt;3 -->
<g id="edge2" class="edge">
<title>1&#45;&gt;3</title>
<path fill="none" stroke="black" d="M480.13,-215.59C461.58,-190.97 427.54,-145.8 405.95,-117.14"/>
<polygon fill="black" stroke="black" points="408.87,-115.2 400.05,-109.32 403.28,-119.41 408.87,-115.2"/>
</g>
<!-- 4 -->
<g id="node5" class="node">
<title>4</title>
<polygon fill="none" stroke="black" points="441.5,-36 331,-36 331,0 441.5,0 441.5,-36"/>
<text text-anchor="middle" x="386.25" y="-12.95" font-family="Times,serif" font-size="14.00">weaver_semconv</text>
</g>
<!-- 1&#45;&gt;4 -->
<g id="edge4" class="edge">
<title>1&#45;&gt;4</title>
<path fill="none" stroke="black" d="M516.87,-215.65C555.56,-185.12 624.59,-120.46 587.25,-72 570.78,-50.63 504.98,-36.14 453.09,-27.79"/>
<polygon fill="black" stroke="black" points="453.83,-24.36 443.41,-26.28 452.75,-31.28 453.83,-24.36"/>
</g>
<!-- 6 -->
<g id="node7" class="node">
<title>6</title>
<polygon fill="none" stroke="black" points="344.88,-180 239.62,-180 239.62,-144 344.88,-144 344.88,-180"/>
<text text-anchor="middle" x="292.25" y="-156.95" font-family="Times,serif" font-size="14.00">weaver_resolver</text>
</g>
<!-- 1&#45;&gt;6 -->
<g id="edge3" class="edge">
<title>1&#45;&gt;6</title>
<path fill="none" stroke="black" d="M447.64,-217.12C419.56,-207.34 383.24,-194.69 352.77,-184.08"/>
<polygon fill="black" stroke="black" points="354.28,-180.9 343.69,-180.91 351.98,-187.51 354.28,-180.9"/>
</g>
<!-- 3&#45;&gt;4 -->
<g id="edge5" class="edge">
<title>3&#45;&gt;4</title>
<path fill="none" stroke="black" d="M386.25,-71.7C386.25,-64.41 386.25,-55.73 386.25,-47.54"/>
<polygon fill="black" stroke="black" points="389.75,-47.62 386.25,-37.62 382.75,-47.62 389.75,-47.62"/>
</g>
<!-- 5 -->
<g id="node6" class="node">
<title>5</title>
<polygon fill="none" stroke="black" points="293,-36 191.5,-36 191.5,0 293,0 293,-36"/>
<text text-anchor="middle" x="242.25" y="-12.95" font-family="Times,serif" font-size="14.00">weaver_version</text>
</g>
<!-- 3&#45;&gt;5 -->
<g id="edge6" class="edge">
<title>3&#45;&gt;5</title>
<path fill="none" stroke="black" d="M350.28,-71.52C331.41,-62.34 308.1,-51.01 287.96,-41.22"/>
<polygon fill="black" stroke="black" points="289.64,-38.15 279.12,-36.92 286.58,-44.44 289.64,-38.15"/>
</g>
<!-- 6&#45;&gt;0 -->
<g id="edge7" class="edge">
<title>6&#45;&gt;0</title>
<path fill="none" stroke="black" d="M239.44,-146.79C203.58,-137.04 154.81,-123.59 103.68,-108.67"/>
<polygon fill="black" stroke="black" points="104.77,-105.35 94.18,-105.9 102.8,-112.06 104.77,-105.35"/>
</g>
<!-- 6&#45;&gt;2 -->
<g id="edge8" class="edge">
<title>6&#45;&gt;2</title>
<path fill="none" stroke="black" d="M345.33,-145.53C378.88,-135.74 423.43,-122.7 470.92,-108.68"/>
<polygon fill="black" stroke="black" points="471.69,-112.1 480.29,-105.91 469.71,-105.39 471.69,-112.1"/>
</g>
<!-- 6&#45;&gt;3 -->
<g id="edge9" class="edge">
<title>6&#45;&gt;3</title>
<path fill="none" stroke="black" d="M315.49,-143.7C327.12,-135.03 341.4,-124.4 354.07,-114.96"/>
<polygon fill="black" stroke="black" points="355.81,-118.03 361.74,-109.25 351.63,-112.42 355.81,-118.03"/>
</g>
<!-- 6&#45;&gt;4 -->
<g id="edge11" class="edge">
<title>6&#45;&gt;4</title>
<path fill="none" stroke="black" d="M289.2,-143.52C286.82,-124.46 285.86,-93.79 299.25,-72 306.85,-59.63 318.52,-49.75 330.86,-42.03"/>
<polygon fill="black" stroke="black" points="332.61,-45.06 339.53,-37.05 329.12,-38.99 332.61,-45.06"/>
</g>
<!-- 6&#45;&gt;5 -->
<g id="edge12" class="edge">
<title>6&#45;&gt;5</title>
<path fill="none" stroke="black" d="M282.71,-143.71C277.37,-133.53 270.87,-120.28 266.25,-108 258.8,-88.19 252.64,-65.09 248.43,-47.39"/>
<polygon fill="black" stroke="black" points="251.89,-46.81 246.23,-37.85 245.06,-48.38 251.89,-46.81"/>
</g>
<!-- 7 -->
<g id="node8" class="node">
<title>7</title>
<polygon fill="none" stroke="black" points="213.75,-108 110.75,-108 110.75,-72 213.75,-72 213.75,-108"/>
<text text-anchor="middle" x="162.25" y="-84.95" font-family="Times,serif" font-size="14.00">weaver_schema</text>
</g>
<!-- 6&#45;&gt;7 -->
<g id="edge10" class="edge">
<title>6&#45;&gt;7</title>
<path fill="none" stroke="black" d="M259.78,-143.52C242.98,-134.47 222.27,-123.32 204.27,-113.62"/>
<polygon fill="black" stroke="black" points="206.1,-110.64 195.64,-108.98 202.78,-116.8 206.1,-110.64"/>
</g>
<!-- 7&#45;&gt;4 -->
<g id="edge13" class="edge">
<title>7&#45;&gt;4</title>
<path fill="none" stroke="black" d="M214.2,-72.76C245.69,-62.92 286.17,-50.28 319.95,-39.72"/>
<polygon fill="black" stroke="black" points="320.72,-43.15 329.22,-36.82 318.63,-36.46 320.72,-43.15"/>
</g>
<!-- 7&#45;&gt;5 -->
<g id="edge14" class="edge">
<title>7&#45;&gt;5</title>
<path fill="none" stroke="black" d="M182.03,-71.7C191.64,-63.28 203.37,-53.02 213.92,-43.79"/>
<polygon fill="black" stroke="black" points="216.06,-46.56 221.29,-37.34 211.46,-41.29 216.06,-46.56"/>
</g>
<!-- 8 -->
<g id="node9" class="node">
<title>8</title>
<polygon fill="none" stroke="black" points="272.75,-252 163.75,-252 163.75,-216 272.75,-216 272.75,-252"/>
<text text-anchor="middle" x="218.25" y="-228.95" font-family="Times,serif" font-size="14.00">weaver_template</text>
</g>
<!-- 8&#45;&gt;0 -->
<g id="edge15" class="edge">
<title>8&#45;&gt;0</title>
<path fill="none" stroke="black" d="M197.16,-215.59C166.77,-190.5 110.54,-144.08 75.96,-115.53"/>
<polygon fill="black" stroke="black" points="78.35,-112.96 68.41,-109.3 73.89,-118.36 78.35,-112.96"/>
</g>
<!-- 8&#45;&gt;2 -->
<g id="edge16" class="edge">
<title>8&#45;&gt;2</title>
<path fill="none" stroke="black" d="M266.23,-215.59C292.49,-205.75 325.44,-192.86 354.25,-180 400.92,-159.16 453,-132.37 488.32,-113.65"/>
<polygon fill="black" stroke="black" points="489.74,-116.85 496.93,-109.06 486.46,-110.67 489.74,-116.85"/>
</g>
<!-- 8&#45;&gt;6 -->
<g id="edge17" class="edge">
<title>8&#45;&gt;6</title>
<path fill="none" stroke="black" d="M236.54,-215.7C245.35,-207.37 256.07,-197.22 265.75,-188.07"/>
<polygon fill="black" stroke="black" points="267.95,-190.8 272.81,-181.39 263.14,-185.72 267.95,-190.8"/>
</g>
<!-- 8&#45;&gt;7 -->
<g id="edge18" class="edge">
<title>8&#45;&gt;7</title>
<path fill="none" stroke="black" d="M212.84,-215.74C207.03,-197.66 197.28,-168.54 187.25,-144 183.86,-135.71 179.85,-126.86 176.04,-118.81"/>
<polygon fill="black" stroke="black" points="179.21,-117.31 171.71,-109.82 172.9,-120.35 179.21,-117.31"/>
</g>
<!-- 9 -->
<g id="node10" class="node">
<title>9</title>
<polygon fill="none" stroke="black" points="286.75,-324 231.75,-324 231.75,-288 286.75,-288 286.75,-324"/>
<text text-anchor="middle" x="259.25" y="-300.95" font-family="Times,serif" font-size="14.00">weaver</text>
</g>
<!-- 9&#45;&gt;0 -->
<g id="edge19" class="edge">
<title>9&#45;&gt;0</title>
<path fill="none" stroke="black" d="M231.48,-298.3C204.97,-290.74 165.2,-276.22 138.25,-252 96.77,-214.71 69.3,-154.16 55.87,-118.9"/>
<polygon fill="black" stroke="black" points="59.27,-118 52.53,-109.83 52.7,-120.42 59.27,-118"/>
</g>
<!-- 9&#45;&gt;2 -->
<g id="edge20" class="edge">
<title>9&#45;&gt;2</title>
<path fill="none" stroke="black" d="M286.93,-304.22C352.48,-301.75 514.23,-291.65 547.25,-252 578.55,-214.42 559.45,-153.55 544,-118.41"/>
<polygon fill="black" stroke="black" points="547.38,-117.37 540.01,-109.76 541.02,-120.3 547.38,-117.37"/>
</g>
<!-- 9&#45;&gt;4 -->
<g id="edge23" class="edge">
<title>9&#45;&gt;4</title>
<path fill="none" stroke="black" d="M287.25,-303.97C355.4,-300.89 527.3,-289.49 568.25,-252 628.56,-196.79 656.84,-136.23 606.25,-72 587.39,-48.06 510.58,-33.67 452.99,-26.05"/>
<polygon fill="black" stroke="black" points="453.62,-22.6 443.25,-24.8 452.73,-29.54 453.62,-22.6"/>
</g>
<!-- 9&#45;&gt;6 -->
<g id="edge21" class="edge">
<title>9&#45;&gt;6</title>
<path fill="none" stroke="black" d="M268.27,-287.8C273.19,-277.66 278.94,-264.41 282.25,-252 287.52,-232.23 290.02,-209.26 291.2,-191.61"/>
<polygon fill="black" stroke="black" points="294.68,-192.03 291.74,-181.85 287.69,-191.64 294.68,-192.03"/>
</g>
<!-- 9&#45;&gt;7 -->
<g id="edge22" class="edge">
<title>9&#45;&gt;7</title>
<path fill="none" stroke="black" d="M231.6,-299.4C206.77,-292.74 171.77,-278.96 155.25,-252 130.17,-211.06 141.86,-152.67 152.29,-118.61"/>
<polygon fill="black" stroke="black" points="155.49,-120.09 155.26,-109.49 148.83,-117.92 155.49,-120.09"/>
</g>
<!-- 9&#45;&gt;8 -->
<g id="edge24" class="edge">
<title>9&#45;&gt;8</title>
<path fill="none" stroke="black" d="M249.12,-287.7C244.55,-279.9 239.05,-270.51 233.96,-261.83"/>
<polygon fill="black" stroke="black" points="237.11,-260.27 229.03,-253.41 231.07,-263.81 237.11,-260.27"/>
</g>
</g>
</svg>
