<?xml version="1.0" encoding="UTF-8" standalone="no"?>
<!DOCTYPE svg PUBLIC "-//W3C//DTD SVG 1.1//EN"
 "http://www.w3.org/Graphics/SVG/1.1/DTD/svg11.dtd">
<!-- Generated by graphviz version 9.0.0 (20230911.1827)
 -->
<!-- Pages: 1 -->
<svg width="652pt" height="332pt"
 viewBox="0.00 0.00 651.84 332.00" xmlns="http://www.w3.org/2000/svg" xmlns:xlink="http://www.w3.org/1999/xlink">
<g id="graph0" class="graph" transform="scale(1 1) rotate(0) translate(4 328)">
<polygon fill="white" stroke="none" points="-4,4 -4,-328 647.84,-328 647.84,4 -4,4"/>
<!-- 0 -->
<g id="node1" class="node">
<title>0</title>
<polygon fill="none" stroke="black" points="522.59,-108 430.09,-108 430.09,-72 522.59,-72 522.59,-108"/>
<text text-anchor="middle" x="476.34" y="-84.95" font-family="Times,serif" font-size="14.00">weaver_cache</text>
</g>
<!-- 1 -->
<g id="node2" class="node">
<title>1</title>
<polygon fill="none" stroke="black" points="188.47,-252 98.22,-252 98.22,-216 188.47,-216 188.47,-252"/>
<text text-anchor="middle" x="143.34" y="-228.95" font-family="Times,serif" font-size="14.00">weaver_forge</text>
</g>
<!-- 2 -->
<g id="node3" class="node">
<title>2</title>
<polygon fill="none" stroke="black" points="298.47,-108 202.22,-108 202.22,-72 298.47,-72 298.47,-108"/>
<text text-anchor="middle" x="250.34" y="-84.95" font-family="Times,serif" font-size="14.00">weaver_logger</text>
</g>
<!-- 1&#45;&gt;2 -->
<g id="edge1" class="edge">
<title>1&#45;&gt;2</title>
<path fill="none" stroke="black" d="M156.46,-215.59C175.01,-190.97 209.05,-145.8 230.64,-117.14"/>
<polygon fill="black" stroke="black" points="233.32,-119.41 236.54,-109.32 227.73,-115.2 233.32,-119.41"/>
</g>
<!-- 3 -->
<g id="node4" class="node">
<title>3</title>
<polygon fill="none" stroke="black" points="184.09,-108 28.59,-108 28.59,-72 184.09,-72 184.09,-108"/>
<text text-anchor="middle" x="106.34" y="-84.95" font-family="Times,serif" font-size="14.00">weaver_resolved_schema</text>
</g>
<!-- 1&#45;&gt;3 -->
<g id="edge2" class="edge">
<title>1&#45;&gt;3</title>
<path fill="none" stroke="black" d="M138.81,-215.59C132.53,-191.5 121.13,-147.75 113.65,-119.03"/>
<polygon fill="black" stroke="black" points="117.09,-118.37 111.18,-109.58 110.32,-120.13 117.09,-118.37"/>
</g>
<!-- 4 -->
<g id="node5" class="node">
<title>4</title>
<polygon fill="none" stroke="black" points="247.59,-36 137.09,-36 137.09,0 247.59,0 247.59,-36"/>
<text text-anchor="middle" x="192.34" y="-12.95" font-family="Times,serif" font-size="14.00">weaver_semconv</text>
</g>
<!-- 1&#45;&gt;4 -->
<g id="edge4" class="edge">
<title>1&#45;&gt;4</title>
<path fill="none" stroke="black" d="M112.24,-215.54C63.91,-186.17 -19.78,-124.9 19.34,-72 43.74,-39.01 88.27,-25.89 126.04,-20.95"/>
<polygon fill="black" stroke="black" points="125.96,-24.48 135.5,-19.88 125.17,-17.52 125.96,-24.48"/>
</g>
<!-- 6 -->
<g id="node7" class="node">
<title>6</title>
<polygon fill="none" stroke="black" points="416.97,-180 311.72,-180 311.72,-144 416.97,-144 416.97,-180"/>
<text text-anchor="middle" x="364.34" y="-156.95" font-family="Times,serif" font-size="14.00">weaver_resolver</text>
</g>
<!-- 1&#45;&gt;6 -->
<g id="edge3" class="edge">
<title>1&#45;&gt;6</title>
<path fill="none" stroke="black" d="M188.87,-218.58C221.16,-208.35 264.93,-194.49 300.68,-183.16"/>
<polygon fill="black" stroke="black" points="301.58,-186.55 310.05,-180.2 299.46,-179.88 301.58,-186.55"/>
</g>
<!-- 3&#45;&gt;4 -->
<g id="edge5" class="edge">
<title>3&#45;&gt;4</title>
<path fill="none" stroke="black" d="M127.6,-71.7C138.04,-63.2 150.8,-52.81 162.23,-43.51"/>
<polygon fill="black" stroke="black" points="164.31,-46.33 169.86,-37.3 159.89,-40.9 164.31,-46.33"/>
</g>
<!-- 5 -->
<g id="node6" class="node">
<title>5</title>
<polygon fill="none" stroke="black" points="453.09,-36 351.59,-36 351.59,0 453.09,0 453.09,-36"/>
<text text-anchor="middle" x="402.34" y="-12.95" font-family="Times,serif" font-size="14.00">weaver_version</text>
</g>
<!-- 3&#45;&gt;5 -->
<g id="edge6" class="edge">
<title>3&#45;&gt;5</title>
<path fill="none" stroke="black" d="M180.27,-71.52C229.47,-59.88 293.38,-44.77 340,-33.74"/>
<polygon fill="black" stroke="black" points="340.76,-37.16 349.69,-31.45 339.15,-30.35 340.76,-37.16"/>
</g>
<!-- 6&#45;&gt;0 -->
<g id="edge7" class="edge">
<title>6&#45;&gt;0</title>
<path fill="none" stroke="black" d="M392.32,-143.52C406.45,-134.68 423.8,-123.84 439.06,-114.3"/>
<polygon fill="black" stroke="black" points="440.82,-117.33 447.44,-109.06 437.11,-111.39 440.82,-117.33"/>
</g>
<!-- 6&#45;&gt;2 -->
<g id="edge8" class="edge">
<title>6&#45;&gt;2</title>
<path fill="none" stroke="black" d="M335.87,-143.52C321.34,-134.6 303.48,-123.63 287.85,-114.03"/>
<polygon fill="black" stroke="black" points="290.1,-111.3 279.74,-109.05 286.43,-117.27 290.1,-111.3"/>
</g>
<!-- 6&#45;&gt;3 -->
<g id="edge9" class="edge">
<title>6&#45;&gt;3</title>
<path fill="none" stroke="black" d="M311.51,-146.67C274.02,-136.49 223.17,-122.7 181.47,-111.38"/>
<polygon fill="black" stroke="black" points="182.55,-108.05 171.98,-108.81 180.72,-114.81 182.55,-108.05"/>
</g>
<!-- 6&#45;&gt;4 -->
<g id="edge11" class="edge">
<title>6&#45;&gt;4</title>
<path fill="none" stroke="black" d="M364.25,-143.69C363.21,-123.91 358.57,-91.76 340.34,-72 319.27,-49.16 287.65,-36.15 259.05,-28.75"/>
<polygon fill="black" stroke="black" points="259.86,-25.34 249.32,-26.43 258.24,-32.15 259.86,-25.34"/>
</g>
<!-- 6&#45;&gt;5 -->
<g id="edge12" class="edge">
<title>6&#45;&gt;5</title>
<path fill="none" stroke="black" d="M369,-143.59C375.45,-119.5 387.16,-75.75 394.84,-47.03"/>
<polygon fill="black" stroke="black" points="398.17,-48.14 397.37,-37.57 391.41,-46.33 398.17,-48.14"/>
</g>
<!-- 7 -->
<g id="node8" class="node">
<title>7</title>
<polygon fill="none" stroke="black" points="643.84,-108 540.84,-108 540.84,-72 643.84,-72 643.84,-108"/>
<text text-anchor="middle" x="592.34" y="-84.95" font-family="Times,serif" font-size="14.00">weaver_schema</text>
</g>
<!-- 6&#45;&gt;7 -->
<g id="edge10" class="edge">
<title>6&#45;&gt;7</title>
<path fill="none" stroke="black" d="M417.22,-144.76C450.84,-134.44 494.53,-121.03 529.86,-110.18"/>
<polygon fill="black" stroke="black" points="530.56,-113.63 539.09,-107.35 528.5,-106.94 530.56,-113.63"/>
</g>
<!-- 7&#45;&gt;4 -->
<g id="edge13" class="edge">
<title>7&#45;&gt;4</title>
<path fill="none" stroke="black" d="M540.53,-74.12C537.43,-73.36 534.35,-72.65 531.34,-72 437.59,-51.68 327.65,-35.95 258.98,-27.08"/>
<polygon fill="black" stroke="black" points="259.77,-23.65 249.41,-25.85 258.88,-30.6 259.77,-23.65"/>
</g>
<!-- 7&#45;&gt;5 -->
<g id="edge14" class="edge">
<title>7&#45;&gt;5</title>
<path fill="none" stroke="black" d="M544.89,-71.52C519.17,-62.04 487.2,-50.26 460.05,-40.26"/>
<polygon fill="black" stroke="black" points="461.54,-37.08 450.94,-36.9 459.12,-43.65 461.54,-37.08"/>
</g>
<!-- 8 -->
<g id="node9" class="node">
<title>8</title>
<polygon fill="none" stroke="black" points="343.72,-252 206.97,-252 206.97,-216 343.72,-216 343.72,-252"/>
<text text-anchor="middle" x="275.34" y="-228.95" font-family="Times,serif" font-size="14.00">weaver_semconv_gen</text>
</g>
<!-- 8&#45;&gt;0 -->
<g id="edge15" class="edge">
<title>8&#45;&gt;0</title>
<path fill="none" stroke="black" d="M344.2,-220.01C372.05,-212.08 403.04,-199.56 426.34,-180 445.52,-163.9 458.76,-138.47 466.77,-118.9"/>
<polygon fill="black" stroke="black" points="470.03,-120.18 470.35,-109.59 463.5,-117.67 470.03,-120.18"/>
</g>
<!-- 8&#45;&gt;2 -->
<g id="edge16" class="edge">
<title>8&#45;&gt;2</title>
<path fill="none" stroke="black" d="M272.28,-215.59C268.06,-191.61 260.4,-148.14 255.35,-119.42"/>
<polygon fill="black" stroke="black" points="258.8,-118.84 253.62,-109.6 251.9,-120.06 258.8,-118.84"/>
</g>
<!-- 8&#45;&gt;3 -->
<g id="edge17" class="edge">
<title>8&#45;&gt;3</title>
<path fill="none" stroke="black" d="M254.62,-215.59C224.76,-190.5 169.51,-144.08 135.54,-115.53"/>
<polygon fill="black" stroke="black" points="138.04,-113.06 128.13,-109.31 133.53,-118.42 138.04,-113.06"/>
</g>
<!-- 8&#45;&gt;4 -->
<g id="edge19" class="edge">
<title>8&#45;&gt;4</title>
<path fill="none" stroke="black" d="M281.19,-215.87C288.99,-192.04 302.39,-147.34 307.34,-108 309.34,-92.13 315.97,-85.47 307.34,-72 296.14,-54.5 277.54,-42.7 258.53,-34.78"/>
<polygon fill="black" stroke="black" points="259.97,-31.58 249.38,-31.3 257.48,-38.12 259.97,-31.58"/>
</g>
<!-- 8&#45;&gt;6 -->
<g id="edge18" class="edge">
<title>8&#45;&gt;6</title>
<path fill="none" stroke="black" d="M297.34,-215.7C308.25,-207.11 321.61,-196.61 333.53,-187.24"/>
<polygon fill="black" stroke="black" points="335.4,-190.22 341.1,-181.28 331.07,-184.71 335.4,-190.22"/>
</g>
<!-- 9 -->
<g id="node10" class="node">
<title>9</title>
<polygon fill="none" stroke="black" points="537.84,-252 428.84,-252 428.84,-216 537.84,-216 537.84,-252"/>
<text text-anchor="middle" x="483.34" y="-228.95" font-family="Times,serif" font-size="14.00">weaver_template</text>
</g>
<!-- 9&#45;&gt;0 -->
<g id="edge20" class="edge">
<title>9&#45;&gt;0</title>
<path fill="none" stroke="black" d="M489.65,-215.55C495.31,-197.56 502.06,-168.74 497.34,-144 495.73,-135.54 492.79,-126.71 489.6,-118.74"/>
<polygon fill="black" stroke="black" points="492.82,-117.36 485.66,-109.56 486.39,-120.13 492.82,-117.36"/>
</g>
<!-- 9&#45;&gt;2 -->
<g id="edge21" class="edge">
<title>9&#45;&gt;2</title>
<path fill="none" stroke="black" d="M476.64,-215.62C468,-195.49 451.09,-162.69 426.34,-144 392.53,-118.47 346.46,-105.16 309.93,-98.27"/>
<polygon fill="black" stroke="black" points="310.87,-94.88 300.41,-96.59 309.65,-101.78 310.87,-94.88"/>
</g>
<!-- 9&#45;&gt;6 -->
<g id="edge22" class="edge">
<title>9&#45;&gt;6</title>
<path fill="none" stroke="black" d="M453.62,-215.52C438.46,-206.6 419.81,-195.63 403.5,-186.03"/>
<polygon fill="black" stroke="black" points="405.38,-183.08 394.99,-181.03 401.84,-189.11 405.38,-183.08"/>
</g>
<!-- 9&#45;&gt;7 -->
<g id="edge23" class="edge">
<title>9&#45;&gt;7</title>
<path fill="none" stroke="black" d="M496.71,-215.59C515.61,-190.97 550.28,-145.8 572.28,-117.14"/>
<polygon fill="black" stroke="black" points="574.97,-119.38 578.29,-109.31 569.42,-115.11 574.97,-119.38"/>
</g>
<!-- 10 -->
<g id="node11" class="node">
<title>10</title>
<polygon fill="none" stroke="black" points="375.34,-324 321.34,-324 321.34,-288 375.34,-288 375.34,-324"/>
<text text-anchor="middle" x="348.34" y="-300.95" font-family="Times,serif" font-size="14.00">xtask</text>
</g>
<!-- 11 -->
<g id="node12" class="node">
<title>11</title>
<polygon fill="none" stroke="black" points="302.84,-324 247.84,-324 247.84,-288 302.84,-288 302.84,-324"/>
<text text-anchor="middle" x="275.34" y="-300.95" font-family="Times,serif" font-size="14.00">weaver</text>
</g>
<!-- 11&#45;&gt;0 -->
<g id="edge24" class="edge">
<title>11&#45;&gt;0</title>
<path fill="none" stroke="black" d="M303.31,-291.17C306.32,-289.98 309.36,-288.89 312.34,-288 362.95,-272.82 512.93,-292.09 547.34,-252 582.38,-211.19 535.63,-150.35 503.03,-116.34"/>
<polygon fill="black" stroke="black" points="505.68,-114.05 496.16,-109.38 500.69,-118.96 505.68,-114.05"/>
</g>
<!-- 11&#45;&gt;1 -->
<g id="edge25" class="edge">
<title>11&#45;&gt;1</title>
<path fill="none" stroke="black" d="M247.35,-290.15C229.56,-280.72 206.19,-268.33 186.11,-257.68"/>
<polygon fill="black" stroke="black" points="187.76,-254.59 177.29,-253 184.48,-260.78 187.76,-254.59"/>
</g>
<!-- 11&#45;&gt;2 -->
<g id="edge26" class="edge">
<title>11&#45;&gt;2</title>
<path fill="none" stroke="black" d="M247.34,-301.16C200.24,-294.06 108.41,-277.26 89.34,-252 48.03,-197.27 136.63,-142.79 198.05,-113.35"/>
<polygon fill="black" stroke="black" points="199.46,-116.55 207.03,-109.14 196.49,-110.21 199.46,-116.55"/>
</g>
<!-- 11&#45;&gt;3 -->
<g id="edge27" class="edge">
<title>11&#45;&gt;3</title>
<path fill="none" stroke="black" d="M247.34,-301.16C200.24,-294.06 108.41,-277.26 89.34,-252 60.08,-213.24 78.07,-153.45 92.85,-118.68"/>
<polygon fill="black" stroke="black" points="95.97,-120.27 96.86,-109.71 89.58,-117.42 95.97,-120.27"/>
</g>
<!-- 11&#45;&gt;4 -->
<g id="edge30" class="edge">
<title>11&#45;&gt;4</title>
<path fill="none" stroke="black" d="M247.52,-304.69C205.61,-302.81 125.82,-293.55 75.34,-252 20.4,-206.78 21.31,-177.35 5.34,-108 1.75,-92.41 -4.31,-84.76 5.34,-72 20.08,-52.5 78.04,-38.1 125.57,-29.27"/>
<polygon fill="black" stroke="black" points="126.06,-32.73 135.28,-27.52 124.82,-25.84 126.06,-32.73"/>
</g>
<!-- 11&#45;&gt;6 -->
<g id="edge28" class="edge">
<title>11&#45;&gt;6</title>
<path fill="none" stroke="black" d="M303.15,-289.16C322.63,-277.48 346.23,-261.96 352.34,-252 363.39,-234.02 366.11,-210.17 366.22,-191.69"/>
<polygon fill="black" stroke="black" points="369.73,-191.87 366.01,-181.95 362.73,-192.02 369.73,-191.87"/>
</g>
<!-- 11&#45;&gt;7 -->
<g id="edge29" class="edge">
<title>11&#45;&gt;7</title>
<path fill="none" stroke="black" d="M303.3,-291.14C306.31,-289.95 309.36,-288.88 312.34,-288 367.26,-271.88 526.6,-292.19 567.34,-252 602.26,-217.56 601.35,-155.91 597.12,-119.71"/>
<polygon fill="black" stroke="black" points="600.61,-119.43 595.81,-109.99 593.68,-120.37 600.61,-119.43"/>
</g>
<!-- 11&#45;&gt;8 -->
<g id="edge31" class="edge">
<title>11&#45;&gt;8</title>
<path fill="none" stroke="black" d="M275.34,-287.7C275.34,-280.41 275.34,-271.73 275.34,-263.54"/>
<polygon fill="black" stroke="black" points="278.84,-263.62 275.34,-253.62 271.84,-263.62 278.84,-263.62"/>
</g>
<!-- 11&#45;&gt;9 -->
<g id="edge32" class="edge">
<title>11&#45;&gt;9</title>
<path fill="none" stroke="black" d="M303.06,-291.8C306.17,-290.46 309.31,-289.16 312.34,-288 346.49,-274.93 385.36,-262.68 417.4,-253.26"/>
<polygon fill="black" stroke="black" points="418.36,-256.62 426.98,-250.47 416.4,-249.9 418.36,-256.62"/>
</g>
</g>
</svg>
