<?xml version="1.0" encoding="UTF-8" standalone="no"?>
<!DOCTYPE svg PUBLIC "-//W3C//DTD SVG 1.1//EN"
 "http://www.w3.org/Graphics/SVG/1.1/DTD/svg11.dtd">
<!-- Generated by graphviz version 9.0.0 (20230911.1827)
 -->
<!-- Pages: 1 -->
<svg width="843pt" height="332pt"
 viewBox="0.00 0.00 843.42 332.00" xmlns="http://www.w3.org/2000/svg" xmlns:xlink="http://www.w3.org/1999/xlink">
<g id="graph0" class="graph" transform="scale(1 1) rotate(0) translate(4 328)">
<polygon fill="white" stroke="none" points="-4,4 -4,-328 839.42,-328 839.42,4 -4,4"/>
<!-- 0 -->
<g id="node1" class="node">
<title>0</title>
<polygon fill="none" stroke="black" points="335.12,-108 242.62,-108 242.62,-72 335.12,-72 335.12,-108"/>
<text text-anchor="middle" x="288.88" y="-84.95" font-family="Times,serif" font-size="14.00">weaver_cache</text>
</g>
<!-- 1 -->
<g id="node2" class="node">
<title>1</title>
<polygon fill="none" stroke="black" points="103.75,-108 0,-108 0,-72 103.75,-72 103.75,-108"/>
<text text-anchor="middle" x="51.88" y="-84.95" font-family="Times,serif" font-size="14.00">weaver_checker</text>
</g>
<!-- 2 -->
<g id="node3" class="node">
<title>2</title>
<polygon fill="none" stroke="black" points="726.5,-180 645.25,-180 645.25,-144 726.5,-144 726.5,-180"/>
<text text-anchor="middle" x="685.88" y="-156.95" font-family="Times,serif" font-size="14.00">weaver_diff</text>
</g>
<!-- 3 -->
<g id="node4" class="node">
<title>3</title>
<polygon fill="none" stroke="black" points="769,-252 678.75,-252 678.75,-216 769,-216 769,-252"/>
<text text-anchor="middle" x="723.88" y="-228.95" font-family="Times,serif" font-size="14.00">weaver_forge</text>
</g>
<!-- 3&#45;&gt;2 -->
<g id="edge1" class="edge">
<title>3&#45;&gt;2</title>
<path fill="none" stroke="black" d="M714.48,-215.7C710.29,-207.98 705.26,-198.71 700.59,-190.11"/>
<polygon fill="black" stroke="black" points="703.73,-188.55 695.88,-181.43 697.58,-191.89 703.73,-188.55"/>
</g>
<!-- 4 -->
<g id="node5" class="node">
<title>4</title>
<polygon fill="none" stroke="black" points="737,-108 640.75,-108 640.75,-72 737,-72 737,-108"/>
<text text-anchor="middle" x="688.88" y="-84.95" font-family="Times,serif" font-size="14.00">weaver_logger</text>
</g>
<!-- 3&#45;&gt;4 -->
<g id="edge2" class="edge">
<title>3&#45;&gt;4</title>
<path fill="none" stroke="black" d="M744.25,-215.53C753.68,-206.09 763.88,-193.6 768.88,-180 774.39,-164.98 776.45,-158.1 768.88,-144 762.41,-131.96 751.87,-122.19 740.54,-114.48"/>
<polygon fill="black" stroke="black" points="742.53,-111.6 732.19,-109.28 738.82,-117.54 742.53,-111.6"/>
</g>
<!-- 5 -->
<g id="node6" class="node">
<title>5</title>
<polygon fill="none" stroke="black" points="584.62,-108 429.12,-108 429.12,-72 584.62,-72 584.62,-108"/>
<text text-anchor="middle" x="506.88" y="-84.95" font-family="Times,serif" font-size="14.00">weaver_resolved_schema</text>
</g>
<!-- 3&#45;&gt;5 -->
<g id="edge3" class="edge">
<title>3&#45;&gt;5</title>
<path fill="none" stroke="black" d="M733.09,-215.6C742.03,-196.05 752.08,-164.38 735.88,-144 726.81,-132.59 656.55,-117.41 596.21,-106.22"/>
<polygon fill="black" stroke="black" points="597.04,-102.81 586.57,-104.45 595.77,-109.7 597.04,-102.81"/>
</g>
<!-- 6 -->
<g id="node7" class="node">
<title>6</title>
<polygon fill="none" stroke="black" points="615.12,-36 504.62,-36 504.62,0 615.12,0 615.12,-36"/>
<text text-anchor="middle" x="559.88" y="-12.95" font-family="Times,serif" font-size="14.00">weaver_semconv</text>
</g>
<!-- 3&#45;&gt;6 -->
<g id="edge5" class="edge">
<title>3&#45;&gt;6</title>
<path fill="none" stroke="black" d="M753.24,-215.6C765.42,-206.65 778.24,-194.55 784.88,-180 806.04,-133.56 785.69,-103.93 745.88,-72 712.02,-44.85 664.94,-31.6 626.62,-25.14"/>
<polygon fill="black" stroke="black" points="627.47,-21.73 617.05,-23.66 626.39,-28.65 627.47,-21.73"/>
</g>
<!-- 8 -->
<g id="node9" class="node">
<title>8</title>
<polygon fill="none" stroke="black" points="398.5,-180 293.25,-180 293.25,-144 398.5,-144 398.5,-180"/>
<text text-anchor="middle" x="345.88" y="-156.95" font-family="Times,serif" font-size="14.00">weaver_resolver</text>
</g>
<!-- 3&#45;&gt;8 -->
<g id="edge4" class="edge">
<title>3&#45;&gt;8</title>
<path fill="none" stroke="black" d="M678.38,-223.87C665.31,-221.28 651.03,-218.49 637.88,-216 559.53,-201.15 469.18,-184.88 409.98,-174.34"/>
<polygon fill="black" stroke="black" points="410.89,-170.95 400.43,-172.64 409.66,-177.84 410.89,-170.95"/>
</g>
<!-- 5&#45;&gt;6 -->
<g id="edge6" class="edge">
<title>5&#45;&gt;6</title>
<path fill="none" stroke="black" d="M519.98,-71.7C526.01,-63.73 533.3,-54.1 539.99,-45.26"/>
<polygon fill="black" stroke="black" points="542.76,-47.4 546.01,-37.31 537.18,-43.17 542.76,-47.4"/>
</g>
<!-- 7 -->
<g id="node8" class="node">
<title>7</title>
<polygon fill="none" stroke="black" points="413.62,-36 312.12,-36 312.12,0 413.62,0 413.62,-36"/>
<text text-anchor="middle" x="362.88" y="-12.95" font-family="Times,serif" font-size="14.00">weaver_version</text>
</g>
<!-- 5&#45;&gt;7 -->
<g id="edge7" class="edge">
<title>5&#45;&gt;7</title>
<path fill="none" stroke="black" d="M470.91,-71.52C452.04,-62.34 428.72,-51.01 408.58,-41.22"/>
<polygon fill="black" stroke="black" points="410.27,-38.15 399.74,-36.92 407.21,-44.44 410.27,-38.15"/>
</g>
<!-- 8&#45;&gt;0 -->
<g id="edge8" class="edge">
<title>8&#45;&gt;0</title>
<path fill="none" stroke="black" d="M331.79,-143.7C325.23,-135.64 317.29,-125.89 310.03,-116.98"/>
<polygon fill="black" stroke="black" points="312.79,-114.82 303.76,-109.28 307.36,-119.24 312.79,-114.82"/>
</g>
<!-- 8&#45;&gt;1 -->
<g id="edge9" class="edge">
<title>8&#45;&gt;1</title>
<path fill="none" stroke="black" d="M293.17,-149.9C248.13,-140.23 181.34,-125.44 115.22,-108.8"/>
<polygon fill="black" stroke="black" points="116.21,-105.44 105.65,-106.37 114.49,-112.22 116.21,-105.44"/>
</g>
<!-- 8&#45;&gt;4 -->
<g id="edge10" class="edge">
<title>8&#45;&gt;4</title>
<path fill="none" stroke="black" d="M398.84,-147.26C403.58,-146.12 408.31,-145.02 412.88,-144 453.2,-135.02 560.92,-114.73 629.25,-102.03"/>
<polygon fill="black" stroke="black" points="629.59,-105.52 638.79,-100.25 628.32,-98.64 629.59,-105.52"/>
</g>
<!-- 8&#45;&gt;5 -->
<g id="edge11" class="edge">
<title>8&#45;&gt;5</title>
<path fill="none" stroke="black" d="M386.09,-143.52C407.39,-134.25 433.78,-122.78 456.44,-112.93"/>
<polygon fill="black" stroke="black" points="457.73,-116.18 465.51,-108.99 454.94,-109.76 457.73,-116.18"/>
</g>
<!-- 8&#45;&gt;6 -->
<g id="edge13" class="edge">
<title>8&#45;&gt;6</title>
<path fill="none" stroke="black" d="M356.35,-143.63C369.11,-123.81 392.39,-91.6 419.88,-72 441.81,-56.36 468.93,-44.69 493.45,-36.35"/>
<polygon fill="black" stroke="black" points="494.28,-39.76 502.7,-33.33 492.11,-33.11 494.28,-39.76"/>
</g>
<!-- 8&#45;&gt;7 -->
<g id="edge14" class="edge">
<title>8&#45;&gt;7</title>
<path fill="none" stroke="black" d="M347.96,-143.59C350.83,-119.61 356.03,-76.14 359.47,-47.42"/>
<polygon fill="black" stroke="black" points="362.93,-47.96 360.65,-37.61 355.98,-47.13 362.93,-47.96"/>
</g>
<!-- 9 -->
<g id="node10" class="node">
<title>9</title>
<polygon fill="none" stroke="black" points="224.38,-108 121.38,-108 121.38,-72 224.38,-72 224.38,-108"/>
<text text-anchor="middle" x="172.88" y="-84.95" font-family="Times,serif" font-size="14.00">weaver_schema</text>
</g>
<!-- 8&#45;&gt;9 -->
<g id="edge12" class="edge">
<title>8&#45;&gt;9</title>
<path fill="none" stroke="black" d="M302.67,-143.52C279.56,-134.17 250.91,-122.57 226.41,-112.66"/>
<polygon fill="black" stroke="black" points="227.82,-109.46 217.24,-108.95 225.19,-115.94 227.82,-109.46"/>
</g>
<!-- 9&#45;&gt;6 -->
<g id="edge15" class="edge">
<title>9&#45;&gt;6</title>
<path fill="none" stroke="black" d="M224.69,-74.14C227.79,-73.38 230.87,-72.66 233.88,-72 322.81,-52.44 426.86,-36.75 493.05,-27.66"/>
<polygon fill="black" stroke="black" points="493.21,-31.17 502.65,-26.35 492.27,-24.23 493.21,-31.17"/>
</g>
<!-- 9&#45;&gt;7 -->
<g id="edge16" class="edge">
<title>9&#45;&gt;7</title>
<path fill="none" stroke="black" d="M220.33,-71.52C246.04,-62.04 278.02,-50.26 305.17,-40.26"/>
<polygon fill="black" stroke="black" points="306.1,-43.65 314.28,-36.9 303.68,-37.08 306.1,-43.65"/>
</g>
<!-- 10 -->
<g id="node11" class="node">
<title>10</title>
<polygon fill="none" stroke="black" points="629.25,-252 492.5,-252 492.5,-216 629.25,-216 629.25,-252"/>
<text text-anchor="middle" x="560.88" y="-228.95" font-family="Times,serif" font-size="14.00">weaver_semconv_gen</text>
</g>
<!-- 10&#45;&gt;0 -->
<g id="edge17" class="edge">
<title>10&#45;&gt;0</title>
<path fill="none" stroke="black" d="M532.9,-215.5C502.61,-196.84 452.6,-166.89 407.88,-144 386.43,-133.03 362.23,-122.01 341.28,-112.89"/>
<polygon fill="black" stroke="black" points="342.93,-109.79 332.36,-109.03 340.15,-116.21 342.93,-109.79"/>
</g>
<!-- 10&#45;&gt;2 -->
<g id="edge18" class="edge">
<title>10&#45;&gt;2</title>
<path fill="none" stroke="black" d="M592.1,-215.52C608.17,-206.51 627.98,-195.42 645.23,-185.76"/>
<polygon fill="black" stroke="black" points="646.72,-188.94 653.73,-181 643.3,-182.83 646.72,-188.94"/>
</g>
<!-- 10&#45;&gt;4 -->
<g id="edge19" class="edge">
<title>10&#45;&gt;4</title>
<path fill="none" stroke="black" d="M574.83,-215.57C589.58,-197.35 613.73,-168.11 635.88,-144 644.41,-134.7 654.09,-124.84 662.82,-116.18"/>
<polygon fill="black" stroke="black" points="665.07,-118.87 669.75,-109.36 660.16,-113.88 665.07,-118.87"/>
</g>
<!-- 10&#45;&gt;5 -->
<g id="edge20" class="edge">
<title>10&#45;&gt;5</title>
<path fill="none" stroke="black" d="M554.25,-215.59C545.05,-191.4 528.31,-147.36 517.39,-118.65"/>
<polygon fill="black" stroke="black" points="520.75,-117.63 513.92,-109.53 514.2,-120.12 520.75,-117.63"/>
</g>
<!-- 10&#45;&gt;6 -->
<g id="edge22" class="edge">
<title>10&#45;&gt;6</title>
<path fill="none" stroke="black" d="M569.82,-215.85C584.1,-186.17 608.97,-123.47 593.88,-72 591.16,-62.75 586.29,-53.59 581.06,-45.55"/>
<polygon fill="black" stroke="black" points="584.1,-43.79 575.5,-37.61 578.37,-47.8 584.1,-43.79"/>
</g>
<!-- 10&#45;&gt;8 -->
<g id="edge21" class="edge">
<title>10&#45;&gt;8</title>
<path fill="none" stroke="black" d="M507.18,-215.52C477.58,-205.88 440.66,-193.86 409.61,-183.75"/>
<polygon fill="black" stroke="black" points="410.92,-180.5 400.33,-180.73 408.75,-187.15 410.92,-180.5"/>
</g>
<!-- 11 -->
<g id="node12" class="node">
<title>11</title>
<polygon fill="none" stroke="black" points="398.38,-252 289.38,-252 289.38,-216 398.38,-216 398.38,-252"/>
<text text-anchor="middle" x="343.88" y="-228.95" font-family="Times,serif" font-size="14.00">weaver_template</text>
</g>
<!-- 11&#45;&gt;0 -->
<g id="edge23" class="edge">
<title>11&#45;&gt;0</title>
<path fill="none" stroke="black" d="M314.98,-215.5C303,-206.53 290.39,-194.44 283.88,-180 275.32,-161.02 277.13,-137.41 280.79,-119.28"/>
<polygon fill="black" stroke="black" points="284.15,-120.27 283.02,-109.73 277.33,-118.67 284.15,-120.27"/>
</g>
<!-- 11&#45;&gt;4 -->
<g id="edge24" class="edge">
<title>11&#45;&gt;4</title>
<path fill="none" stroke="black" d="M386.18,-215.59C449.12,-189.68 567.34,-141.02 635.93,-112.79"/>
<polygon fill="black" stroke="black" points="637.18,-116.06 645.1,-109.02 634.52,-109.59 637.18,-116.06"/>
</g>
<!-- 11&#45;&gt;8 -->
<g id="edge25" class="edge">
<title>11&#45;&gt;8</title>
<path fill="none" stroke="black" d="M344.37,-215.7C344.58,-208.41 344.83,-199.73 345.06,-191.54"/>
<polygon fill="black" stroke="black" points="348.56,-191.71 345.34,-181.62 341.56,-191.51 348.56,-191.71"/>
</g>
<!-- 11&#45;&gt;9 -->
<g id="edge26" class="edge">
<title>11&#45;&gt;9</title>
<path fill="none" stroke="black" d="M319.88,-215.52C306.21,-205.39 288.86,-192.25 273.88,-180 248.34,-159.13 220.26,-134.22 200.21,-116.07"/>
<polygon fill="black" stroke="black" points="202.74,-113.65 192.99,-109.51 198.04,-118.83 202.74,-113.65"/>
</g>
<!-- 12 -->
<g id="node13" class="node">
<title>12</title>
<polygon fill="none" stroke="black" points="545.88,-324 491.88,-324 491.88,-288 545.88,-288 545.88,-324"/>
<text text-anchor="middle" x="518.88" y="-300.95" font-family="Times,serif" font-size="14.00">xtask</text>
</g>
<!-- 13 -->
<g id="node14" class="node">
<title>13</title>
<polygon fill="none" stroke="black" points="473.38,-324 418.38,-324 418.38,-288 473.38,-288 473.38,-324"/>
<text text-anchor="middle" x="445.88" y="-300.95" font-family="Times,serif" font-size="14.00">weaver</text>
</g>
<!-- 13&#45;&gt;0 -->
<g id="edge27" class="edge">
<title>13&#45;&gt;0</title>
<path fill="none" stroke="black" d="M418.06,-304.96C380.19,-303.24 313.32,-294.01 279.88,-252 249.66,-214.06 264.47,-153.73 277.19,-118.7"/>
<polygon fill="black" stroke="black" points="280.34,-120.28 280.65,-109.69 273.8,-117.77 280.34,-120.28"/>
</g>
<!-- 13&#45;&gt;1 -->
<g id="edge28" class="edge">
<title>13&#45;&gt;1</title>
<path fill="none" stroke="black" d="M418.03,-300.42C380.74,-293.53 313.21,-278.43 260.88,-252 188.02,-215.2 115.31,-151.61 77.86,-116.37"/>
<polygon fill="black" stroke="black" points="80.3,-113.86 70.64,-109.51 75.48,-118.94 80.3,-113.86"/>
</g>
<!-- 13&#45;&gt;3 -->
<g id="edge29" class="edge">
<title>13&#45;&gt;3</title>
<path fill="none" stroke="black" d="M473.5,-291.54C476.62,-290.25 479.79,-289.03 482.88,-288 500.23,-282.18 601.78,-260.52 667.4,-246.76"/>
<polygon fill="black" stroke="black" points="667.85,-250.24 676.92,-244.76 666.42,-243.39 667.85,-250.24"/>
</g>
<!-- 13&#45;&gt;4 -->
<g id="edge30" class="edge">
<title>13&#45;&gt;4</title>
<path fill="none" stroke="black" d="M473.81,-291.08C476.83,-289.91 479.88,-288.85 482.88,-288 546.42,-270 731.75,-299.27 777.88,-252 811.47,-217.57 809.32,-185.42 784.88,-144 776.34,-129.55 762.31,-118.76 747.56,-110.83"/>
<polygon fill="black" stroke="black" points="749.18,-107.73 738.66,-106.46 746.09,-114.01 749.18,-107.73"/>
</g>
<!-- 13&#45;&gt;5 -->
<g id="edge31" class="edge">
<title>13&#45;&gt;5</title>
<path fill="none" stroke="black" d="M450.76,-287.85C461.25,-251.07 485.98,-164.29 498.82,-119.24"/>
<polygon fill="black" stroke="black" points="502.17,-120.26 501.55,-109.69 495.44,-118.35 502.17,-120.26"/>
</g>
<!-- 13&#45;&gt;6 -->
<g id="edge34" class="edge">
<title>13&#45;&gt;6</title>
<path fill="none" stroke="black" d="M473.81,-291.05C476.82,-289.88 479.88,-288.83 482.88,-288 551.82,-268.82 754.09,-304.35 802.88,-252 857.98,-192.87 837.98,-124.92 776.88,-72 735.44,-36.11 673.61,-23.7 626.53,-19.78"/>
<polygon fill="black" stroke="black" points="626.94,-16.3 616.72,-19.08 626.45,-23.28 626.94,-16.3"/>
</g>
<!-- 13&#45;&gt;8 -->
<g id="edge32" class="edge">
<title>13&#45;&gt;8</title>
<path fill="none" stroke="black" d="M440.85,-287.76C434.8,-268.91 423.37,-238.42 406.88,-216 399.24,-205.62 389.22,-195.86 379.53,-187.62"/>
<polygon fill="black" stroke="black" points="381.92,-185.06 371.96,-181.45 377.5,-190.48 381.92,-185.06"/>
</g>
<!-- 13&#45;&gt;9 -->
<g id="edge33" class="edge">
<title>13&#45;&gt;9</title>
<path fill="none" stroke="black" d="M417.9,-301.54C382.81,-296.04 322.13,-282.63 279.88,-252 232.22,-217.46 199.65,-154.7 183.85,-118.58"/>
<polygon fill="black" stroke="black" points="187.21,-117.52 180.08,-109.68 180.76,-120.26 187.21,-117.52"/>
</g>
<!-- 13&#45;&gt;10 -->
<g id="edge35" class="edge">
<title>13&#45;&gt;10</title>
<path fill="none" stroke="black" d="M473.71,-288.05C488.47,-279.07 506.81,-267.91 522.85,-258.14"/>
<polygon fill="black" stroke="black" points="524.48,-261.25 531.2,-253.06 520.84,-255.27 524.48,-261.25"/>
</g>
<!-- 13&#45;&gt;11 -->
<g id="edge36" class="edge">
<title>13&#45;&gt;11</title>
<path fill="none" stroke="black" d="M420.4,-287.52C407.65,-278.76 392.02,-268.04 378.23,-258.58"/>
<polygon fill="black" stroke="black" points="380.5,-255.89 370.27,-253.12 376.54,-261.66 380.5,-255.89"/>
</g>
</g>
</svg>
