<?xml version="1.0" encoding="UTF-8" standalone="no"?>
<!DOCTYPE svg PUBLIC "-//W3C//DTD SVG 1.1//EN"
 "http://www.w3.org/Graphics/SVG/1.1/DTD/svg11.dtd">
<!-- Generated by graphviz version 9.0.0 (20230911.1827)
 -->
<!-- Pages: 1 -->
<svg width="637pt" height="332pt"
 viewBox="0.00 0.00 636.59 332.00" xmlns="http://www.w3.org/2000/svg" xmlns:xlink="http://www.w3.org/1999/xlink">
<g id="graph0" class="graph" transform="scale(1 1) rotate(0) translate(4 328)">
<polygon fill="white" stroke="none" points="-4,4 -4,-328 632.59,-328 632.59,4 -4,4"/>
<!-- 0 -->
<g id="node1" class="node">
<title>0</title>
<polygon fill="none" stroke="black" points="92.5,-108 0,-108 0,-72 92.5,-72 92.5,-108"/>
<text text-anchor="middle" x="46.25" y="-84.95" font-family="Times,serif" font-size="14.00">weaver_cache</text>
</g>
<!-- 1 -->
<g id="node2" class="node">
<title>1</title>
<polygon fill="none" stroke="black" points="517.38,-252 427.12,-252 427.12,-216 517.38,-216 517.38,-252"/>
<text text-anchor="middle" x="472.25" y="-228.95" font-family="Times,serif" font-size="14.00">weaver_forge</text>
</g>
<!-- 2 -->
<g id="node3" class="node">
<title>2</title>
<polygon fill="none" stroke="black" points="578.38,-108 482.12,-108 482.12,-72 578.38,-72 578.38,-108"/>
<text text-anchor="middle" x="530.25" y="-84.95" font-family="Times,serif" font-size="14.00">weaver_logger</text>
</g>
<!-- 1&#45;&gt;2 -->
<g id="edge1" class="edge">
<title>1&#45;&gt;2</title>
<path fill="none" stroke="black" d="M479.36,-215.59C489.24,-191.4 507.23,-147.36 518.96,-118.65"/>
<polygon fill="black" stroke="black" points="522.15,-120.09 522.69,-109.51 515.67,-117.45 522.15,-120.09"/>
</g>
<!-- 3 -->
<g id="node4" class="node">
<title>3</title>
<polygon fill="none" stroke="black" points="464,-108 308.5,-108 308.5,-72 464,-72 464,-108"/>
<text text-anchor="middle" x="386.25" y="-84.95" font-family="Times,serif" font-size="14.00">weaver_resolved_schema</text>
</g>
<!-- 1&#45;&gt;3 -->
<g id="edge2" class="edge">
<title>1&#45;&gt;3</title>
<path fill="none" stroke="black" d="M461.7,-215.59C446.92,-191.18 419.91,-146.58 402.54,-117.89"/>
<polygon fill="black" stroke="black" points="405.57,-116.15 397.4,-109.41 399.58,-119.77 405.57,-116.15"/>
</g>
<!-- 4 -->
<g id="node5" class="node">
<title>4</title>
<polygon fill="none" stroke="black" points="441.5,-36 331,-36 331,0 441.5,0 441.5,-36"/>
<text text-anchor="middle" x="386.25" y="-12.95" font-family="Times,serif" font-size="14.00">weaver_semconv</text>
</g>
<!-- 1&#45;&gt;4 -->
<g id="edge4" class="edge">
<title>1&#45;&gt;4</title>
<path fill="none" stroke="black" d="M500.99,-215.55C546.6,-185.67 626.56,-123.02 587.25,-72 570.78,-50.63 504.98,-36.14 453.09,-27.79"/>
<polygon fill="black" stroke="black" points="453.83,-24.36 443.41,-26.28 452.75,-31.28 453.83,-24.36"/>
</g>
<!-- 6 -->
<g id="node7" class="node">
<title>6</title>
<polygon fill="none" stroke="black" points="332.88,-180 227.62,-180 227.62,-144 332.88,-144 332.88,-180"/>
<text text-anchor="middle" x="280.25" y="-156.95" font-family="Times,serif" font-size="14.00">weaver_resolver</text>
</g>
<!-- 1&#45;&gt;6 -->
<g id="edge3" class="edge">
<title>1&#45;&gt;6</title>
<path fill="none" stroke="black" d="M426.75,-216.41C400.4,-206.8 366.95,-194.61 338.66,-184.3"/>
<polygon fill="black" stroke="black" points="340.12,-181.1 329.53,-180.97 337.72,-187.68 340.12,-181.1"/>
</g>
<!-- 3&#45;&gt;4 -->
<g id="edge5" class="edge">
<title>3&#45;&gt;4</title>
<path fill="none" stroke="black" d="M386.25,-71.7C386.25,-64.41 386.25,-55.73 386.25,-47.54"/>
<polygon fill="black" stroke="black" points="389.75,-47.62 386.25,-37.62 382.75,-47.62 389.75,-47.62"/>
</g>
<!-- 5 -->
<g id="node6" class="node">
<title>5</title>
<polygon fill="none" stroke="black" points="293,-36 191.5,-36 191.5,0 293,0 293,-36"/>
<text text-anchor="middle" x="242.25" y="-12.95" font-family="Times,serif" font-size="14.00">weaver_version</text>
</g>
<!-- 3&#45;&gt;5 -->
<g id="edge6" class="edge">
<title>3&#45;&gt;5</title>
<path fill="none" stroke="black" d="M350.28,-71.52C331.41,-62.34 308.1,-51.01 287.96,-41.22"/>
<polygon fill="black" stroke="black" points="289.64,-38.15 279.12,-36.92 286.58,-44.44 289.64,-38.15"/>
</g>
<!-- 6&#45;&gt;0 -->
<g id="edge7" class="edge">
<title>6&#45;&gt;0</title>
<path fill="none" stroke="black" d="M227.33,-145.51C194.25,-135.79 150.48,-122.85 103.72,-108.73"/>
<polygon fill="black" stroke="black" points="104.78,-105.4 94.2,-105.85 102.76,-112.1 104.78,-105.4"/>
</g>
<!-- 6&#45;&gt;2 -->
<g id="edge8" class="edge">
<title>6&#45;&gt;2</title>
<path fill="none" stroke="black" d="M333.17,-146.8C369.5,-136.98 419.09,-123.42 471,-108.62"/>
<polygon fill="black" stroke="black" points="471.65,-112.07 480.31,-105.96 469.73,-105.34 471.65,-112.07"/>
</g>
<!-- 6&#45;&gt;3 -->
<g id="edge9" class="edge">
<title>6&#45;&gt;3</title>
<path fill="none" stroke="black" d="M306.72,-143.52C319.98,-134.76 336.21,-124.04 350.55,-114.58"/>
<polygon fill="black" stroke="black" points="352.43,-117.53 358.85,-109.09 348.58,-111.68 352.43,-117.53"/>
</g>
<!-- 6&#45;&gt;4 -->
<g id="edge11" class="edge">
<title>6&#45;&gt;4</title>
<path fill="none" stroke="black" d="M280.02,-143.67C280.59,-124.46 284.08,-93.39 299.25,-72 307.98,-59.7 320.54,-49.71 333.42,-41.87"/>
<polygon fill="black" stroke="black" points="334.98,-45 341.95,-37.02 331.53,-38.91 334.98,-45"/>
</g>
<!-- 6&#45;&gt;5 -->
<g id="edge12" class="edge">
<title>6&#45;&gt;5</title>
<path fill="none" stroke="black" d="M275.59,-143.59C269.15,-119.5 257.44,-75.75 249.75,-47.03"/>
<polygon fill="black" stroke="black" points="253.19,-46.33 247.22,-37.57 246.42,-48.14 253.19,-46.33"/>
</g>
<!-- 7 -->
<g id="node8" class="node">
<title>7</title>
<polygon fill="none" stroke="black" points="213.75,-108 110.75,-108 110.75,-72 213.75,-72 213.75,-108"/>
<text text-anchor="middle" x="162.25" y="-84.95" font-family="Times,serif" font-size="14.00">weaver_schema</text>
</g>
<!-- 6&#45;&gt;7 -->
<g id="edge10" class="edge">
<title>6&#45;&gt;7</title>
<path fill="none" stroke="black" d="M250.78,-143.52C235.74,-134.6 217.26,-123.63 201.07,-114.03"/>
<polygon fill="black" stroke="black" points="203.03,-111.12 192.65,-109.03 199.46,-117.15 203.03,-111.12"/>
</g>
<!-- 7&#45;&gt;4 -->
<g id="edge13" class="edge">
<title>7&#45;&gt;4</title>
<path fill="none" stroke="black" d="M214.2,-72.76C245.69,-62.92 286.17,-50.28 319.95,-39.72"/>
<polygon fill="black" stroke="black" points="320.72,-43.15 329.22,-36.82 318.63,-36.46 320.72,-43.15"/>
</g>
<!-- 7&#45;&gt;5 -->
<g id="edge14" class="edge">
<title>7&#45;&gt;5</title>
<path fill="none" stroke="black" d="M182.03,-71.7C191.64,-63.28 203.37,-53.02 213.92,-43.79"/>
<polygon fill="black" stroke="black" points="216.06,-46.56 221.29,-37.34 211.46,-41.29 216.06,-46.56"/>
</g>
<!-- 8 -->
<g id="node9" class="node">
<title>8</title>
<polygon fill="none" stroke="black" points="332.75,-252 223.75,-252 223.75,-216 332.75,-216 332.75,-252"/>
<text text-anchor="middle" x="278.25" y="-228.95" font-family="Times,serif" font-size="14.00">weaver_template</text>
</g>
<!-- 8&#45;&gt;0 -->
<g id="edge15" class="edge">
<title>8&#45;&gt;0</title>
<path fill="none" stroke="black" d="M248.13,-215.54C230.59,-205.3 208.09,-192.05 188.25,-180 152.33,-158.17 111.73,-132.64 83.17,-114.53"/>
<polygon fill="black" stroke="black" points="85.19,-111.67 74.88,-109.27 81.44,-117.58 85.19,-111.67"/>
</g>
<!-- 8&#45;&gt;2 -->
<g id="edge16" class="edge">
<title>8&#45;&gt;2</title>
<path fill="none" stroke="black" d="M309.15,-215.59C354.52,-190.02 439.22,-142.29 489.59,-113.91"/>
<polygon fill="black" stroke="black" points="491.18,-117.03 498.17,-109.08 487.74,-110.94 491.18,-117.03"/>
</g>
<!-- 8&#45;&gt;6 -->
<g id="edge17" class="edge">
<title>8&#45;&gt;6</title>
<path fill="none" stroke="black" d="M278.74,-215.7C278.95,-208.41 279.2,-199.73 279.43,-191.54"/>
<polygon fill="black" stroke="black" points="282.93,-191.71 279.72,-181.62 275.93,-191.51 282.93,-191.71"/>
</g>
<!-- 8&#45;&gt;7 -->
<g id="edge18" class="edge">
<title>8&#45;&gt;7</title>
<path fill="none" stroke="black" d="M255.75,-215.73C243.84,-205.98 229.41,-193.13 218.25,-180 202.04,-160.93 187.13,-136.76 176.78,-118.42"/>
<polygon fill="black" stroke="black" points="179.87,-116.77 171.97,-109.71 173.74,-120.15 179.87,-116.77"/>
</g>
<!-- 9 -->
<g id="node10" class="node">
<title>9</title>
<polygon fill="none" stroke="black" points="407.75,-324 352.75,-324 352.75,-288 407.75,-288 407.75,-324"/>
<text text-anchor="middle" x="380.25" y="-300.95" font-family="Times,serif" font-size="14.00">weaver</text>
</g>
<!-- 9&#45;&gt;0 -->
<g id="edge19" class="edge">
<title>9&#45;&gt;0</title>
<path fill="none" stroke="black" d="M352.52,-302.52C312.93,-297.91 239.17,-285.24 186.25,-252 130.77,-217.15 85.13,-153.6 62.21,-117.65"/>
<polygon fill="black" stroke="black" points="65.43,-116.2 57.16,-109.57 59.49,-119.9 65.43,-116.2"/>
</g>
<!-- 9&#45;&gt;1 -->
<g id="edge20" class="edge">
<title>9&#45;&gt;1</title>
<path fill="none" stroke="black" d="M402.99,-287.7C414.27,-279.11 428.08,-268.61 440.39,-259.24"/>
<polygon fill="black" stroke="black" points="442.41,-262.1 448.25,-253.26 438.17,-256.53 442.41,-262.1"/>
</g>
<!-- 9&#45;&gt;2 -->
<g id="edge21" class="edge">
<title>9&#45;&gt;2</title>
<path fill="none" stroke="black" d="M408.04,-303.81C442.24,-300.7 499.08,-289.76 526.25,-252 554.27,-213.05 546.52,-153.98 538.37,-119.26"/>
<polygon fill="black" stroke="black" points="541.86,-118.78 536.01,-109.95 535.07,-120.5 541.86,-118.78"/>
</g>
<!-- 9&#45;&gt;3 -->
<g id="edge22" class="edge">
<title>9&#45;&gt;3</title>
<path fill="none" stroke="black" d="M380.73,-287.85C381.76,-251.14 384.18,-164.66 385.45,-119.53"/>
<polygon fill="black" stroke="black" points="388.94,-119.84 385.72,-109.75 381.95,-119.64 388.94,-119.84"/>
</g>
<!-- 9&#45;&gt;4 -->
<g id="edge25" class="edge">
<title>9&#45;&gt;4</title>
<path fill="none" stroke="black" d="M408.07,-303.27C444.44,-299.6 508.11,-288.07 547.25,-252 609.16,-194.95 658.34,-138.13 606.25,-72 587.39,-48.06 510.58,-33.67 452.99,-26.05"/>
<polygon fill="black" stroke="black" points="453.62,-22.6 443.25,-24.8 452.73,-29.54 453.62,-22.6"/>
</g>
<!-- 9&#45;&gt;6 -->
<g id="edge23" class="edge">
<title>9&#45;&gt;6</title>
<path fill="none" stroke="black" d="M375.48,-287.73C369.7,-268.86 358.66,-238.34 342.25,-216 334.55,-205.51 324.39,-195.73 314.53,-187.49"/>
<polygon fill="black" stroke="black" points="316.81,-184.84 306.82,-181.33 312.45,-190.31 316.81,-184.84"/>
</g>
<!-- 9&#45;&gt;7 -->
<g id="edge24" class="edge">
<title>9&#45;&gt;7</title>
<path fill="none" stroke="black" d="M352.28,-303.32C316.11,-299.69 253.25,-288.22 215.25,-252 178.31,-216.79 167.1,-155.42 163.71,-119.47"/>
<polygon fill="black" stroke="black" points="167.22,-119.54 162.95,-109.84 160.24,-120.09 167.22,-119.54"/>
</g>
<!-- 9&#45;&gt;8 -->
<g id="edge26" class="edge">
<title>9&#45;&gt;8</title>
<path fill="none" stroke="black" d="M354.77,-287.52C342.02,-278.76 326.4,-268.04 312.6,-258.58"/>
<polygon fill="black" stroke="black" points="314.87,-255.89 304.65,-253.12 310.91,-261.66 314.87,-255.89"/>
</g>
</g>
</svg>
