<?xml version="1.0" encoding="UTF-8" standalone="no"?>
<!DOCTYPE svg PUBLIC "-//W3C//DTD SVG 1.1//EN"
 "http://www.w3.org/Graphics/SVG/1.1/DTD/svg11.dtd">
<!-- Generated by graphviz version 9.0.0 (20230911.1827)
 -->
<!-- Pages: 1 -->
<svg width="778pt" height="332pt"
 viewBox="0.00 0.00 777.78 332.00" xmlns="http://www.w3.org/2000/svg" xmlns:xlink="http://www.w3.org/1999/xlink">
<g id="graph0" class="graph" transform="scale(1 1) rotate(0) translate(4 328)">
<polygon fill="white" stroke="none" points="-4,4 -4,-328 773.78,-328 773.78,4 -4,4"/>
<!-- 0 -->
<g id="node1" class="node">
<title>0</title>
<polygon fill="none" stroke="black" points="648.53,-108 556.03,-108 556.03,-72 648.53,-72 648.53,-108"/>
<text text-anchor="middle" x="602.28" y="-84.95" font-family="Times,serif" font-size="14.00">weaver_cache</text>
</g>
<!-- 1 -->
<g id="node2" class="node">
<title>1</title>
<polygon fill="none" stroke="black" points="133.15,-108 29.4,-108 29.4,-72 133.15,-72 133.15,-108"/>
<text text-anchor="middle" x="81.28" y="-84.95" font-family="Times,serif" font-size="14.00">weaver_checker</text>
</g>
<!-- 2 -->
<g id="node3" class="node">
<title>2</title>
<polygon fill="none" stroke="black" points="261.9,-180 180.65,-180 180.65,-144 261.9,-144 261.9,-180"/>
<text text-anchor="middle" x="221.28" y="-156.95" font-family="Times,serif" font-size="14.00">weaver_diff</text>
</g>
<!-- 3 -->
<g id="node4" class="node">
<title>3</title>
<polygon fill="none" stroke="black" points="207.4,-252 117.15,-252 117.15,-216 207.4,-216 207.4,-252"/>
<text text-anchor="middle" x="162.28" y="-228.95" font-family="Times,serif" font-size="14.00">weaver_forge</text>
</g>
<!-- 3&#45;&gt;2 -->
<g id="edge1" class="edge">
<title>3&#45;&gt;2</title>
<path fill="none" stroke="black" d="M176.86,-215.7C183.72,-207.56 192.04,-197.69 199.62,-188.7"/>
<polygon fill="black" stroke="black" points="202.12,-191.16 205.89,-181.26 196.77,-186.65 202.12,-191.16"/>
</g>
<!-- 4 -->
<g id="node5" class="node">
<title>4</title>
<polygon fill="none" stroke="black" points="249.4,-108 153.15,-108 153.15,-72 249.4,-72 249.4,-108"/>
<text text-anchor="middle" x="201.28" y="-84.95" font-family="Times,serif" font-size="14.00">weaver_logger</text>
</g>
<!-- 3&#45;&gt;4 -->
<g id="edge2" class="edge">
<title>3&#45;&gt;4</title>
<path fill="none" stroke="black" d="M150.72,-215.66C140.01,-197.26 127.27,-167.65 138.28,-144 143.44,-132.9 152.2,-123.3 161.57,-115.43"/>
<polygon fill="black" stroke="black" points="163.67,-118.24 169.45,-109.36 159.4,-112.69 163.67,-118.24"/>
</g>
<!-- 5 -->
<g id="node6" class="node">
<title>5</title>
<polygon fill="none" stroke="black" points="500.03,-108 344.53,-108 344.53,-72 500.03,-72 500.03,-108"/>
<text text-anchor="middle" x="422.28" y="-84.95" font-family="Times,serif" font-size="14.00">weaver_resolved_schema</text>
</g>
<!-- 3&#45;&gt;5 -->
<g id="edge3" class="edge">
<title>3&#45;&gt;5</title>
<path fill="none" stroke="black" d="M158.56,-215.56C155.42,-195.67 153.85,-163.41 171.28,-144 192.75,-120.09 269.8,-106.29 332.93,-98.81"/>
<polygon fill="black" stroke="black" points="333.09,-102.31 342.63,-97.7 332.3,-95.35 333.09,-102.31"/>
</g>
<!-- 6 -->
<g id="node7" class="node">
<title>6</title>
<polygon fill="none" stroke="black" points="352.53,-36 242.03,-36 242.03,0 352.53,0 352.53,-36"/>
<text text-anchor="middle" x="297.28" y="-12.95" font-family="Times,serif" font-size="14.00">weaver_semconv</text>
</g>
<!-- 3&#45;&gt;6 -->
<g id="edge5" class="edge">
<title>3&#45;&gt;6</title>
<path fill="none" stroke="black" d="M126.77,-215.69C71.59,-186.53 -24.01,-125.57 20.28,-72 46.41,-40.39 156.98,-27.45 230.27,-22.29"/>
<polygon fill="black" stroke="black" points="230.44,-25.79 240.19,-21.63 229.97,-18.8 230.44,-25.79"/>
</g>
<!-- 8 -->
<g id="node9" class="node">
<title>8</title>
<polygon fill="none" stroke="black" points="499.9,-180 394.65,-180 394.65,-144 499.9,-144 499.9,-180"/>
<text text-anchor="middle" x="447.28" y="-156.95" font-family="Times,serif" font-size="14.00">weaver_resolver</text>
</g>
<!-- 3&#45;&gt;8 -->
<g id="edge4" class="edge">
<title>3&#45;&gt;8</title>
<path fill="none" stroke="black" d="M207.71,-221C214.27,-219.3 220.94,-217.59 227.28,-216 279.68,-202.84 339.27,-188.52 383.21,-178.09"/>
<polygon fill="black" stroke="black" points="383.91,-181.52 392.84,-175.81 382.3,-174.71 383.91,-181.52"/>
</g>
<!-- 5&#45;&gt;6 -->
<g id="edge6" class="edge">
<title>5&#45;&gt;6</title>
<path fill="none" stroke="black" d="M391.06,-71.52C374.98,-62.51 355.18,-51.42 337.92,-41.76"/>
<polygon fill="black" stroke="black" points="339.86,-38.83 329.42,-37 336.44,-44.94 339.86,-38.83"/>
</g>
<!-- 7 -->
<g id="node8" class="node">
<title>7</title>
<polygon fill="none" stroke="black" points="579.03,-36 477.53,-36 477.53,0 579.03,0 579.03,-36"/>
<text text-anchor="middle" x="528.28" y="-12.95" font-family="Times,serif" font-size="14.00">weaver_version</text>
</g>
<!-- 5&#45;&gt;7 -->
<g id="edge7" class="edge">
<title>5&#45;&gt;7</title>
<path fill="none" stroke="black" d="M448.75,-71.52C462.01,-62.76 478.24,-52.04 492.58,-42.58"/>
<polygon fill="black" stroke="black" points="494.46,-45.53 500.88,-37.09 490.61,-39.68 494.46,-45.53"/>
</g>
<!-- 8&#45;&gt;0 -->
<g id="edge8" class="edge">
<title>8&#45;&gt;0</title>
<path fill="none" stroke="black" d="M485.99,-143.52C506.41,-134.29 531.67,-122.89 553.43,-113.06"/>
<polygon fill="black" stroke="black" points="554.74,-116.31 562.41,-109 551.86,-109.93 554.74,-116.31"/>
</g>
<!-- 8&#45;&gt;1 -->
<g id="edge9" class="edge">
<title>8&#45;&gt;1</title>
<path fill="none" stroke="black" d="M394.17,-153.2C335.76,-144.29 238.94,-128.55 144.63,-107.94"/>
<polygon fill="black" stroke="black" points="145.44,-104.53 134.92,-105.79 143.93,-111.37 145.44,-104.53"/>
</g>
<!-- 8&#45;&gt;4 -->
<g id="edge10" class="edge">
<title>8&#45;&gt;4</title>
<path fill="none" stroke="black" d="M394.2,-145.9C354.87,-134.71 301.25,-119.45 260.53,-107.86"/>
<polygon fill="black" stroke="black" points="261.7,-104.55 251.13,-105.18 259.79,-111.29 261.7,-104.55"/>
</g>
<!-- 8&#45;&gt;5 -->
<g id="edge11" class="edge">
<title>8&#45;&gt;5</title>
<path fill="none" stroke="black" d="M441.1,-143.7C438.4,-136.15 435.18,-127.12 432.17,-118.68"/>
<polygon fill="black" stroke="black" points="435.56,-117.77 428.9,-109.53 428.96,-120.12 435.56,-117.77"/>
</g>
<!-- 8&#45;&gt;6 -->
<g id="edge13" class="edge">
<title>8&#45;&gt;6</title>
<path fill="none" stroke="black" d="M394.41,-145.13C373.84,-136.79 351.39,-124.74 335.28,-108 319.17,-91.26 309.37,-66.63 303.77,-47.52"/>
<polygon fill="black" stroke="black" points="307.17,-46.68 301.2,-37.92 300.41,-48.49 307.17,-46.68"/>
</g>
<!-- 8&#45;&gt;7 -->
<g id="edge14" class="edge">
<title>8&#45;&gt;7</title>
<path fill="none" stroke="black" d="M474.77,-143.68C487.13,-134.53 500.8,-122.24 509.28,-108 520.17,-89.71 524.86,-66.03 526.86,-47.69"/>
<polygon fill="black" stroke="black" points="530.34,-48.02 527.71,-37.76 523.37,-47.42 530.34,-48.02"/>
</g>
<!-- 9 -->
<g id="node10" class="node">
<title>9</title>
<polygon fill="none" stroke="black" points="769.78,-108 666.78,-108 666.78,-72 769.78,-72 769.78,-108"/>
<text text-anchor="middle" x="718.28" y="-84.95" font-family="Times,serif" font-size="14.00">weaver_schema</text>
</g>
<!-- 8&#45;&gt;9 -->
<g id="edge12" class="edge">
<title>8&#45;&gt;9</title>
<path fill="none" stroke="black" d="M500.02,-148.07C540.05,-138.17 596.74,-123.97 655.41,-108.46"/>
<polygon fill="black" stroke="black" points="656.16,-111.89 664.93,-105.94 654.36,-105.12 656.16,-111.89"/>
</g>
<!-- 9&#45;&gt;6 -->
<g id="edge15" class="edge">
<title>9&#45;&gt;6</title>
<path fill="none" stroke="black" d="M666.47,-74.09C663.37,-73.34 660.29,-72.64 657.28,-72 555.94,-50.51 436.72,-34.8 364.11,-26.29"/>
<polygon fill="black" stroke="black" points="364.7,-22.84 354.36,-25.16 363.89,-29.79 364.7,-22.84"/>
</g>
<!-- 9&#45;&gt;7 -->
<g id="edge16" class="edge">
<title>9&#45;&gt;7</title>
<path fill="none" stroke="black" d="M670.82,-71.52C645.11,-62.04 613.13,-50.26 585.99,-40.26"/>
<polygon fill="black" stroke="black" points="587.47,-37.08 576.88,-36.9 585.05,-43.65 587.47,-37.08"/>
</g>
<!-- 10 -->
<g id="node11" class="node">
<title>10</title>
<polygon fill="none" stroke="black" points="372.65,-252 235.9,-252 235.9,-216 372.65,-216 372.65,-252"/>
<text text-anchor="middle" x="304.28" y="-228.95" font-family="Times,serif" font-size="14.00">weaver_semconv_gen</text>
</g>
<!-- 10&#45;&gt;0 -->
<g id="edge17" class="edge">
<title>10&#45;&gt;0</title>
<path fill="none" stroke="black" d="M372.7,-225.33C414.48,-218.3 467.68,-204.99 509.28,-180 527.89,-168.82 526.79,-159.21 542.28,-144 552.02,-134.44 563.12,-124.41 573.1,-115.68"/>
<polygon fill="black" stroke="black" points="575.11,-118.57 580.38,-109.38 570.53,-113.28 575.11,-118.57"/>
</g>
<!-- 10&#45;&gt;2 -->
<g id="edge18" class="edge">
<title>10&#45;&gt;2</title>
<path fill="none" stroke="black" d="M283.76,-215.7C273.69,-207.2 261.37,-196.81 250.35,-187.51"/>
<polygon fill="black" stroke="black" points="252.91,-185.09 243,-181.32 248.39,-190.45 252.91,-185.09"/>
</g>
<!-- 10&#45;&gt;5 -->
<g id="edge19" class="edge">
<title>10&#45;&gt;5</title>
<path fill="none" stroke="black" d="M318.75,-215.59C339.3,-190.86 377.07,-145.41 400.86,-116.77"/>
<polygon fill="black" stroke="black" points="403.39,-119.2 407.09,-109.27 398.01,-114.73 403.39,-119.2"/>
</g>
<!-- 10&#45;&gt;6 -->
<g id="edge21" class="edge">
<title>10&#45;&gt;6</title>
<path fill="none" stroke="black" d="M303.72,-215.85C302.52,-179.14 299.69,-92.66 298.21,-47.53"/>
<polygon fill="black" stroke="black" points="301.72,-47.63 297.89,-37.75 294.72,-47.85 301.72,-47.63"/>
</g>
<!-- 10&#45;&gt;8 -->
<g id="edge20" class="edge">
<title>10&#45;&gt;8</title>
<path fill="none" stroke="black" d="M340,-215.52C358.73,-206.34 381.89,-195.01 401.89,-185.22"/>
<polygon fill="black" stroke="black" points="403.22,-188.47 410.66,-180.93 400.14,-182.18 403.22,-188.47"/>
</g>
<!-- 11 -->
<g id="node12" class="node">
<title>11</title>
<polygon fill="none" stroke="black" points="537.78,-252 428.78,-252 428.78,-216 537.78,-216 537.78,-252"/>
<text text-anchor="middle" x="483.28" y="-228.95" font-family="Times,serif" font-size="14.00">weaver_template</text>
</g>
<!-- 11&#45;&gt;0 -->
<g id="edge22" class="edge">
<title>11&#45;&gt;0</title>
<path fill="none" stroke="black" d="M505.22,-215.53C516.88,-205.72 531.07,-192.88 542.28,-180 559.13,-160.64 575.21,-136.35 586.48,-118.04"/>
<polygon fill="black" stroke="black" points="589.41,-119.95 591.59,-109.58 583.42,-116.33 589.41,-119.95"/>
</g>
<!-- 11&#45;&gt;4 -->
<g id="edge23" class="edge">
<title>11&#45;&gt;4</title>
<path fill="none" stroke="black" d="M448.7,-215.59C397.61,-189.86 301.95,-141.69 245.72,-113.38"/>
<polygon fill="black" stroke="black" points="247.56,-110.38 237.05,-109.01 244.41,-116.64 247.56,-110.38"/>
</g>
<!-- 11&#45;&gt;8 -->
<g id="edge24" class="edge">
<title>11&#45;&gt;8</title>
<path fill="none" stroke="black" d="M474.38,-215.7C470.41,-207.98 465.65,-198.71 461.22,-190.11"/>
<polygon fill="black" stroke="black" points="464.45,-188.74 456.77,-181.45 458.23,-191.94 464.45,-188.74"/>
</g>
<!-- 11&#45;&gt;9 -->
<g id="edge25" class="edge">
<title>11&#45;&gt;9</title>
<path fill="none" stroke="black" d="M512.09,-215.59C554.23,-190.13 632.74,-142.69 679.78,-114.27"/>
<polygon fill="black" stroke="black" points="681.55,-117.28 688.3,-109.11 677.93,-111.29 681.55,-117.28"/>
</g>
<!-- 12 -->
<g id="node13" class="node">
<title>12</title>
<polygon fill="none" stroke="black" points="452.28,-324 398.28,-324 398.28,-288 452.28,-288 452.28,-324"/>
<text text-anchor="middle" x="425.28" y="-300.95" font-family="Times,serif" font-size="14.00">xtask</text>
</g>
<!-- 13 -->
<g id="node14" class="node">
<title>13</title>
<polygon fill="none" stroke="black" points="379.78,-324 324.78,-324 324.78,-288 379.78,-288 379.78,-324"/>
<text text-anchor="middle" x="352.28" y="-300.95" font-family="Times,serif" font-size="14.00">weaver</text>
</g>
<!-- 13&#45;&gt;0 -->
<g id="edge26" class="edge">
<title>13&#45;&gt;0</title>
<path fill="none" stroke="black" d="M379.89,-291.49C383.01,-290.21 386.19,-289.01 389.28,-288 464.73,-263.26 507.32,-307.33 564.28,-252 600,-217.3 604.76,-155.74 604.12,-119.63"/>
<polygon fill="black" stroke="black" points="607.63,-119.82 603.78,-109.95 600.63,-120.06 607.63,-119.82"/>
</g>
<!-- 13&#45;&gt;1 -->
<g id="edge27" class="edge">
<title>13&#45;&gt;1</title>
<path fill="none" stroke="black" d="M324.7,-303.2C265.53,-298.74 129.32,-285.04 99.28,-252 66.56,-216.01 69.83,-155.16 75.4,-119.48"/>
<polygon fill="black" stroke="black" points="78.8,-120.35 77.07,-109.9 71.91,-119.15 78.8,-120.35"/>
</g>
<!-- 13&#45;&gt;3 -->
<g id="edge28" class="edge">
<title>13&#45;&gt;3</title>
<path fill="none" stroke="black" d="M324.65,-294.82C296.86,-284.58 253.21,-268.5 218.16,-255.59"/>
<polygon fill="black" stroke="black" points="219.6,-252.39 209.01,-252.22 217.18,-258.96 219.6,-252.39"/>
</g>
<!-- 13&#45;&gt;4 -->
<g id="edge29" class="edge">
<title>13&#45;&gt;4</title>
<path fill="none" stroke="black" d="M324.53,-303.22C266.45,-298.84 135.21,-285.41 108.28,-252 88.99,-228.07 123.94,-153.01 130.28,-144 138.23,-132.7 149.35,-122.8 160.42,-114.71"/>
<polygon fill="black" stroke="black" points="162.16,-117.77 168.41,-109.21 158.19,-112.01 162.16,-117.77"/>
</g>
<!-- 13&#45;&gt;5 -->
<g id="edge30" class="edge">
<title>13&#45;&gt;5</title>
<path fill="none" stroke="black" d="M379.91,-291.56C383.03,-290.27 386.2,-289.05 389.28,-288 457.05,-264.93 501.67,-307.99 546.28,-252 572.9,-218.58 512.5,-147.46 509.28,-144 498.33,-132.22 484.18,-122.13 470.49,-114"/>
<polygon fill="black" stroke="black" points="472.39,-111.06 461.97,-109.18 468.95,-117.15 472.39,-111.06"/>
</g>
<!-- 13&#45;&gt;6 -->
<g id="edge33" class="edge">
<title>13&#45;&gt;6</title>
<path fill="none" stroke="black" d="M324.33,-302.29C262.68,-295.91 117.3,-278.42 76.28,-252 16.29,-213.37 14.92,-178.7 5.28,-108 3.12,-92.15 -4.97,-84.28 5.28,-72 33.41,-38.31 153.42,-25.99 230.57,-21.51"/>
<polygon fill="black" stroke="black" points="230.32,-25.03 240.11,-20.99 229.93,-18.04 230.32,-25.03"/>
</g>
<!-- 13&#45;&gt;8 -->
<g id="edge31" class="edge">
<title>13&#45;&gt;8</title>
<path fill="none" stroke="black" d="M363.93,-287.59C380.33,-263.08 410.35,-218.19 429.54,-189.52"/>
<polygon fill="black" stroke="black" points="432.34,-191.63 434.99,-181.37 426.52,-187.73 432.34,-191.63"/>
</g>
<!-- 13&#45;&gt;9 -->
<g id="edge32" class="edge">
<title>13&#45;&gt;9</title>
<path fill="none" stroke="black" d="M380.27,-291.25C383.27,-290.05 386.31,-288.93 389.28,-288 475.44,-260.93 511.66,-298.18 589.28,-252 643.77,-219.58 684.58,-155.01 704.58,-118.26"/>
<polygon fill="black" stroke="black" points="707.59,-120.06 709.18,-109.58 701.4,-116.78 707.59,-120.06"/>
</g>
<!-- 13&#45;&gt;10 -->
<g id="edge34" class="edge">
<title>13&#45;&gt;10</title>
<path fill="none" stroke="black" d="M340.41,-287.7C335.01,-279.81 328.49,-270.3 322.48,-261.55"/>
<polygon fill="black" stroke="black" points="325.41,-259.62 316.86,-253.35 319.63,-263.58 325.41,-259.62"/>
</g>
<!-- 13&#45;&gt;11 -->
<g id="edge35" class="edge">
<title>13&#45;&gt;11</title>
<path fill="none" stroke="black" d="M380.06,-290.15C397.71,-280.72 420.91,-268.33 440.84,-257.68"/>
<polygon fill="black" stroke="black" points="442.41,-260.81 449.58,-253.01 439.11,-254.63 442.41,-260.81"/>
</g>
</g>
</svg>
