<?xml version="1.0" encoding="UTF-8" standalone="no"?>
<!DOCTYPE svg PUBLIC "-//W3C//DTD SVG 1.1//EN"
 "http://www.w3.org/Graphics/SVG/1.1/DTD/svg11.dtd">
<!-- Generated by graphviz version 9.0.0 (20230911.1827)
 -->
<!-- Pages: 1 -->
<svg width="653pt" height="332pt"
 viewBox="0.00 0.00 653.47 332.00" xmlns="http://www.w3.org/2000/svg" xmlns:xlink="http://www.w3.org/1999/xlink">
<g id="graph0" class="graph" transform="scale(1 1) rotate(0) translate(4 328)">
<polygon fill="white" stroke="none" points="-4,4 -4,-328 649.47,-328 649.47,4 -4,4"/>
<!-- 0 -->
<g id="node1" class="node">
<title>0</title>
<polygon fill="none" stroke="black" points="645.47,-108 552.97,-108 552.97,-72 645.47,-72 645.47,-108"/>
<text text-anchor="middle" x="599.22" y="-84.95" font-family="Times,serif" font-size="14.00">weaver_cache</text>
</g>
<!-- 1 -->
<g id="node2" class="node">
<title>1</title>
<polygon fill="none" stroke="black" points="195.35,-252 105.1,-252 105.1,-216 195.35,-216 195.35,-252"/>
<text text-anchor="middle" x="150.22" y="-228.95" font-family="Times,serif" font-size="14.00">weaver_forge</text>
</g>
<!-- 2 -->
<g id="node3" class="node">
<title>2</title>
<polygon fill="none" stroke="black" points="535.35,-108 439.1,-108 439.1,-72 535.35,-72 535.35,-108"/>
<text text-anchor="middle" x="487.22" y="-84.95" font-family="Times,serif" font-size="14.00">weaver_logger</text>
</g>
<!-- 1&#45;&gt;2 -->
<g id="edge1" class="edge">
<title>1&#45;&gt;2</title>
<path fill="none" stroke="black" d="M168.26,-215.57C190.15,-195.39 229.02,-162.54 268.22,-144 296.18,-130.78 373.14,-113.67 427.91,-102.52"/>
<polygon fill="black" stroke="black" points="428.29,-106.01 437.4,-100.61 426.91,-99.15 428.29,-106.01"/>
</g>
<!-- 3 -->
<g id="node4" class="node">
<title>3</title>
<polygon fill="none" stroke="black" points="222.97,-108 67.47,-108 67.47,-72 222.97,-72 222.97,-108"/>
<text text-anchor="middle" x="145.22" y="-84.95" font-family="Times,serif" font-size="14.00">weaver_resolved_schema</text>
</g>
<!-- 1&#45;&gt;3 -->
<g id="edge2" class="edge">
<title>1&#45;&gt;3</title>
<path fill="none" stroke="black" d="M149.61,-215.59C148.77,-191.61 147.23,-148.14 146.22,-119.42"/>
<polygon fill="black" stroke="black" points="149.73,-119.49 145.88,-109.62 142.73,-119.74 149.73,-119.49"/>
</g>
<!-- 4 -->
<g id="node5" class="node">
<title>4</title>
<polygon fill="none" stroke="black" points="147.47,-36 36.97,-36 36.97,0 147.47,0 147.47,-36"/>
<text text-anchor="middle" x="92.22" y="-12.95" font-family="Times,serif" font-size="14.00">weaver_semconv</text>
</g>
<!-- 1&#45;&gt;4 -->
<g id="edge4" class="edge">
<title>1&#45;&gt;4</title>
<path fill="none" stroke="black" d="M122.79,-215.54C92.34,-194.35 44.89,-155.49 25.22,-108 19.1,-93.22 18.25,-86.4 25.22,-72 30.71,-60.65 39.94,-51 49.82,-43.17"/>
<polygon fill="black" stroke="black" points="51.75,-46.1 57.77,-37.38 47.62,-40.44 51.75,-46.1"/>
</g>
<!-- 6 -->
<g id="node7" class="node">
<title>6</title>
<polygon fill="none" stroke="black" points="382.85,-180 277.6,-180 277.6,-144 382.85,-144 382.85,-180"/>
<text text-anchor="middle" x="330.22" y="-156.95" font-family="Times,serif" font-size="14.00">weaver_resolver</text>
</g>
<!-- 1&#45;&gt;6 -->
<g id="edge3" class="edge">
<title>1&#45;&gt;6</title>
<path fill="none" stroke="black" d="M195.18,-215.52C219.32,-206.13 249.3,-194.47 274.87,-184.53"/>
<polygon fill="black" stroke="black" points="276.06,-187.82 284.12,-180.93 273.53,-181.29 276.06,-187.82"/>
</g>
<!-- 3&#45;&gt;4 -->
<g id="edge5" class="edge">
<title>3&#45;&gt;4</title>
<path fill="none" stroke="black" d="M132.12,-71.7C126.09,-63.73 118.8,-54.1 112.11,-45.26"/>
<polygon fill="black" stroke="black" points="114.91,-43.17 106.09,-37.31 109.33,-47.4 114.91,-43.17"/>
</g>
<!-- 5 -->
<g id="node6" class="node">
<title>5</title>
<polygon fill="none" stroke="black" points="381.97,-36 280.47,-36 280.47,0 381.97,0 381.97,-36"/>
<text text-anchor="middle" x="331.22" y="-12.95" font-family="Times,serif" font-size="14.00">weaver_version</text>
</g>
<!-- 3&#45;&gt;5 -->
<g id="edge6" class="edge">
<title>3&#45;&gt;5</title>
<path fill="none" stroke="black" d="M191.68,-71.52C216.74,-62.08 247.88,-50.37 274.38,-40.39"/>
<polygon fill="black" stroke="black" points="275.49,-43.71 283.62,-36.91 273.03,-37.16 275.49,-43.71"/>
</g>
<!-- 6&#45;&gt;0 -->
<g id="edge7" class="edge">
<title>6&#45;&gt;0</title>
<path fill="none" stroke="black" d="M383.21,-148.77C424.1,-139.12 482.33,-124.96 541.68,-108.64"/>
<polygon fill="black" stroke="black" points="542.61,-112.01 551.31,-105.97 540.74,-105.26 542.61,-112.01"/>
</g>
<!-- 6&#45;&gt;2 -->
<g id="edge8" class="edge">
<title>6&#45;&gt;2</title>
<path fill="none" stroke="black" d="M369.44,-143.52C390.12,-134.29 415.71,-122.89 437.74,-113.06"/>
<polygon fill="black" stroke="black" points="439.15,-116.27 446.86,-109 436.3,-109.87 439.15,-116.27"/>
</g>
<!-- 6&#45;&gt;3 -->
<g id="edge9" class="edge">
<title>6&#45;&gt;3</title>
<path fill="none" stroke="black" d="M284.02,-143.52C259.09,-134.08 228.12,-122.37 201.76,-112.39"/>
<polygon fill="black" stroke="black" points="203.17,-109.18 192.58,-108.92 200.69,-115.73 203.17,-109.18"/>
</g>
<!-- 6&#45;&gt;4 -->
<g id="edge11" class="edge">
<title>6&#45;&gt;4</title>
<path fill="none" stroke="black" d="M310.76,-143.64C299.23,-133.32 284.36,-119.96 271.22,-108 253.78,-92.12 252.29,-84.4 232.22,-72 209.6,-58.02 182.7,-46.74 158.55,-38.25"/>
<polygon fill="black" stroke="black" points="159.7,-34.94 149.1,-35.03 157.44,-41.57 159.7,-34.94"/>
</g>
<!-- 6&#45;&gt;5 -->
<g id="edge12" class="edge">
<title>6&#45;&gt;5</title>
<path fill="none" stroke="black" d="M360.05,-143.7C372.43,-134.78 385.47,-122.66 392.22,-108 398.92,-93.47 398.86,-86.56 392.22,-72 387.19,-60.97 378.61,-51.35 369.45,-43.44"/>
<polygon fill="black" stroke="black" points="371.77,-40.82 361.77,-37.34 367.42,-46.3 371.77,-40.82"/>
</g>
<!-- 7 -->
<g id="node8" class="node">
<title>7</title>
<polygon fill="none" stroke="black" points="382.72,-108 279.72,-108 279.72,-72 382.72,-72 382.72,-108"/>
<text text-anchor="middle" x="331.22" y="-84.95" font-family="Times,serif" font-size="14.00">weaver_schema</text>
</g>
<!-- 6&#45;&gt;7 -->
<g id="edge10" class="edge">
<title>6&#45;&gt;7</title>
<path fill="none" stroke="black" d="M330.47,-143.7C330.57,-136.41 330.7,-127.73 330.81,-119.54"/>
<polygon fill="black" stroke="black" points="334.31,-119.67 330.96,-109.62 327.31,-119.57 334.31,-119.67"/>
</g>
<!-- 7&#45;&gt;4 -->
<g id="edge13" class="edge">
<title>7&#45;&gt;4</title>
<path fill="none" stroke="black" d="M279.36,-73.81C244,-63.45 196.86,-49.65 158.73,-38.48"/>
<polygon fill="black" stroke="black" points="159.76,-35.13 149.18,-35.68 157.79,-41.85 159.76,-35.13"/>
</g>
<!-- 7&#45;&gt;5 -->
<g id="edge14" class="edge">
<title>7&#45;&gt;5</title>
<path fill="none" stroke="black" d="M331.22,-71.7C331.22,-64.41 331.22,-55.73 331.22,-47.54"/>
<polygon fill="black" stroke="black" points="334.72,-47.62 331.22,-37.62 327.72,-47.62 334.72,-47.62"/>
</g>
<!-- 8 -->
<g id="node9" class="node">
<title>8</title>
<polygon fill="none" stroke="black" points="350.6,-252 213.85,-252 213.85,-216 350.6,-216 350.6,-252"/>
<text text-anchor="middle" x="282.22" y="-228.95" font-family="Times,serif" font-size="14.00">weaver_semconv_gen</text>
</g>
<!-- 8&#45;&gt;2 -->
<g id="edge15" class="edge">
<title>8&#45;&gt;2</title>
<path fill="none" stroke="black" d="M325.93,-215.61C346.82,-206.4 371.68,-194.08 392.22,-180 419.06,-161.61 445.75,-135.76 463.98,-116.65"/>
<polygon fill="black" stroke="black" points="466.4,-119.19 470.69,-109.5 461.29,-114.4 466.4,-119.19"/>
</g>
<!-- 8&#45;&gt;3 -->
<g id="edge16" class="edge">
<title>8&#45;&gt;3</title>
<path fill="none" stroke="black" d="M265.42,-215.59C241.36,-190.65 196.95,-144.62 169.37,-116.03"/>
<polygon fill="black" stroke="black" points="172.24,-113.97 162.78,-109.2 167.21,-118.83 172.24,-113.97"/>
</g>
<!-- 8&#45;&gt;4 -->
<g id="edge18" class="edge">
<title>8&#45;&gt;4</title>
<path fill="none" stroke="black" d="M214.61,-215.56C161.72,-197.96 91.71,-165.03 58.22,-108 46.65,-88.29 57.47,-63.93 69.89,-45.68"/>
<polygon fill="black" stroke="black" points="72.64,-47.85 75.72,-37.72 66.99,-43.72 72.64,-47.85"/>
</g>
<!-- 8&#45;&gt;6 -->
<g id="edge17" class="edge">
<title>8&#45;&gt;6</title>
<path fill="none" stroke="black" d="M294.09,-215.7C299.49,-207.81 306.01,-198.3 312.02,-189.55"/>
<polygon fill="black" stroke="black" points="314.87,-191.58 317.64,-181.35 309.1,-187.62 314.87,-191.58"/>
</g>
<!-- 9 -->
<g id="node10" class="node">
<title>9</title>
<polygon fill="none" stroke="black" points="515.72,-252 406.72,-252 406.72,-216 515.72,-216 515.72,-252"/>
<text text-anchor="middle" x="461.22" y="-228.95" font-family="Times,serif" font-size="14.00">weaver_template</text>
</g>
<!-- 9&#45;&gt;0 -->
<g id="edge19" class="edge">
<title>9&#45;&gt;0</title>
<path fill="none" stroke="black" d="M478.14,-215.59C502.38,-190.65 547.11,-144.62 574.9,-116.03"/>
<polygon fill="black" stroke="black" points="577.08,-118.81 581.54,-109.2 572.06,-113.93 577.08,-118.81"/>
</g>
<!-- 9&#45;&gt;2 -->
<g id="edge20" class="edge">
<title>9&#45;&gt;2</title>
<path fill="none" stroke="black" d="M464.41,-215.59C468.8,-191.61 476.76,-148.14 482.02,-119.42"/>
<polygon fill="black" stroke="black" points="485.46,-120.07 483.82,-109.6 478.57,-118.81 485.46,-120.07"/>
</g>
<!-- 9&#45;&gt;6 -->
<g id="edge21" class="edge">
<title>9&#45;&gt;6</title>
<path fill="none" stroke="black" d="M428.5,-215.52C411.57,-206.47 390.71,-195.32 372.56,-185.62"/>
<polygon fill="black" stroke="black" points="374.33,-182.6 363.86,-180.97 371.03,-188.77 374.33,-182.6"/>
</g>
<!-- 9&#45;&gt;7 -->
<g id="edge22" class="edge">
<title>9&#45;&gt;7</title>
<path fill="none" stroke="black" d="M449.43,-215.8C436.37,-197.27 414.25,-167.3 392.22,-144 382.9,-134.15 371.92,-124.17 361.87,-115.58"/>
<polygon fill="black" stroke="black" points="364.4,-113.14 354.49,-109.39 359.9,-118.5 364.4,-113.14"/>
</g>
<!-- 10 -->
<g id="node11" class="node">
<title>10</title>
<polygon fill="none" stroke="black" points="382.22,-324 328.22,-324 328.22,-288 382.22,-288 382.22,-324"/>
<text text-anchor="middle" x="355.22" y="-300.95" font-family="Times,serif" font-size="14.00">xtask</text>
</g>
<!-- 11 -->
<g id="node12" class="node">
<title>11</title>
<polygon fill="none" stroke="black" points="309.72,-324 254.72,-324 254.72,-288 309.72,-288 309.72,-324"/>
<text text-anchor="middle" x="282.22" y="-300.95" font-family="Times,serif" font-size="14.00">weaver</text>
</g>
<!-- 11&#45;&gt;0 -->
<g id="edge23" class="edge">
<title>11&#45;&gt;0</title>
<path fill="none" stroke="black" d="M310.19,-291.19C313.2,-289.99 316.25,-288.9 319.22,-288 416.99,-258.4 468.43,-318.2 546.22,-252 585.28,-218.76 595.72,-156.15 598.41,-119.57"/>
<polygon fill="black" stroke="black" points="601.89,-119.94 598.97,-109.76 594.91,-119.54 601.89,-119.94"/>
</g>
<!-- 11&#45;&gt;1 -->
<g id="edge24" class="edge">
<title>11&#45;&gt;1</title>
<path fill="none" stroke="black" d="M254.23,-290.15C236.44,-280.72 213.07,-268.33 192.99,-257.68"/>
<polygon fill="black" stroke="black" points="194.64,-254.59 184.17,-253 191.36,-260.78 194.64,-254.59"/>
</g>
<!-- 11&#45;&gt;2 -->
<g id="edge25" class="edge">
<title>11&#45;&gt;2</title>
<path fill="none" stroke="black" d="M310.21,-291.24C313.21,-290.03 316.25,-288.92 319.22,-288 407.96,-260.37 465.43,-323.15 525.22,-252 557.43,-213.68 528.16,-152.91 506.21,-118.02"/>
<polygon fill="black" stroke="black" points="509.21,-116.22 500.81,-109.76 503.35,-120.05 509.21,-116.22"/>
</g>
<!-- 11&#45;&gt;3 -->
<g id="edge26" class="edge">
<title>11&#45;&gt;3</title>
<path fill="none" stroke="black" d="M254.44,-301.58C205.59,-294.93 107.52,-278.55 87.22,-252 55.59,-210.62 94.49,-150.4 122.15,-116.56"/>
<polygon fill="black" stroke="black" points="124.49,-119.21 128.26,-109.31 119.14,-114.7 124.49,-119.21"/>
</g>
<!-- 11&#45;&gt;4 -->
<g id="edge29" class="edge">
<title>11&#45;&gt;4</title>
<path fill="none" stroke="black" d="M254.4,-305.65C210.34,-305.19 124.22,-297.93 72.22,-252 9.53,-196.62 -21.24,-146.28 17.22,-72 23.41,-60.05 33.66,-50.23 44.63,-42.42"/>
<polygon fill="black" stroke="black" points="46.22,-45.56 52.68,-37.16 42.39,-39.7 46.22,-45.56"/>
</g>
<!-- 11&#45;&gt;6 -->
<g id="edge27" class="edge">
<title>11&#45;&gt;6</title>
<path fill="none" stroke="black" d="M310.01,-289.62C329.77,-278.03 353.75,-262.41 359.22,-252 369.57,-232.31 360.56,-208.23 349.94,-190.08"/>
<polygon fill="black" stroke="black" points="352.93,-188.27 344.61,-181.7 347.02,-192.02 352.93,-188.27"/>
</g>
<!-- 11&#45;&gt;7 -->
<g id="edge28" class="edge">
<title>11&#45;&gt;7</title>
<path fill="none" stroke="black" d="M254.47,-303.1C194.68,-297.78 61.79,-278.77 96.22,-216 131.07,-152.47 211.39,-119.87 268.4,-104.15"/>
<polygon fill="black" stroke="black" points="269.24,-107.55 278.01,-101.61 267.45,-100.78 269.24,-107.55"/>
</g>
<!-- 11&#45;&gt;8 -->
<g id="edge30" class="edge">
<title>11&#45;&gt;8</title>
<path fill="none" stroke="black" d="M282.22,-287.7C282.22,-280.41 282.22,-271.73 282.22,-263.54"/>
<polygon fill="black" stroke="black" points="285.72,-263.62 282.22,-253.62 278.72,-263.62 285.72,-263.62"/>
</g>
<!-- 11&#45;&gt;9 -->
<g id="edge31" class="edge">
<title>11&#45;&gt;9</title>
<path fill="none" stroke="black" d="M310.01,-291.97C313.1,-290.6 316.22,-289.25 319.22,-288 345.9,-276.91 375.82,-265.58 401.29,-256.26"/>
<polygon fill="black" stroke="black" points="402.29,-259.62 410.49,-252.91 399.9,-253.04 402.29,-259.62"/>
</g>
</g>
</svg>
