<?xml version="1.0" encoding="UTF-8" standalone="no"?>
<!DOCTYPE svg PUBLIC "-//W3C//DTD SVG 1.1//EN"
 "http://www.w3.org/Graphics/SVG/1.1/DTD/svg11.dtd">
<!-- Generated by graphviz version 13.1.1 (20250719.2154)
 -->
<!-- Pages: 1 -->
<svg width="542pt" height="476pt"
 viewBox="0.00 0.00 542.00 476.00" xmlns="http://www.w3.org/2000/svg" xmlns:xlink="http://www.w3.org/1999/xlink">
<g id="graph0" class="graph" transform="scale(1 1) rotate(0) translate(4 472)">
<polygon fill="white" stroke="none" points="-4,4 -4,-472 538,-472 538,4 -4,4"/>
<!-- 0 -->
<g id="node1" class="node">
<title>0</title>
<polygon fill="none" stroke="black" points="482.88,-252 379.12,-252 379.12,-216 482.88,-216 482.88,-252"/>
<text xml:space="preserve" text-anchor="middle" x="431" y="-228.95" font-family="Times,serif" font-size="14.00">weaver_checker</text>
</g>
<!-- 1 -->
<g id="node2" class="node">
<title>1</title>
<polygon fill="none" stroke="black" points="380.25,-36 269.75,-36 269.75,0 380.25,0 380.25,-36"/>
<text xml:space="preserve" text-anchor="middle" x="325" y="-12.95" font-family="Times,serif" font-size="14.00">weaver_common</text>
</g>
<!-- 0&#45;&gt;1 -->
<g id="edge1" class="edge">
<title>0&#45;&gt;1</title>
<path fill="none" stroke="black" d="M430.23,-215.97C428.06,-184.84 419.89,-117.72 389,-72 381.7,-61.2 371.59,-51.42 361.55,-43.29"/>
<polygon fill="black" stroke="black" points="363.7,-40.53 353.64,-37.22 359.44,-46.09 363.7,-40.53"/>
</g>
<!-- 2 -->
<g id="node3" class="node">
<title>2</title>
<polygon fill="none" stroke="black" points="462.12,-468 329.88,-468 329.88,-432 462.12,-432 462.12,-468"/>
<text xml:space="preserve" text-anchor="middle" x="396" y="-444.95" font-family="Times,serif" font-size="14.00">weaver_codegen_test</text>
</g>
<!-- 3 -->
<g id="node4" class="node">
<title>3</title>
<polygon fill="none" stroke="black" points="329.12,-324 238.88,-324 238.88,-288 329.12,-288 329.12,-324"/>
<text xml:space="preserve" text-anchor="middle" x="284" y="-300.95" font-family="Times,serif" font-size="14.00">weaver_forge</text>
</g>
<!-- 8 -->
<g id="node9" class="node">
<title>8</title>
<polygon fill="none" stroke="black" points="336.62,-252 231.38,-252 231.38,-216 336.62,-216 336.62,-252"/>
<text xml:space="preserve" text-anchor="middle" x="284" y="-228.95" font-family="Times,serif" font-size="14.00">weaver_resolver</text>
</g>
<!-- 3&#45;&gt;8 -->
<g id="edge2" class="edge">
<title>3&#45;&gt;8</title>
<path fill="none" stroke="black" d="M284,-287.7C284,-280.41 284,-271.73 284,-263.54"/>
<polygon fill="black" stroke="black" points="287.5,-263.62 284,-253.62 280.5,-263.62 287.5,-263.62"/>
</g>
<!-- 4 -->
<g id="node5" class="node">
<title>4</title>
<polygon fill="none" stroke="black" points="229.62,-180 148.38,-180 148.38,-144 229.62,-144 229.62,-180"/>
<text xml:space="preserve" text-anchor="middle" x="189" y="-156.95" font-family="Times,serif" font-size="14.00">weaver_diff</text>
</g>
<!-- 5 -->
<g id="node6" class="node">
<title>5</title>
<polygon fill="none" stroke="black" points="402.75,-180 247.25,-180 247.25,-144 402.75,-144 402.75,-180"/>
<text xml:space="preserve" text-anchor="middle" x="325" y="-156.95" font-family="Times,serif" font-size="14.00">weaver_resolved_schema</text>
</g>
<!-- 6 -->
<g id="node7" class="node">
<title>6</title>
<polygon fill="none" stroke="black" points="380.25,-108 269.75,-108 269.75,-72 380.25,-72 380.25,-108"/>
<text xml:space="preserve" text-anchor="middle" x="325" y="-84.95" font-family="Times,serif" font-size="14.00">weaver_semconv</text>
</g>
<!-- 5&#45;&gt;6 -->
<g id="edge3" class="edge">
<title>5&#45;&gt;6</title>
<path fill="none" stroke="black" d="M325,-143.7C325,-136.41 325,-127.73 325,-119.54"/>
<polygon fill="black" stroke="black" points="328.5,-119.62 325,-109.62 321.5,-119.62 328.5,-119.62"/>
</g>
<!-- 7 -->
<g id="node8" class="node">
<title>7</title>
<polygon fill="none" stroke="black" points="237.75,-108 136.25,-108 136.25,-72 237.75,-72 237.75,-108"/>
<text xml:space="preserve" text-anchor="middle" x="187" y="-84.95" font-family="Times,serif" font-size="14.00">weaver_version</text>
</g>
<!-- 5&#45;&gt;7 -->
<g id="edge4" class="edge">
<title>5&#45;&gt;7</title>
<path fill="none" stroke="black" d="M290.53,-143.52C272.53,-134.39 250.31,-123.11 231.07,-113.35"/>
<polygon fill="black" stroke="black" points="232.88,-110.35 222.38,-108.95 229.71,-116.59 232.88,-110.35"/>
</g>
<!-- 6&#45;&gt;1 -->
<g id="edge5" class="edge">
<title>6&#45;&gt;1</title>
<path fill="none" stroke="black" d="M325,-71.7C325,-64.41 325,-55.73 325,-47.54"/>
<polygon fill="black" stroke="black" points="328.5,-47.62 325,-37.62 321.5,-47.62 328.5,-47.62"/>
</g>
<!-- 8&#45;&gt;4 -->
<g id="edge6" class="edge">
<title>8&#45;&gt;4</title>
<path fill="none" stroke="black" d="M260.52,-215.7C248.76,-207.03 234.33,-196.4 221.52,-186.96"/>
<polygon fill="black" stroke="black" points="223.89,-184.36 213.76,-181.24 219.74,-189.99 223.89,-184.36"/>
</g>
<!-- 8&#45;&gt;5 -->
<g id="edge7" class="edge">
<title>8&#45;&gt;5</title>
<path fill="none" stroke="black" d="M294.13,-215.7C298.7,-207.9 304.2,-198.51 309.29,-189.83"/>
<polygon fill="black" stroke="black" points="312.18,-191.81 314.22,-181.41 306.14,-188.27 312.18,-191.81"/>
</g>
<!-- 9 -->
<g id="node10" class="node">
<title>9</title>
<polygon fill="none" stroke="black" points="197.25,-396 110.75,-396 110.75,-360 197.25,-360 197.25,-396"/>
<text xml:space="preserve" text-anchor="middle" x="154" y="-372.95" font-family="Times,serif" font-size="14.00">weaver_emit</text>
</g>
<!-- 9&#45;&gt;3 -->
<g id="edge8" class="edge">
<title>9&#45;&gt;3</title>
<path fill="none" stroke="black" d="M186.47,-359.52C203.27,-350.47 223.98,-339.32 241.98,-329.62"/>
<polygon fill="black" stroke="black" points="243.47,-332.8 250.61,-324.98 240.15,-326.64 243.47,-332.8"/>
</g>
<!-- 10 -->
<g id="node11" class="node">
<title>10</title>
<polygon fill="none" stroke="black" points="491.12,-396 370.88,-396 370.88,-360 491.12,-360 491.12,-396"/>
<text xml:space="preserve" text-anchor="middle" x="431" y="-372.95" font-family="Times,serif" font-size="14.00">weaver_live_check</text>
</g>
<!-- 10&#45;&gt;0 -->
<g id="edge9" class="edge">
<title>10&#45;&gt;0</title>
<path fill="none" stroke="black" d="M431,-359.59C431,-335.61 431,-292.14 431,-263.42"/>
<polygon fill="black" stroke="black" points="434.5,-263.62 431,-253.62 427.5,-263.62 434.5,-263.62"/>
</g>
<!-- 10&#45;&gt;3 -->
<g id="edge10" class="edge">
<title>10&#45;&gt;3</title>
<path fill="none" stroke="black" d="M394.28,-359.52C375.09,-350.38 351.4,-339.09 330.89,-329.33"/>
<polygon fill="black" stroke="black" points="332.4,-326.17 321.87,-325.03 329.39,-332.49 332.4,-326.17"/>
</g>
<!-- 11 -->
<g id="node12" class="node">
<title>11</title>
<polygon fill="none" stroke="black" points="130,-180 0,-180 0,-144 130,-144 130,-180"/>
<text xml:space="preserve" text-anchor="middle" x="65" y="-156.95" font-family="Times,serif" font-size="14.00">weaver_otel_schema</text>
</g>
<!-- 11&#45;&gt;1 -->
<g id="edge11" class="edge">
<title>11&#45;&gt;1</title>
<path fill="none" stroke="black" d="M72.42,-143.84C82.05,-123.6 100.8,-90.39 127,-72 165.61,-44.91 217.31,-31.66 258.2,-25.19"/>
<polygon fill="black" stroke="black" points="258.55,-28.67 267.93,-23.75 257.53,-21.75 258.55,-28.67"/>
</g>
<!-- 11&#45;&gt;7 -->
<g id="edge12" class="edge">
<title>11&#45;&gt;7</title>
<path fill="none" stroke="black" d="M95.47,-143.52C111.16,-134.51 130.49,-123.42 147.33,-113.76"/>
<polygon fill="black" stroke="black" points="148.67,-117.03 155.6,-109.01 145.19,-110.95 148.67,-117.03"/>
</g>
<!-- 12 -->
<g id="node13" class="node">
<title>12</title>
<polygon fill="none" stroke="black" points="352.38,-396 215.62,-396 215.62,-360 352.38,-360 352.38,-396"/>
<text xml:space="preserve" text-anchor="middle" x="284" y="-372.95" font-family="Times,serif" font-size="14.00">weaver_semconv_gen</text>
</g>
<!-- 12&#45;&gt;3 -->
<g id="edge13" class="edge">
<title>12&#45;&gt;3</title>
<path fill="none" stroke="black" d="M284,-359.7C284,-352.41 284,-343.73 284,-335.54"/>
<polygon fill="black" stroke="black" points="287.5,-335.62 284,-325.62 280.5,-335.62 287.5,-335.62"/>
</g>
<!-- 13 -->
<g id="node14" class="node">
<title>13</title>
<polygon fill="none" stroke="black" points="534,-468 480,-468 480,-432 534,-432 534,-468"/>
<text xml:space="preserve" text-anchor="middle" x="507" y="-444.95" font-family="Times,serif" font-size="14.00">xtask</text>
</g>
<!-- 14 -->
<g id="node15" class="node">
<title>14</title>
<polygon fill="none" stroke="black" points="311.5,-468 256.5,-468 256.5,-432 311.5,-432 311.5,-468"/>
<text xml:space="preserve" text-anchor="middle" x="284" y="-444.95" font-family="Times,serif" font-size="14.00">weaver</text>
</g>
<!-- 14&#45;&gt;9 -->
<g id="edge14" class="edge">
<title>14&#45;&gt;9</title>
<path fill="none" stroke="black" d="M256.11,-433.98C238.7,-424.61 215.96,-412.36 196.35,-401.8"/>
<polygon fill="black" stroke="black" points="198.23,-398.84 187.76,-397.18 194.91,-405 198.23,-398.84"/>
</g>
<!-- 14&#45;&gt;10 -->
<g id="edge15" class="edge">
<title>14&#45;&gt;10</title>
<path fill="none" stroke="black" d="M312,-435.67C332.39,-425.96 360.48,-412.58 384.25,-401.26"/>
<polygon fill="black" stroke="black" points="385.59,-404.5 393.11,-397.04 382.58,-398.18 385.59,-404.5"/>
</g>
<!-- 14&#45;&gt;12 -->
<g id="edge16" class="edge">
<title>14&#45;&gt;12</title>
<path fill="none" stroke="black" d="M284,-431.7C284,-424.41 284,-415.73 284,-407.54"/>
<polygon fill="black" stroke="black" points="287.5,-407.62 284,-397.62 280.5,-407.62 287.5,-407.62"/>
</g>
</g>
</svg>
