<?xml version="1.0" encoding="UTF-8" standalone="no"?>
<!DOCTYPE svg PUBLIC "-//W3C//DTD SVG 1.1//EN"
 "http://www.w3.org/Graphics/SVG/1.1/DTD/svg11.dtd">
<!-- Generated by graphviz version 9.0.0 (20230911.1827)
 -->
<!-- Pages: 1 -->
<svg width="421pt" height="476pt"
 viewBox="0.00 0.00 420.62 476.00" xmlns="http://www.w3.org/2000/svg" xmlns:xlink="http://www.w3.org/1999/xlink">
<g id="graph0" class="graph" transform="scale(1 1) rotate(0) translate(4 472)">
<polygon fill="white" stroke="none" points="-4,4 -4,-472 416.62,-472 416.62,4 -4,4"/>
<!-- 0 -->
<g id="node1" class="node">
<title>0</title>
<polygon fill="none" stroke="black" points="140.12,-180 47.62,-180 47.62,-144 140.12,-144 140.12,-180"/>
<text text-anchor="middle" x="93.88" y="-156.95" font-family="Times,serif" font-size="14.00">weaver_cache</text>
</g>
<!-- 1 -->
<g id="node2" class="node">
<title>1</title>
<polygon fill="none" stroke="black" points="103.75,-324 0,-324 0,-288 103.75,-288 103.75,-324"/>
<text text-anchor="middle" x="51.88" y="-300.95" font-family="Times,serif" font-size="14.00">weaver_checker</text>
</g>
<!-- 2 -->
<g id="node3" class="node">
<title>2</title>
<polygon fill="none" stroke="black" points="170.12,-36 59.62,-36 59.62,0 170.12,0 170.12,-36"/>
<text text-anchor="middle" x="114.88" y="-12.95" font-family="Times,serif" font-size="14.00">weaver_common</text>
</g>
<!-- 1&#45;&gt;2 -->
<g id="edge1" class="edge">
<title>1&#45;&gt;2</title>
<path fill="none" stroke="black" d="M46.6,-287.7C38.33,-257.8 24.65,-194.77 38.88,-144 49.4,-106.43 74.66,-68.94 93.18,-44.96"/>
<polygon fill="black" stroke="black" points="95.74,-47.36 99.21,-37.35 90.26,-43.02 95.74,-47.36"/>
</g>
<!-- 3 -->
<g id="node4" class="node">
<title>3</title>
<polygon fill="none" stroke="black" points="287,-468 154.75,-468 154.75,-432 287,-432 287,-468"/>
<text text-anchor="middle" x="220.88" y="-444.95" font-family="Times,serif" font-size="14.00">weaver_codegen_test</text>
</g>
<!-- 4 -->
<g id="node5" class="node">
<title>4</title>
<polygon fill="none" stroke="black" points="228,-324 137.75,-324 137.75,-288 228,-288 228,-324"/>
<text text-anchor="middle" x="182.88" y="-300.95" font-family="Times,serif" font-size="14.00">weaver_forge</text>
</g>
<!-- 9 -->
<g id="node10" class="node">
<title>9</title>
<polygon fill="none" stroke="black" points="243.5,-252 138.25,-252 138.25,-216 243.5,-216 243.5,-252"/>
<text text-anchor="middle" x="190.88" y="-228.95" font-family="Times,serif" font-size="14.00">weaver_resolver</text>
</g>
<!-- 4&#45;&gt;9 -->
<g id="edge2" class="edge">
<title>4&#45;&gt;9</title>
<path fill="none" stroke="black" d="M184.85,-287.7C185.69,-280.41 186.68,-271.73 187.61,-263.54"/>
<polygon fill="black" stroke="black" points="191.09,-263.94 188.75,-253.61 184.14,-263.15 191.09,-263.94"/>
</g>
<!-- 5 -->
<g id="node6" class="node">
<title>5</title>
<polygon fill="none" stroke="black" points="239.5,-180 158.25,-180 158.25,-144 239.5,-144 239.5,-180"/>
<text text-anchor="middle" x="198.88" y="-156.95" font-family="Times,serif" font-size="14.00">weaver_diff</text>
</g>
<!-- 6 -->
<g id="node7" class="node">
<title>6</title>
<polygon fill="none" stroke="black" points="412.62,-180 257.12,-180 257.12,-144 412.62,-144 412.62,-180"/>
<text text-anchor="middle" x="334.88" y="-156.95" font-family="Times,serif" font-size="14.00">weaver_resolved_schema</text>
</g>
<!-- 7 -->
<g id="node8" class="node">
<title>7</title>
<polygon fill="none" stroke="black" points="218.12,-108 107.62,-108 107.62,-72 218.12,-72 218.12,-108"/>
<text text-anchor="middle" x="162.88" y="-84.95" font-family="Times,serif" font-size="14.00">weaver_semconv</text>
</g>
<!-- 6&#45;&gt;7 -->
<g id="edge3" class="edge">
<title>6&#45;&gt;7</title>
<path fill="none" stroke="black" d="M291.92,-143.52C268.95,-134.17 240.46,-122.57 216.1,-112.66"/>
<polygon fill="black" stroke="black" points="217.57,-109.48 206.99,-108.95 214.93,-115.96 217.57,-109.48"/>
</g>
<!-- 8 -->
<g id="node9" class="node">
<title>8</title>
<polygon fill="none" stroke="black" points="385.62,-108 284.12,-108 284.12,-72 385.62,-72 385.62,-108"/>
<text text-anchor="middle" x="334.88" y="-84.95" font-family="Times,serif" font-size="14.00">weaver_version</text>
</g>
<!-- 6&#45;&gt;8 -->
<g id="edge4" class="edge">
<title>6&#45;&gt;8</title>
<path fill="none" stroke="black" d="M334.88,-143.7C334.88,-136.41 334.88,-127.73 334.88,-119.54"/>
<polygon fill="black" stroke="black" points="338.38,-119.62 334.88,-109.62 331.38,-119.62 338.38,-119.62"/>
</g>
<!-- 7&#45;&gt;2 -->
<g id="edge5" class="edge">
<title>7&#45;&gt;2</title>
<path fill="none" stroke="black" d="M151.01,-71.7C145.6,-63.81 139.08,-54.3 133.08,-45.55"/>
<polygon fill="black" stroke="black" points="136,-43.62 127.46,-37.35 130.23,-47.58 136,-43.62"/>
</g>
<!-- 9&#45;&gt;0 -->
<g id="edge6" class="edge">
<title>9&#45;&gt;0</title>
<path fill="none" stroke="black" d="M166.9,-215.7C154.89,-207.03 140.16,-196.4 127.08,-186.96"/>
<polygon fill="black" stroke="black" points="129.3,-184.25 119.14,-181.23 125.2,-189.92 129.3,-184.25"/>
</g>
<!-- 9&#45;&gt;5 -->
<g id="edge7" class="edge">
<title>9&#45;&gt;5</title>
<path fill="none" stroke="black" d="M192.85,-215.7C193.69,-208.41 194.68,-199.73 195.61,-191.54"/>
<polygon fill="black" stroke="black" points="199.09,-191.94 196.75,-181.61 192.14,-191.15 199.09,-191.94"/>
</g>
<!-- 9&#45;&gt;6 -->
<g id="edge8" class="edge">
<title>9&#45;&gt;6</title>
<path fill="none" stroke="black" d="M226.84,-215.52C245.71,-206.34 269.03,-195.01 289.17,-185.22"/>
<polygon fill="black" stroke="black" points="290.54,-188.44 298.01,-180.92 287.48,-182.15 290.54,-188.44"/>
</g>
<!-- 10 -->
<g id="node11" class="node">
<title>10</title>
<polygon fill="none" stroke="black" points="238.25,-396 101.5,-396 101.5,-360 238.25,-360 238.25,-396"/>
<text text-anchor="middle" x="169.88" y="-372.95" font-family="Times,serif" font-size="14.00">weaver_semconv_gen</text>
</g>
<!-- 10&#45;&gt;4 -->
<g id="edge9" class="edge">
<title>10&#45;&gt;4</title>
<path fill="none" stroke="black" d="M173.09,-359.7C174.46,-352.32 176.09,-343.52 177.63,-335.25"/>
<polygon fill="black" stroke="black" points="181.04,-336.06 179.42,-325.59 174.15,-334.79 181.04,-336.06"/>
</g>
<!-- 11 -->
<g id="node12" class="node">
<title>11</title>
<polygon fill="none" stroke="black" points="358.88,-468 304.88,-468 304.88,-432 358.88,-432 358.88,-468"/>
<text text-anchor="middle" x="331.88" y="-444.95" font-family="Times,serif" font-size="14.00">xtask</text>
</g>
<!-- 12 -->
<g id="node13" class="node">
<title>12</title>
<polygon fill="none" stroke="black" points="136.38,-468 81.38,-468 81.38,-432 136.38,-432 136.38,-468"/>
<text text-anchor="middle" x="108.88" y="-444.95" font-family="Times,serif" font-size="14.00">weaver</text>
</g>
<!-- 12&#45;&gt;1 -->
<g id="edge10" class="edge">
<title>12&#45;&gt;1</title>
<path fill="none" stroke="black" d="M101.89,-431.59C92.18,-407.4 74.5,-363.36 62.98,-334.65"/>
<polygon fill="black" stroke="black" points="66.28,-333.49 59.31,-325.52 59.78,-336.1 66.28,-333.49"/>
</g>
<!-- 12&#45;&gt;10 -->
<g id="edge11" class="edge">
<title>12&#45;&gt;10</title>
<path fill="none" stroke="black" d="M123.95,-431.7C131.05,-423.56 139.65,-413.69 147.48,-404.7"/>
<polygon fill="black" stroke="black" points="150.04,-407.08 153.98,-397.25 144.77,-402.49 150.04,-407.08"/>
</g>
</g>
</svg>
