<?xml version="1.0" encoding="UTF-8" standalone="no"?>
<!DOCTYPE svg PUBLIC "-//W3C//DTD SVG 1.1//EN"
 "http://www.w3.org/Graphics/SVG/1.1/DTD/svg11.dtd">
<!-- Generated by graphviz version 9.0.0 (20230911.1827)
 -->
<!-- Pages: 1 -->
<svg width="618pt" height="332pt"
 viewBox="0.00 0.00 617.76 332.00" xmlns="http://www.w3.org/2000/svg" xmlns:xlink="http://www.w3.org/1999/xlink">
<g id="graph0" class="graph" transform="scale(1 1) rotate(0) translate(4 328)">
<polygon fill="white" stroke="none" points="-4,4 -4,-328 613.76,-328 613.76,4 -4,4"/>
<!-- 0 -->
<g id="node1" class="node">
<title>0</title>
<polygon fill="none" stroke="black" points="92.5,-108 0,-108 0,-72 92.5,-72 92.5,-108"/>
<text text-anchor="middle" x="46.25" y="-84.95" font-family="Times,serif" font-size="14.00">weaver_cache</text>
</g>
<!-- 1 -->
<g id="node2" class="node">
<title>1</title>
<polygon fill="none" stroke="black" points="454.38,-252 364.12,-252 364.12,-216 454.38,-216 454.38,-252"/>
<text text-anchor="middle" x="409.25" y="-228.95" font-family="Times,serif" font-size="14.00">weaver_forge</text>
</g>
<!-- 2 -->
<g id="node3" class="node">
<title>2</title>
<polygon fill="none" stroke="black" points="578.38,-108 482.12,-108 482.12,-72 578.38,-72 578.38,-108"/>
<text text-anchor="middle" x="530.25" y="-84.95" font-family="Times,serif" font-size="14.00">weaver_logger</text>
</g>
<!-- 1&#45;&gt;2 -->
<g id="edge1" class="edge">
<title>1&#45;&gt;2</title>
<path fill="none" stroke="black" d="M427.52,-215.9C438.03,-205.78 451.28,-192.53 462.25,-180 480.03,-159.69 498.52,-135.24 511.72,-117.11"/>
<polygon fill="black" stroke="black" points="514.21,-119.64 517.23,-109.49 508.53,-115.54 514.21,-119.64"/>
</g>
<!-- 3 -->
<g id="node4" class="node">
<title>3</title>
<polygon fill="none" stroke="black" points="426,-108 270.5,-108 270.5,-72 426,-72 426,-108"/>
<text text-anchor="middle" x="348.25" y="-84.95" font-family="Times,serif" font-size="14.00">weaver_resolved_schema</text>
</g>
<!-- 1&#45;&gt;3 -->
<g id="edge2" class="edge">
<title>1&#45;&gt;3</title>
<path fill="none" stroke="black" d="M407.89,-215.52C405.93,-197.01 401.22,-167.3 390.25,-144 385.74,-134.43 379.21,-125.03 372.63,-116.87"/>
<polygon fill="black" stroke="black" points="375.41,-114.74 366.27,-109.39 370.08,-119.28 375.41,-114.74"/>
</g>
<!-- 4 -->
<g id="node5" class="node">
<title>4</title>
<polygon fill="none" stroke="black" points="509.5,-36 399,-36 399,0 509.5,0 509.5,-36"/>
<text text-anchor="middle" x="454.25" y="-12.95" font-family="Times,serif" font-size="14.00">weaver_semconv</text>
</g>
<!-- 1&#45;&gt;4 -->
<g id="edge4" class="edge">
<title>1&#45;&gt;4</title>
<path fill="none" stroke="black" d="M454.52,-216.04C497.74,-197.09 560.18,-161.8 587.25,-108 594.44,-93.71 596.23,-85.24 587.25,-72 572.12,-49.69 545.94,-36.77 520.79,-29.29"/>
<polygon fill="black" stroke="black" points="521.76,-25.92 511.19,-26.7 519.94,-32.68 521.76,-25.92"/>
</g>
<!-- 6 -->
<g id="node7" class="node">
<title>6</title>
<polygon fill="none" stroke="black" points="380.88,-180 275.62,-180 275.62,-144 380.88,-144 380.88,-180"/>
<text text-anchor="middle" x="328.25" y="-156.95" font-family="Times,serif" font-size="14.00">weaver_resolver</text>
</g>
<!-- 1&#45;&gt;6 -->
<g id="edge3" class="edge">
<title>1&#45;&gt;6</title>
<path fill="none" stroke="black" d="M389.23,-215.7C379.49,-207.28 367.61,-197.02 356.94,-187.79"/>
<polygon fill="black" stroke="black" points="359.32,-185.23 349.47,-181.34 354.75,-190.52 359.32,-185.23"/>
</g>
<!-- 3&#45;&gt;4 -->
<g id="edge5" class="edge">
<title>3&#45;&gt;4</title>
<path fill="none" stroke="black" d="M374.72,-71.52C387.98,-62.76 404.21,-52.04 418.55,-42.58"/>
<polygon fill="black" stroke="black" points="420.43,-45.53 426.85,-37.09 416.58,-39.68 420.43,-45.53"/>
</g>
<!-- 5 -->
<g id="node6" class="node">
<title>5</title>
<polygon fill="none" stroke="black" points="293,-36 191.5,-36 191.5,0 293,0 293,-36"/>
<text text-anchor="middle" x="242.25" y="-12.95" font-family="Times,serif" font-size="14.00">weaver_version</text>
</g>
<!-- 3&#45;&gt;5 -->
<g id="edge6" class="edge">
<title>3&#45;&gt;5</title>
<path fill="none" stroke="black" d="M321.78,-71.52C308.52,-62.76 292.29,-52.04 277.95,-42.58"/>
<polygon fill="black" stroke="black" points="279.92,-39.68 269.65,-37.09 276.07,-45.53 279.92,-39.68"/>
</g>
<!-- 6&#45;&gt;0 -->
<g id="edge7" class="edge">
<title>6&#45;&gt;0</title>
<path fill="none" stroke="black" d="M275.24,-149.73C231.59,-140.2 167.87,-125.72 104.06,-108.68"/>
<polygon fill="black" stroke="black" points="105.02,-105.31 94.45,-106.09 103.2,-112.07 105.02,-105.31"/>
</g>
<!-- 6&#45;&gt;2 -->
<g id="edge8" class="edge">
<title>6&#45;&gt;2</title>
<path fill="none" stroke="black" d="M378.7,-143.52C406.8,-133.78 441.94,-121.6 471.3,-111.43"/>
<polygon fill="black" stroke="black" points="472.1,-114.86 480.4,-108.27 469.81,-108.24 472.1,-114.86"/>
</g>
<!-- 6&#45;&gt;3 -->
<g id="edge9" class="edge">
<title>6&#45;&gt;3</title>
<path fill="none" stroke="black" d="M333.19,-143.7C335.33,-136.24 337.87,-127.32 340.26,-118.97"/>
<polygon fill="black" stroke="black" points="343.57,-120.14 342.95,-109.56 336.83,-118.21 343.57,-120.14"/>
</g>
<!-- 6&#45;&gt;4 -->
<g id="edge11" class="edge">
<title>6&#45;&gt;4</title>
<path fill="none" stroke="black" d="M381.24,-145.72C400.91,-137.53 421.7,-125.43 435.25,-108 448.53,-90.91 453.04,-66.62 454.36,-47.74"/>
<polygon fill="black" stroke="black" points="457.86,-47.88 454.77,-37.75 450.86,-47.6 457.86,-47.88"/>
</g>
<!-- 6&#45;&gt;5 -->
<g id="edge12" class="edge">
<title>6&#45;&gt;5</title>
<path fill="none" stroke="black" d="M297.86,-143.66C284.69,-134.65 270.25,-122.49 261.25,-108 249.96,-89.84 245.3,-66 243.41,-47.57"/>
<polygon fill="black" stroke="black" points="246.92,-47.55 242.65,-37.86 239.94,-48.1 246.92,-47.55"/>
</g>
<!-- 7 -->
<g id="node8" class="node">
<title>7</title>
<polygon fill="none" stroke="black" points="213.75,-108 110.75,-108 110.75,-72 213.75,-72 213.75,-108"/>
<text text-anchor="middle" x="162.25" y="-84.95" font-family="Times,serif" font-size="14.00">weaver_schema</text>
</g>
<!-- 6&#45;&gt;7 -->
<g id="edge10" class="edge">
<title>6&#45;&gt;7</title>
<path fill="none" stroke="black" d="M286.79,-143.52C264.72,-134.21 237.37,-122.68 213.93,-112.79"/>
<polygon fill="black" stroke="black" points="215.44,-109.63 204.86,-108.97 212.72,-116.08 215.44,-109.63"/>
</g>
<!-- 7&#45;&gt;4 -->
<g id="edge13" class="edge">
<title>7&#45;&gt;4</title>
<path fill="none" stroke="black" d="M214.12,-76.57C262.54,-64.96 335.05,-47.57 387.72,-34.95"/>
<polygon fill="black" stroke="black" points="388.26,-38.42 397.17,-32.68 386.63,-31.61 388.26,-38.42"/>
</g>
<!-- 7&#45;&gt;5 -->
<g id="edge14" class="edge">
<title>7&#45;&gt;5</title>
<path fill="none" stroke="black" d="M182.03,-71.7C191.64,-63.28 203.37,-53.02 213.92,-43.79"/>
<polygon fill="black" stroke="black" points="216.06,-46.56 221.29,-37.34 211.46,-41.29 216.06,-46.56"/>
</g>
<!-- 8 -->
<g id="node9" class="node">
<title>8</title>
<polygon fill="none" stroke="black" points="302.75,-252 193.75,-252 193.75,-216 302.75,-216 302.75,-252"/>
<text text-anchor="middle" x="248.25" y="-228.95" font-family="Times,serif" font-size="14.00">weaver_template</text>
</g>
<!-- 8&#45;&gt;0 -->
<g id="edge15" class="edge">
<title>8&#45;&gt;0</title>
<path fill="none" stroke="black" d="M223.48,-215.59C187.49,-190.29 120.63,-143.29 80.11,-114.8"/>
<polygon fill="black" stroke="black" points="82.34,-112.09 72.14,-109.2 78.31,-117.82 82.34,-112.09"/>
</g>
<!-- 8&#45;&gt;2 -->
<g id="edge16" class="edge">
<title>8&#45;&gt;2</title>
<path fill="none" stroke="black" d="M302.98,-215.58C329.84,-206.28 362.33,-193.89 390.25,-180 428.54,-160.95 469.51,-134.05 497.17,-114.82"/>
<polygon fill="black" stroke="black" points="498.96,-117.85 505.14,-109.24 494.94,-112.12 498.96,-117.85"/>
</g>
<!-- 8&#45;&gt;6 -->
<g id="edge17" class="edge">
<title>8&#45;&gt;6</title>
<path fill="none" stroke="black" d="M268.03,-215.7C277.64,-207.28 289.37,-197.02 299.92,-187.79"/>
<polygon fill="black" stroke="black" points="302.06,-190.56 307.29,-181.34 297.46,-185.29 302.06,-190.56"/>
</g>
<!-- 8&#45;&gt;7 -->
<g id="edge18" class="edge">
<title>8&#45;&gt;7</title>
<path fill="none" stroke="black" d="M244.72,-215.53C240.37,-196.77 231.72,-166.6 217.25,-144 210.76,-133.87 201.96,-124.26 193.3,-116.07"/>
<polygon fill="black" stroke="black" points="195.68,-113.5 185.91,-109.41 191,-118.71 195.68,-113.5"/>
</g>
<!-- 9 -->
<g id="node10" class="node">
<title>9</title>
<polygon fill="none" stroke="black" points="358.75,-324 303.75,-324 303.75,-288 358.75,-288 358.75,-324"/>
<text text-anchor="middle" x="331.25" y="-300.95" font-family="Times,serif" font-size="14.00">weaver</text>
</g>
<!-- 9&#45;&gt;0 -->
<g id="edge19" class="edge">
<title>9&#45;&gt;0</title>
<path fill="none" stroke="black" d="M303.39,-301.76C267.76,-296.47 205.51,-283.22 162.25,-252 113.39,-216.74 77.15,-154.5 59.09,-118.62"/>
<polygon fill="black" stroke="black" points="62.28,-117.18 54.74,-109.74 56,-120.26 62.28,-117.18"/>
</g>
<!-- 9&#45;&gt;1 -->
<g id="edge20" class="edge">
<title>9&#45;&gt;1</title>
<path fill="none" stroke="black" d="M350.53,-287.7C359.91,-279.28 371.34,-269.02 381.63,-259.79"/>
<polygon fill="black" stroke="black" points="383.69,-262.64 388.79,-253.36 379.01,-257.43 383.69,-262.64"/>
</g>
<!-- 9&#45;&gt;2 -->
<g id="edge21" class="edge">
<title>9&#45;&gt;2</title>
<path fill="none" stroke="black" d="M359.24,-300.35C388.65,-294.12 434.52,-280.37 463.25,-252 500.41,-215.3 517.91,-154.96 525.38,-119.5"/>
<polygon fill="black" stroke="black" points="528.75,-120.47 527.24,-109.98 521.88,-119.12 528.75,-120.47"/>
</g>
<!-- 9&#45;&gt;4 -->
<g id="edge24" class="edge">
<title>9&#45;&gt;4</title>
<path fill="none" stroke="black" d="M359.01,-300.24C392.32,-293.56 448.85,-279.07 490.25,-252 558.57,-207.33 580.22,-186.01 604.25,-108 608.96,-92.71 613.49,-85.06 604.25,-72 585.29,-45.19 551.58,-31.85 520.92,-25.25"/>
<polygon fill="black" stroke="black" points="521.76,-21.85 511.28,-23.4 520.44,-28.72 521.76,-21.85"/>
</g>
<!-- 9&#45;&gt;6 -->
<g id="edge22" class="edge">
<title>9&#45;&gt;6</title>
<path fill="none" stroke="black" d="M330.88,-287.59C330.38,-263.61 329.46,-220.14 328.85,-191.42"/>
<polygon fill="black" stroke="black" points="332.35,-191.55 328.64,-181.62 325.36,-191.7 332.35,-191.55"/>
</g>
<!-- 9&#45;&gt;7 -->
<g id="edge23" class="edge">
<title>9&#45;&gt;7</title>
<path fill="none" stroke="black" d="M303.27,-303.19C269.7,-299.41 214.32,-287.79 185.25,-252 154.67,-214.36 154.77,-154.76 158.15,-119.61"/>
<polygon fill="black" stroke="black" points="161.61,-120.1 159.26,-109.77 154.66,-119.31 161.61,-120.1"/>
</g>
<!-- 9&#45;&gt;8 -->
<g id="edge25" class="edge">
<title>9&#45;&gt;8</title>
<path fill="none" stroke="black" d="M310.73,-287.7C300.66,-279.2 288.34,-268.81 277.32,-259.51"/>
<polygon fill="black" stroke="black" points="279.88,-257.09 269.98,-253.32 275.36,-262.45 279.88,-257.09"/>
</g>
</g>
</svg>
